{
	"patcher" : 	{
		"fileversion" : 1,
		"appversion" : 		{
			"major" : 8,
			"minor" : 0,
			"revision" : 0,
			"architecture" : "x64",
			"modernui" : 1
		}
,
		"classnamespace" : "dsp.gen",
		"rect" : [ 599.0, -832.0, 820.0, 451.0 ],
		"bglocked" : 0,
		"openinpresentation" : 0,
		"default_fontsize" : 12.0,
		"default_fontface" : 0,
		"default_fontname" : "Arial",
		"gridonopen" : 1,
		"gridsize" : [ 15.0, 15.0 ],
		"gridsnaponopen" : 1,
		"objectsnaponopen" : 1,
		"statusbarvisible" : 2,
		"toolbarvisible" : 1,
		"lefttoolbarpinned" : 0,
		"toptoolbarpinned" : 0,
		"righttoolbarpinned" : 0,
		"bottomtoolbarpinned" : 0,
		"toolbars_unpinned_last_save" : 0,
		"tallnewobj" : 0,
		"boxanimatetime" : 200,
		"enablehscroll" : 1,
		"enablevscroll" : 1,
		"devicewidth" : 0.0,
		"description" : "",
		"digest" : "",
		"tags" : "",
		"style" : "",
		"subpatcher_template" : "",
		"boxes" : [ 			{
				"box" : 				{
					"id" : "obj-919",
					"maxclass" : "newobj",
					"numinlets" : 1,
					"numoutlets" : 0,
					"patching_rect" : [ 191.0, 389.0, 35.0, 22.0 ],
					"text" : "out 2",
					"varname" : "dac_right"
				}

			}
, 			{
				"box" : 				{
					"id" : "obj-918",
					"maxclass" : "newobj",
					"numinlets" : 1,
					"numoutlets" : 0,
					"patching_rect" : [ 85.0, 389.0, 35.0, 22.0 ],
					"text" : "out 1",
					"varname" : "dac_left"
				}

			}
, 			{
				"box" : 				{
					"id" : "obj-2354",
					"maxclass" : "newobj",
					"numinlets" : 3,
					"numoutlets" : 4,
					"outlettype" : [ "", "", "", "" ],
					"patching_rect" : [ 100.0, 125.0, 100.0, 22.0 ],
					"text" : "gen @gen lfo",
					"varname" : "lfo_1"
				}

			}
, 			{
				"box" : 				{
					"id" : "obj-2355",
					"maxclass" : "newobj",
					"numinlets" : 1,
					"numoutlets" : 1,
					"outlettype" : [ "" ],
					"patching_rect" : [ 100.0, 100.0, 100.0, 22.0 ],
					"text" : "setparam rate",
					"varname" : "lfo_1_setparam_rate"
				}

			}
, 			{
				"box" : 				{
					"id" : "obj-2356",
					"maxclass" : "newobj",
					"numinlets" : 0,
					"numoutlets" : 1,
					"outlettype" : [ "" ],
					"patching_rect" : [ 100.0, 75.0, 106.0, 22.0 ],
					"text" : "param lfo_1__rate",
					"varname" : "lfo_1_param_rate"
				}

			}
, 			{
				"box" : 				{
					"id" : "obj-2357",
					"maxclass" : "newobj",
					"numinlets" : 1,
					"numoutlets" : 1,
					"outlettype" : [ "" ],
					"patching_rect" : [ 250.0, 100.0, 100.0, 22.0 ],
					"text" : "setparam index",
					"varname" : "lfo_1_setparam_index"
				}

			}
, 			{
				"box" : 				{
					"id" : "obj-2358",
					"maxclass" : "newobj",
					"numinlets" : 0,
					"numoutlets" : 1,
					"outlettype" : [ "" ],
					"patching_rect" : [ 250.0, 75.0, 114.0, 22.0 ],
					"text" : "param lfo_1__index",
					"varname" : "lfo_1_param_index"
				}

			}
, 			{
				"box" : 				{
					"id" : "obj-2359",
					"maxclass" : "newobj",
					"numinlets" : 1,
					"numoutlets" : 1,
					"outlettype" : [ "" ],
					"patching_rect" : [ 400.0, 100.0, 126.0, 22.0 ],
					"text" : "setparam pulse_width",
					"varname" : "lfo_1_setparam_pulse_width"
				}

			}
, 			{
				"box" : 				{
					"id" : "obj-2360",
					"maxclass" : "newobj",
					"numinlets" : 0,
					"numoutlets" : 1,
					"outlettype" : [ "" ],
					"patching_rect" : [ 400.0, 75.0, 150.0, 22.0 ],
					"text" : "param lfo_1__pulse_width",
					"varname" : "lfo_1_param_pulse_width"
				}

			}
, 			{
				"box" : 				{
					"id" : "obj-2361",
					"maxclass" : "newobj",
					"numinlets" : 1,
					"numoutlets" : 1,
					"outlettype" : [ "" ],
					"patching_rect" : [ 550.0, 100.0, 100.0, 22.0 ],
					"text" : "setparam onset",
					"varname" : "lfo_1_setparam_onset"
				}

			}
, 			{
				"box" : 				{
					"id" : "obj-2362",
					"maxclass" : "newobj",
					"numinlets" : 0,
					"numoutlets" : 1,
					"outlettype" : [ "" ],
					"patching_rect" : [ 550.0, 75.0, 116.0, 22.0 ],
					"text" : "param lfo_1__onset",
					"varname" : "lfo_1_param_onset"
				}

			}
, 			{
				"box" : 				{
					"id" : "obj-2363",
					"maxclass" : "newobj",
					"numinlets" : 3,
					"numoutlets" : 4,
					"outlettype" : [ "", "", "", "" ],
					"patching_rect" : [ 200.0, 150.0, 100.0, 22.0 ],
					"text" : "gen @gen lfo",
					"varname" : "lfo_2"
				}

			}
, 			{
				"box" : 				{
					"id" : "obj-2364",
					"maxclass" : "newobj",
					"numinlets" : 1,
					"numoutlets" : 1,
					"outlettype" : [ "" ],
					"patching_rect" : [ 200.0, 125.0, 100.0, 22.0 ],
					"text" : "setparam rate",
					"varname" : "lfo_2_setparam_rate"
				}

			}
, 			{
				"box" : 				{
					"id" : "obj-2365",
					"maxclass" : "newobj",
					"numinlets" : 0,
					"numoutlets" : 1,
					"outlettype" : [ "" ],
					"patching_rect" : [ 200.0, 100.0, 106.0, 22.0 ],
					"text" : "param lfo_2__rate",
					"varname" : "lfo_2_param_rate"
				}

			}
, 			{
				"box" : 				{
					"id" : "obj-2366",
					"maxclass" : "newobj",
					"numinlets" : 1,
					"numoutlets" : 1,
					"outlettype" : [ "" ],
					"patching_rect" : [ 350.0, 125.0, 100.0, 22.0 ],
					"text" : "setparam index",
					"varname" : "lfo_2_setparam_index"
				}

			}
, 			{
				"box" : 				{
					"id" : "obj-2367",
					"maxclass" : "newobj",
					"numinlets" : 0,
					"numoutlets" : 1,
					"outlettype" : [ "" ],
					"patching_rect" : [ 350.0, 100.0, 114.0, 22.0 ],
					"text" : "param lfo_2__index",
					"varname" : "lfo_2_param_index"
				}

			}
, 			{
				"box" : 				{
					"id" : "obj-2368",
					"maxclass" : "newobj",
					"numinlets" : 1,
					"numoutlets" : 1,
					"outlettype" : [ "" ],
					"patching_rect" : [ 500.0, 125.0, 126.0, 22.0 ],
					"text" : "setparam pulse_width",
					"varname" : "lfo_2_setparam_pulse_width"
				}

			}
, 			{
				"box" : 				{
					"id" : "obj-2369",
					"maxclass" : "newobj",
					"numinlets" : 0,
					"numoutlets" : 1,
					"outlettype" : [ "" ],
					"patching_rect" : [ 500.0, 100.0, 150.0, 22.0 ],
					"text" : "param lfo_2__pulse_width",
					"varname" : "lfo_2_param_pulse_width"
				}

			}
, 			{
				"box" : 				{
					"id" : "obj-2370",
					"maxclass" : "newobj",
					"numinlets" : 1,
					"numoutlets" : 1,
					"outlettype" : [ "" ],
					"patching_rect" : [ 650.0, 125.0, 100.0, 22.0 ],
					"text" : "setparam onset",
					"varname" : "lfo_2_setparam_onset"
				}

			}
, 			{
				"box" : 				{
					"id" : "obj-2371",
					"maxclass" : "newobj",
					"numinlets" : 0,
					"numoutlets" : 1,
					"outlettype" : [ "" ],
					"patching_rect" : [ 650.0, 100.0, 116.0, 22.0 ],
					"text" : "param lfo_2__onset",
					"varname" : "lfo_2_param_onset"
				}

			}
, 			{
				"box" : 				{
					"id" : "obj-2372",
					"maxclass" : "newobj",
					"numinlets" : 4,
					"numoutlets" : 3,
					"outlettype" : [ "", "", "" ],
					"patching_rect" : [ 300.0, 175.0, 110.0, 22.0 ],
					"text" : "gen @gen dualvco",
					"varname" : "dualvco_1"
				}

			}
, 			{
				"box" : 				{
					"id" : "obj-2373",
					"maxclass" : "newobj",
					"numinlets" : 1,
					"numoutlets" : 1,
					"outlettype" : [ "" ],
					"patching_rect" : [ 300.0, 150.0, 122.0, 22.0 ],
					"text" : "setparam vco_1_rate",
					"varname" : "dualvco_1_setparam_vco_1_rate"
				}

			}
, 			{
				"box" : 				{
					"id" : "obj-2374",
					"maxclass" : "newobj",
					"numinlets" : 0,
					"numoutlets" : 1,
					"outlettype" : [ "" ],
					"patching_rect" : [ 300.0, 125.0, 174.0, 22.0 ],
					"text" : "param dualvco_1__vco_1_rate",
					"varname" : "dualvco_1_param_vco_1_rate"
				}

			}
, 			{
				"box" : 				{
					"id" : "obj-2375",
					"maxclass" : "newobj",
					"numinlets" : 1,
					"numoutlets" : 1,
					"outlettype" : [ "" ],
					"patching_rect" : [ 450.0, 150.0, 154.0, 22.0 ],
					"text" : "setparam vco_1_waveform",
					"varname" : "dualvco_1_setparam_vco_1_waveform"
				}

			}
, 			{
				"box" : 				{
					"id" : "obj-2376",
					"maxclass" : "newobj",
					"numinlets" : 0,
					"numoutlets" : 1,
					"outlettype" : [ "" ],
					"patching_rect" : [ 450.0, 125.0, 206.0, 22.0 ],
					"text" : "param dualvco_1__vco_1_waveform",
					"varname" : "dualvco_1_param_vco_1_waveform"
				}

			}
, 			{
				"box" : 				{
					"id" : "obj-2377",
					"maxclass" : "newobj",
					"numinlets" : 1,
					"numoutlets" : 1,
					"outlettype" : [ "" ],
					"patching_rect" : [ 600.0, 150.0, 122.0, 22.0 ],
					"text" : "setparam vco_2_rate",
					"varname" : "dualvco_1_setparam_vco_2_rate"
				}

			}
, 			{
				"box" : 				{
					"id" : "obj-2378",
					"maxclass" : "newobj",
					"numinlets" : 0,
					"numoutlets" : 1,
					"outlettype" : [ "" ],
					"patching_rect" : [ 600.0, 125.0, 174.0, 22.0 ],
					"text" : "param dualvco_1__vco_2_rate",
					"varname" : "dualvco_1_param_vco_2_rate"
				}

			}
, 			{
				"box" : 				{
					"id" : "obj-2379",
					"maxclass" : "newobj",
					"numinlets" : 1,
					"numoutlets" : 1,
					"outlettype" : [ "" ],
					"patching_rect" : [ 750.0, 150.0, 154.0, 22.0 ],
					"text" : "setparam vco_2_waveform",
					"varname" : "dualvco_1_setparam_vco_2_waveform"
				}

			}
, 			{
				"box" : 				{
					"id" : "obj-2380",
					"maxclass" : "newobj",
					"numinlets" : 0,
					"numoutlets" : 1,
					"outlettype" : [ "" ],
					"patching_rect" : [ 750.0, 125.0, 206.0, 22.0 ],
					"text" : "param dualvco_1__vco_2_waveform",
					"varname" : "dualvco_1_param_vco_2_waveform"
				}

			}
, 			{
				"box" : 				{
					"id" : "obj-2381",
					"maxclass" : "newobj",
					"numinlets" : 1,
					"numoutlets" : 1,
					"outlettype" : [ "" ],
					"patching_rect" : [ 900.0, 150.0, 112.0, 22.0 ],
					"text" : "setparam feedback",
					"varname" : "dualvco_1_setparam_feedback"
				}

			}
, 			{
				"box" : 				{
					"id" : "obj-2382",
					"maxclass" : "newobj",
					"numinlets" : 0,
					"numoutlets" : 1,
					"outlettype" : [ "" ],
					"patching_rect" : [ 900.0, 125.0, 164.0, 22.0 ],
					"text" : "param dualvco_1__feedback",
					"varname" : "dualvco_1_param_feedback"
				}

			}
, 			{
				"box" : 				{
					"id" : "obj-2383",
					"maxclass" : "newobj",
					"numinlets" : 2,
					"numoutlets" : 1,
					"outlettype" : [ "" ],
					"patching_rect" : [ 400.0, 290.0, 100.0, 22.0 ],
					"text" : "gen @gen vca",
					"varname" : "vca_1"
				}

			}
, 			{
				"box" : 				{
					"id" : "obj-2384",
					"maxclass" : "newobj",
					"numinlets" : 1,
					"numoutlets" : 1,
					"outlettype" : [ "" ],
					"patching_rect" : [ 400.0, 265.0, 122.0, 22.0 ],
					"text" : "setparam cv_amount",
					"varname" : "vca_1_setparam_cv_amount"
				}

			}
, 			{
				"box" : 				{
					"id" : "obj-2385",
					"maxclass" : "newobj",
					"numinlets" : 0,
					"numoutlets" : 1,
					"outlettype" : [ "" ],
					"patching_rect" : [ 400.0, 240.0, 150.0, 22.0 ],
					"text" : "param vca_1__cv_amount",
					"varname" : "vca_1_param_cv_amount"
				}

			}
, 			{
				"box" : 				{
					"id" : "obj-2386",
					"maxclass" : "newobj",
					"numinlets" : 1,
					"numoutlets" : 1,
					"outlettype" : [ "" ],
					"patching_rect" : [ 550.0, 265.0, 100.0, 22.0 ],
					"text" : "setparam bias",
					"varname" : "vca_1_setparam_bias"
				}

			}
, 			{
				"box" : 				{
					"id" : "obj-2387",
					"maxclass" : "newobj",
					"numinlets" : 0,
					"numoutlets" : 1,
					"outlettype" : [ "" ],
					"patching_rect" : [ 550.0, 240.0, 114.0, 22.0 ],
					"text" : "param vca_1__bias",
					"varname" : "vca_1_param_bias"
				}

			}
, 			{
				"box" : 				{
					"id" : "obj-2388",
					"maxclass" : "newobj",
					"numinlets" : 2,
					"numoutlets" : 2,
					"outlettype" : [ "", "" ],
					"patching_rect" : [ 500.0, 290.0, 128.0, 22.0 ],
					"text" : "gen @gen comparator",
					"varname" : "comparator_1"
				}

			}
, 			{
				"box" : 				{
					"id" : "obj-2389",
					"maxclass" : "newobj",
					"numinlets" : 2,
					"numoutlets" : 2,
					"outlettype" : [ "", "" ],
					"patching_rect" : [ 600.0, 340.0, 100.0, 22.0 ],
					"text" : "gen @gen outs",
					"varname" : "outs_1"
				}

			}
, 			{
				"box" : 				{
					"id" : "obj-2390",
					"maxclass" : "newobj",
					"numinlets" : 1,
					"numoutlets" : 1,
					"outlettype" : [ "" ],
					"patching_rect" : [ 600.0, 315.0, 102.0, 22.0 ],
					"text" : "setparam volume",
					"varname" : "outs_1_setparam_volume"
				}

			}
, 			{
				"box" : 				{
					"id" : "obj-2391",
					"maxclass" : "newobj",
					"numinlets" : 0,
					"numoutlets" : 1,
					"outlettype" : [ "" ],
					"patching_rect" : [ 600.0, 290.0, 134.0, 22.0 ],
					"text" : "param outs_1__volume",
					"varname" : "outs_1_param_volume"
				}

			}
, 			{
				"box" : 				{
					"id" : "obj-2392",
					"maxclass" : "newobj",
					"numinlets" : 1,
					"numoutlets" : 1,
					"outlettype" : [ "" ],
					"patching_rect" : [ 20.0, 20.0, 100.0, 22.0 ],
					"text" : "history",
					"varname" : "feedback_1"
				}

			}
 ],
		"lines" : [ 			{
				"patchline" : 				{
					"destination" : [ "obj-2363", 0 ],
					"order" : 1,
					"source" : [ "obj-2354", 0 ]
				}

			}
, 			{
				"patchline" : 				{
					"destination" : [ "obj-2372", 0 ],
					"source" : [ "obj-2354", 2 ]
				}

			}
, 			{
				"patchline" : 				{
					"destination" : [ "obj-2372", 2 ],
					"source" : [ "obj-2354", 1 ]
				}

			}
, 			{
				"patchline" : 				{
					"destination" : [ "obj-2383", 0 ],
					"order" : 0,
					"source" : [ "obj-2354", 0 ]
				}

			}
, 			{
				"patchline" : 				{
					"destination" : [ "obj-2354", 0 ],
					"source" : [ "obj-2355", 0 ]
				}

			}
, 			{
				"patchline" : 				{
					"destination" : [ "obj-2355", 0 ],
					"source" : [ "obj-2356", 0 ]
				}

			}
, 			{
				"patchline" : 				{
					"destination" : [ "obj-2354", 0 ],
					"source" : [ "obj-2357", 0 ]
				}

			}
, 			{
				"patchline" : 				{
					"destination" : [ "obj-2357", 0 ],
					"source" : [ "obj-2358", 0 ]
				}

			}
, 			{
				"patchline" : 				{
					"destination" : [ "obj-2354", 0 ],
					"source" : [ "obj-2359", 0 ]
				}

			}
, 			{
				"patchline" : 				{
					"destination" : [ "obj-2359", 0 ],
					"source" : [ "obj-2360", 0 ]
				}

			}
, 			{
				"patchline" : 				{
					"destination" : [ "obj-2354", 0 ],
					"source" : [ "obj-2361", 0 ]
				}

			}
, 			{
				"patchline" : 				{
					"destination" : [ "obj-2361", 0 ],
					"source" : [ "obj-2362", 0 ]
				}

			}
, 			{
				"patchline" : 				{
					"destination" : [ "obj-2383", 1 ],
					"source" : [ "obj-2363", 0 ]
				}

			}
, 			{
				"patchline" : 				{
					"destination" : [ "obj-2363", 0 ],
					"source" : [ "obj-2364", 0 ]
				}

			}
, 			{
				"patchline" : 				{
					"destination" : [ "obj-2364", 0 ],
					"source" : [ "obj-2365", 0 ]
				}

			}
, 			{
				"patchline" : 				{
					"destination" : [ "obj-2363", 0 ],
					"source" : [ "obj-2366", 0 ]
				}

			}
, 			{
				"patchline" : 				{
					"destination" : [ "obj-2366", 0 ],
					"source" : [ "obj-2367", 0 ]
				}

			}
, 			{
				"patchline" : 				{
					"destination" : [ "obj-2363", 0 ],
					"source" : [ "obj-2368", 0 ]
				}

			}
, 			{
				"patchline" : 				{
					"destination" : [ "obj-2368", 0 ],
					"source" : [ "obj-2369", 0 ]
				}

			}
, 			{
				"patchline" : 				{
					"destination" : [ "obj-2363", 0 ],
					"source" : [ "obj-2370", 0 ]
				}

			}
, 			{
				"patchline" : 				{
					"destination" : [ "obj-2370", 0 ],
					"source" : [ "obj-2371", 0 ]
				}

			}
, 			{
				"patchline" : 				{
					"destination" : [ "obj-2388", 1 ],
					"order" : 0,
					"source" : [ "obj-2372", 2 ]
				}

			}
, 			{
				"patchline" : 				{
					"destination" : [ "obj-2392", 0 ],
					"order" : 1,
					"source" : [ "obj-2372", 2 ]
				}

			}
, 			{
				"patchline" : 				{
					"destination" : [ "obj-2372", 0 ],
					"source" : [ "obj-2373", 0 ]
				}

			}
, 			{
				"patchline" : 				{
					"destination" : [ "obj-2373", 0 ],
					"source" : [ "obj-2374", 0 ]
				}

			}
, 			{
				"patchline" : 				{
					"destination" : [ "obj-2372", 0 ],
					"source" : [ "obj-2375", 0 ]
				}

			}
, 			{
				"patchline" : 				{
					"destination" : [ "obj-2375", 0 ],
					"source" : [ "obj-2376", 0 ]
				}

			}
, 			{
				"patchline" : 				{
					"destination" : [ "obj-2372", 0 ],
					"source" : [ "obj-2377", 0 ]
				}

			}
, 			{
				"patchline" : 				{
					"destination" : [ "obj-2377", 0 ],
					"source" : [ "obj-2378", 0 ]
				}

			}
, 			{
				"patchline" : 				{
					"destination" : [ "obj-2372", 0 ],
					"source" : [ "obj-2379", 0 ]
				}

			}
, 			{
				"patchline" : 				{
					"destination" : [ "obj-2379", 0 ],
					"source" : [ "obj-2380", 0 ]
				}

			}
, 			{
				"patchline" : 				{
					"destination" : [ "obj-2372", 0 ],
					"source" : [ "obj-2381", 0 ]
				}

			}
, 			{
				"patchline" : 				{
					"destination" : [ "obj-2381", 0 ],
					"source" : [ "obj-2382", 0 ]
				}

			}
, 			{
				"patchline" : 				{
					"destination" : [ "obj-2388", 0 ],
					"source" : [ "obj-2383", 0 ]
				}

			}
, 			{
				"patchline" : 				{
					"destination" : [ "obj-2383", 0 ],
					"source" : [ "obj-2384", 0 ]
				}

			}
, 			{
				"patchline" : 				{
					"destination" : [ "obj-2384", 0 ],
					"source" : [ "obj-2385", 0 ]
				}

			}
, 			{
				"patchline" : 				{
					"destination" : [ "obj-2383", 0 ],
					"source" : [ "obj-2386", 0 ]
				}

			}
, 			{
				"patchline" : 				{
					"destination" : [ "obj-2386", 0 ],
					"source" : [ "obj-2387", 0 ]
				}

			}
, 			{
				"patchline" : 				{
					"destination" : [ "obj-2389", 1 ],
					"source" : [ "obj-2388", 1 ]
				}

			}
, 			{
				"patchline" : 				{
					"destination" : [ "obj-2389", 0 ],
					"source" : [ "obj-2388", 0 ]
				}

			}
, 			{
				"patchline" : 				{
					"destination" : [ "obj-918", 0 ],
					"source" : [ "obj-2389", 0 ]
				}

			}
, 			{
				"patchline" : 				{
					"destination" : [ "obj-919", 0 ],
					"source" : [ "obj-2389", 1 ]
				}

			}
, 			{
				"patchline" : 				{
					"destination" : [ "obj-2389", 0 ],
					"source" : [ "obj-2390", 0 ]
				}

			}
, 			{
				"patchline" : 				{
					"destination" : [ "obj-2390", 0 ],
					"source" : [ "obj-2391", 0 ]
				}

			}
, 			{
				"patchline" : 				{
					"destination" : [ "obj-2372", 1 ],
					"source" : [ "obj-2392", 0 ]
				}

			}
 ],
		"editing_bgcolor" : [ 0.9, 0.9, 0.9, 1.0 ]
	}

}
