{
	"patcher" : 	{
		"fileversion" : 1,
		"appversion" : 		{
			"major" : 8,
			"minor" : 1,
			"revision" : 5,
			"architecture" : "x64",
			"modernui" : 1
		}
,
		"classnamespace" : "box",
		"rect" : [ 169.0, 98.0, 1200.0, 883.0 ],
		"bglocked" : 0,
		"openinpresentation" : 0,
		"default_fontsize" : 12.0,
		"default_fontface" : 0,
		"default_fontname" : "Arial",
		"gridonopen" : 1,
		"gridsize" : [ 15.0, 15.0 ],
		"gridsnaponopen" : 1,
		"objectsnaponopen" : 1,
		"statusbarvisible" : 2,
		"toolbarvisible" : 1,
		"lefttoolbarpinned" : 0,
		"toptoolbarpinned" : 0,
		"righttoolbarpinned" : 0,
		"bottomtoolbarpinned" : 0,
		"toolbars_unpinned_last_save" : 0,
		"tallnewobj" : 0,
		"boxanimatetime" : 200,
		"enablehscroll" : 1,
		"enablevscroll" : 1,
		"devicewidth" : 0.0,
		"description" : "",
		"digest" : "",
		"tags" : "",
		"style" : "",
		"subpatcher_template" : "",
		"assistshowspatchername" : 0,
		"boxes" : [ 			{
				"box" : 				{
					"id" : "obj-79",
					"maxclass" : "newobj",
					"numinlets" : 1,
					"numoutlets" : 0,
					"patching_rect" : [ 149.0, 438.0, 119.0, 22.0 ],
					"text" : "print fromNodeScript"
				}

			}
, 			{
				"box" : 				{
					"color" : [ 0.811764705882353, 0.372549019607843, 0.372549019607843, 1.0 ],
					"id" : "obj-35",
					"maxclass" : "newobj",
					"numinlets" : 0,
					"numoutlets" : 1,
					"outlettype" : [ "" ],
					"patching_rect" : [ 235.0, 640.0, 143.0, 22.0 ],
					"text" : "receive from_node_script"
				}

			}
, 			{
				"box" : 				{
					"color" : [ 0.811764705882353, 0.372549019607843, 0.372549019607843, 1.0 ],
					"id" : "obj-34",
					"maxclass" : "newobj",
					"numinlets" : 0,
					"numoutlets" : 1,
					"outlettype" : [ "" ],
					"patching_rect" : [ 382.0, 640.0, 143.0, 22.0 ],
					"text" : "receive from_node_script"
				}

			}
, 			{
				"box" : 				{
					"color" : [ 0.811764705882353, 0.372549019607843, 0.372549019607843, 1.0 ],
					"id" : "obj-32",
					"maxclass" : "newobj",
					"numinlets" : 0,
					"numoutlets" : 1,
					"outlettype" : [ "" ],
					"patching_rect" : [ 598.20001220703125, 5.0, 143.0, 22.0 ],
					"text" : "receive from_node_script"
				}

			}
, 			{
				"box" : 				{
					"color" : [ 0.811764705882353, 0.372549019607843, 0.372549019607843, 1.0 ],
					"id" : "obj-31",
					"maxclass" : "newobj",
					"numinlets" : 1,
					"numoutlets" : 0,
					"patching_rect" : [ 9.0, 139.5, 131.0, 22.0 ],
					"text" : "send from_node_script"
				}

			}
, 			{
				"box" : 				{
					"id" : "obj-30",
					"maxclass" : "newobj",
					"numinlets" : 2,
					"numoutlets" : 2,
					"outlettype" : [ "", "" ],
					"patching_rect" : [ 598.20001220703125, 38.0, 88.0, 22.0 ],
					"text" : "route userData"
				}

			}
, 			{
				"box" : 				{
					"id" : "obj-29",
					"maxclass" : "newobj",
					"numinlets" : 2,
					"numoutlets" : 2,
					"outlettype" : [ "", "" ],
					"patching_rect" : [ 235.0, 676.0, 72.0, 22.0 ],
					"text" : "route toGen"
				}

			}
, 			{
				"box" : 				{
					"id" : "obj-27",
					"maxclass" : "newobj",
					"numinlets" : 2,
					"numoutlets" : 2,
					"outlettype" : [ "", "" ],
					"patching_rect" : [ 382.0, 681.5, 126.0, 22.0 ],
					"text" : "route toMsvr_world_js"
				}

			}
, 			{
				"box" : 				{
					"id" : "obj-63",
					"maxclass" : "message",
					"numinlets" : 2,
					"numoutlets" : 1,
					"outlettype" : [ "" ],
					"patching_rect" : [ 419.0, 1482.0, 208.0, 22.0 ],
					"text" : "lfo_2__rate 1."
				}

			}
, 			{
				"box" : 				{
					"id" : "obj-61",
					"maxclass" : "newobj",
					"numinlets" : 2,
					"numoutlets" : 2,
					"outlettype" : [ "", "" ],
					"patching_rect" : [ 327.100000000000023, 1454.0, 45.0, 22.0 ],
					"text" : "zl.rot 1"
				}

			}
, 			{
				"box" : 				{
					"format" : 6,
					"id" : "obj-60",
					"maxclass" : "flonum",
					"maximum" : 1.0,
					"minimum" : 0.0,
					"numinlets" : 1,
					"numoutlets" : 2,
					"outlettype" : [ "", "bang" ],
					"parameter_enable" : 0,
					"patching_rect" : [ 318.0, 1367.0, 50.0, 22.0 ]
				}

			}
, 			{
				"box" : 				{
					"id" : "obj-57",
					"maxclass" : "newobj",
					"numinlets" : 2,
					"numoutlets" : 1,
					"outlettype" : [ "" ],
					"patching_rect" : [ 327.100000000000023, 1423.0, 50.0, 22.0 ],
					"text" : "pack f s"
				}

			}
, 			{
				"box" : 				{
					"id" : "obj-53",
					"maxclass" : "newobj",
					"numinlets" : 1,
					"numoutlets" : 1,
					"outlettype" : [ "" ],
					"patching_rect" : [ 317.600000000000023, 1284.0, 96.0, 22.0 ],
					"text" : "prepend append"
				}

			}
, 			{
				"box" : 				{
					"id" : "obj-52",
					"maxclass" : "newobj",
					"numinlets" : 1,
					"numoutlets" : 3,
					"outlettype" : [ "", "float", "float" ],
					"patching_rect" : [ 317.600000000000023, 1255.0, 70.0, 22.0 ],
					"text" : "unpack s f f"
				}

			}
, 			{
				"box" : 				{
					"id" : "obj-48",
					"maxclass" : "newobj",
					"numinlets" : 1,
					"numoutlets" : 0,
					"patching_rect" : [ 404.0, 1414.0, 32.0, 22.0 ],
					"text" : "print"
				}

			}
, 			{
				"box" : 				{
					"id" : "obj-47",
					"items" : [ "lfo_1__rate", ",", "lfo_1__index", ",", "lfo_1__pulse_width", ",", "lfo_1__onset", ",", "lfo_2__rate", ",", "lfo_2__index", ",", "lfo_2__pulse_width", ",", "lfo_2__onset", ",", "ffmvco_1__vco_1_rate", ",", "ffmvco_1__vco_1_waveform", ",", "ffmvco_1__vco_2_rate", ",", "ffmvco_1__vco_2_waveform", ",", "ffmvco_1__feedback", ",", "vca_1__cv_amount", ",", "vca_1__bias", ",", "lfo_1__rate", ",", "lfo_1__index", ",", "lfo_1__pulse_width", ",", "lfo_1__onset", ",", "lfo_2__rate", ",", "lfo_2__index", ",", "lfo_2__pulse_width", ",", "lfo_2__onset", ",", "dualvco_1__vco_1_rate", ",", "dualvco_1__vco_1_waveform", ",", "dualvco_1__vco_2_rate", ",", "dualvco_1__vco_2_waveform", ",", "dualvco_1__feedback", ",", "vca_1__cv_amount", ",", "vca_1__bias", ",", "outs_1__volume", ",", "lfo_1__rate", ",", "lfo_1__index", ",", "lfo_1__pulse_width", ",", "lfo_1__onset", ",", "lfo_2__rate", ",", "lfo_2__index", ",", "lfo_2__pulse_width", ",", "lfo_2__onset", ",", "dualvco_1__vco_1_rate", ",", "dualvco_1__vco_1_waveform", ",", "dualvco_1__vco_2_rate", ",", "dualvco_1__vco_2_waveform", ",", "dualvco_1__feedback", ",", "vca_1__cv_amount", ",", "vca_1__bias", ",", "outs_1__volume", ",", "dualvco_1__vco_1_rate", ",", "dualvco_1__vco_1_waveform", ",", "dualvco_1__vco_2_rate", ",", "dualvco_1__vco_2_waveform", ",", "dualvco_1__feedback", ",", "dualvco_1__index", ",", "outs_1__volume", ",", "lfo_1__rate", ",", "lfo_1__index", ",", "lfo_1__pulse_width", ",", "lfo_1__onset", ",", "lfo_2__rate", ",", "lfo_2__index", ",", "lfo_2__pulse_width", ",", "lfo_2__onset", ",", "ffmvco_1__vco_1_rate", ",", "ffmvco_1__vco_1_waveform", ",", "ffmvco_1__vco_2_rate", ",", "ffmvco_1__vco_2_waveform", ",", "ffmvco_1__feedback", ",", "vca_1__cv_amount", ",", "vca_1__bias", ",", "lfo_1__rate", ",", "lfo_1__index", ",", "lfo_1__pulse_width", ",", "lfo_1__onset", ",", "lfo_2__rate", ",", "lfo_2__index", ",", "lfo_2__pulse_width", ",", "lfo_2__onset", ",", "dualvco_1__vco_1_rate", ",", "dualvco_1__vco_1_waveform", ",", "dualvco_1__vco_2_rate", ",", "dualvco_1__vco_2_waveform", ",", "dualvco_1__feedback", ",", "vca_1__cv_amount", ",", "vca_1__bias", ",", "outs_1__volume", ",", "lfo_1__rate", ",", "lfo_1__index", ",", "lfo_1__pulse_width", ",", "lfo_1__onset", ",", "lfo_2__rate", ",", "lfo_2__index", ",", "lfo_2__pulse_width", ",", "lfo_2__onset", ",", "ffmvco_1__vco_1_rate", ",", "ffmvco_1__vco_1_waveform", ",", "ffmvco_1__vco_2_rate", ",", "ffmvco_1__vco_2_waveform", ",", "ffmvco_1__feedback", ",", "vca_1__cv_amount", ",", "vca_1__bias", ",", "lfo_1__rate", ",", "lfo_1__index", ",", "lfo_1__pulse_width", ",", "lfo_1__onset", ",", "lfo_2__rate", ",", "lfo_2__index", ",", "lfo_2__pulse_width", ",", "lfo_2__onset", ",", "ffmvco_1__vco_1_rate", ",", "ffmvco_1__vco_1_waveform", ",", "ffmvco_1__vco_2_rate", ",", "ffmvco_1__vco_2_waveform", ",", "ffmvco_1__feedback", ",", "vca_1__cv_amount", ",", "vca_1__bias", ",", "lfo_1__rate", ",", "lfo_1__index", ",", "lfo_1__pulse_width", ",", "lfo_1__onset", ",", "lfo_2__rate", ",", "lfo_2__index", ",", "lfo_2__pulse_width", ",", "lfo_2__onset", ",", "dualvco_1__vco_1_rate", ",", "dualvco_1__vco_1_waveform", ",", "dualvco_1__vco_2_rate", ",", "dualvco_1__vco_2_waveform", ",", "dualvco_1__index", ",", "dualvco_1__feedback", ",", "vca_1__cv_amount", ",", "vca_1__bias", ",", "pulsars_1__period", ",", "pulsars_1__formant", ",", "lfo_1__rate", ",", "lfo_1__index", ",", "lfo_1__pulse_width", ",", "lfo_1__onset", ",", "lfo_2__rate", ",", "lfo_2__index", ",", "lfo_2__pulse_width", ",", "lfo_2__onset", ",", "dualvco_1__vco_1_rate", ",", "dualvco_1__vco_1_waveform", ",", "dualvco_1__vco_2_rate", ",", "dualvco_1__vco_2_waveform", ",", "dualvco_1__index", ",", "dualvco_1__feedback", ",", "vca_1__cv_amount", ",", "vca_1__bias", ",", "pulsars_1__period", ",", "pulsars_1__formant", ",", "lfo_1__rate", ",", "lfo_1__index", ",", "lfo_1__pulse_width", ",", "lfo_1__onset", ",", "lfo_2__rate", ",", "lfo_2__index", ",", "lfo_2__pulse_width", ",", "lfo_2__onset", ",", "dualvco_1__vco_1_rate", ",", "dualvco_1__vco_1_waveform", ",", "dualvco_1__vco_2_rate", ",", "dualvco_1__vco_2_waveform", ",", "dualvco_1__index", ",", "dualvco_1__feedback", ",", "vca_1__cv_amount", ",", "vca_1__bias", ",", "pulsars_1__period", ",", "pulsars_1__formant", ",", "lfo_1__rate", ",", "lfo_1__index", ",", "lfo_1__pulse_width", ",", "lfo_1__onset", ",", "lfo_2__rate", ",", "lfo_2__index", ",", "lfo_2__pulse_width", ",", "lfo_2__onset", ",", "dualvco_1__vco_1_rate", ",", "dualvco_1__vco_1_waveform", ",", "dualvco_1__vco_2_rate", ",", "dualvco_1__vco_2_waveform", ",", "dualvco_1__index", ",", "dualvco_1__feedback", ",", "vca_1__cv_amount", ",", "vca_1__bias", ",", "pulsars_1__period", ",", "pulsars_1__formant", ",", "lfo_1__rate", ",", "lfo_1__index", ",", "lfo_1__pulse_width", ",", "lfo_1__onset", ",", "lfo_2__rate", ",", "lfo_2__index", ",", "lfo_2__pulse_width", ",", "lfo_2__onset", ",", "dualvco_1__vco_1_rate", ",", "dualvco_1__vco_1_waveform", ",", "dualvco_1__vco_2_rate", ",", "dualvco_1__vco_2_waveform", ",", "dualvco_1__index", ",", "dualvco_1__feedback", ",", "vca_1__cv_amount", ",", "vca_1__bias", ",", "pulsars_1__period", ",", "pulsars_1__formant", ",", "lfo_1__rate", ",", "lfo_1__index", ",", "lfo_1__pulse_width", ",", "lfo_1__onset", ",", "lfo_2__rate", ",", "lfo_2__index", ",", "lfo_2__pulse_width", ",", "lfo_2__onset", ",", "dualvco_1__vco_1_rate", ",", "dualvco_1__vco_1_waveform", ",", "dualvco_1__vco_2_rate", ",", "dualvco_1__vco_2_waveform", ",", "dualvco_1__index", ",", "dualvco_1__feedback", ",", "vca_1__cv_amount", ",", "vca_1__bias", ",", "pulsars_1__period", ",", "pulsars_1__formant", ",", "lfo_1__rate", ",", "lfo_1__index", ",", "lfo_1__pulse_width", ",", "lfo_1__onset", ",", "lfo_2__rate", ",", "lfo_2__index", ",", "lfo_2__pulse_width", ",", "lfo_2__onset", ",", "dualvco_1__vco_1_rate", ",", "dualvco_1__vco_1_waveform", ",", "dualvco_1__vco_2_rate", ",", "dualvco_1__vco_2_waveform", ",", "dualvco_1__index", ",", "dualvco_1__feedback", ",", "vca_1__cv_amount", ",", "vca_1__bias", ",", "pulsars_1__period", ",", "pulsars_1__formant", ",", "lfo_1__rate", ",", "lfo_1__index", ",", "lfo_1__pulse_width", ",", "lfo_1__onset", ",", "lfo_2__rate", ",", "lfo_2__index", ",", "lfo_2__pulse_width", ",", "lfo_2__onset", ",", "dualvco_1__vco_1_rate", ",", "dualvco_1__vco_1_waveform", ",", "dualvco_1__vco_2_rate", ",", "dualvco_1__vco_2_waveform", ",", "dualvco_1__index", ",", "dualvco_1__feedback", ",", "vca_1__cv_amount", ",", "vca_1__bias", ",", "pulsars_1__period", ",", "pulsars_1__formant", ",", "lfo_1__rate", ",", "lfo_1__index", ",", "lfo_1__pulse_width", ",", "lfo_1__onset", ",", "lfo_2__rate", ",", "lfo_2__index", ",", "lfo_2__pulse_width", ",", "lfo_2__onset", ",", "dualvco_1__vco_1_rate", ",", "dualvco_1__vco_1_waveform", ",", "dualvco_1__vco_2_rate", ",", "dualvco_1__vco_2_waveform", ",", "dualvco_1__index", ",", "dualvco_1__feedback", ",", "vca_1__cv_amount", ",", "vca_1__bias", ",", "pulsars_1__period", ",", "pulsars_1__formant", ",", "lfo_1__rate", ",", "lfo_1__index", ",", "lfo_1__pulse_width", ",", "lfo_1__onset", ",", "lfo_2__rate", ",", "lfo_2__index", ",", "lfo_2__pulse_width", ",", "lfo_2__onset", ",", "dualvco_1__vco_1_rate", ",", "dualvco_1__vco_1_waveform", ",", "dualvco_1__vco_2_rate", ",", "dualvco_1__vco_2_waveform", ",", "dualvco_1__index", ",", "dualvco_1__feedback", ",", "vca_1__cv_amount", ",", "vca_1__bias", ",", "pulsars_1__period", ",", "pulsars_1__formant", ",", "lfo_1__rate", ",", "lfo_1__index", ",", "lfo_1__pulse_width", ",", "lfo_1__onset", ",", "lfo_2__rate", ",", "lfo_2__index", ",", "lfo_2__pulse_width", ",", "lfo_2__onset", ",", "dualvco_1__vco_1_rate", ",", "dualvco_1__vco_1_waveform", ",", "dualvco_1__vco_2_rate", ",", "dualvco_1__vco_2_waveform", ",", "dualvco_1__index", ",", "dualvco_1__feedback", ",", "vca_1__cv_amount", ",", "vca_1__bias", ",", "pulsars_1__period", ",", "pulsars_1__formant", ",", "lfo_1__rate", ",", "lfo_1__index", ",", "lfo_1__pulse_width", ",", "lfo_1__onset", ",", "lfo_2__rate", ",", "lfo_2__index", ",", "lfo_2__pulse_width", ",", "lfo_2__onset", ",", "dualvco_1__vco_1_rate", ",", "dualvco_1__vco_1_waveform", ",", "dualvco_1__vco_2_rate", ",", "dualvco_1__vco_2_waveform", ",", "dualvco_1__index", ",", "dualvco_1__feedback", ",", "vca_1__cv_amount", ",", "vca_1__bias", ",", "pulsars_1__period", ",", "pulsars_1__formant", ",", "lfo_1__rate", ",", "lfo_1__index", ",", "lfo_1__pulse_width", ",", "lfo_1__onset", ",", "lfo_2__rate", ",", "lfo_2__index", ",", "lfo_2__pulse_width", ",", "lfo_2__onset", ",", "ffmvco_1__vco_1_rate", ",", "ffmvco_1__vco_1_waveform", ",", "ffmvco_1__vco_2_rate", ",", "ffmvco_1__vco_2_waveform", ",", "ffmvco_1__feedback", ",", "vca_1__cv_amount", ",", "vca_1__bias", ",", "lfo_1__rate", ",", "lfo_1__index", ",", "lfo_1__pulse_width", ",", "lfo_1__onset", ",", "lfo_2__rate", ",", "lfo_2__index", ",", "lfo_2__pulse_width", ",", "lfo_2__onset", ",", "ffmvco_1__vco_1_rate", ",", "ffmvco_1__vco_1_waveform", ",", "ffmvco_1__vco_2_rate", ",", "ffmvco_1__vco_2_waveform", ",", "ffmvco_1__feedback", ",", "vca_1__cv_amount", ",", "vca_1__bias", ",", "lfo_1__rate", ",", "lfo_1__index", ",", "lfo_1__pulse_width", ",", "lfo_1__onset", ",", "lfo_2__rate", ",", "lfo_2__index", ",", "lfo_2__pulse_width", ",", "lfo_2__onset", ",", "ffmvco_1__vco_1_rate", ",", "ffmvco_1__vco_1_waveform", ",", "ffmvco_1__vco_2_rate", ",", "ffmvco_1__vco_2_waveform", ",", "ffmvco_1__feedback", ",", "vca_1__cv_amount", ",", "vca_1__bias", ",", "lfo_1__rate", ",", "lfo_1__index", ",", "lfo_1__pulse_width", ",", "lfo_1__onset", ",", "lfo_2__rate", ",", "lfo_2__index", ",", "lfo_2__pulse_width", ",", "lfo_2__onset", ",", "ffmvco_1__vco_1_rate", ",", "ffmvco_1__vco_1_waveform", ",", "ffmvco_1__vco_2_rate", ",", "ffmvco_1__vco_2_waveform", ",", "ffmvco_1__feedback", ",", "vca_1__cv_amount", ",", "vca_1__bias", ",", "lfo_1__rate", ",", "lfo_1__index", ",", "lfo_1__pulse_width", ",", "lfo_1__onset", ",", "lfo_2__rate", ",", "lfo_2__index", ",", "lfo_2__pulse_width", ",", "lfo_2__onset", ",", "ffmvco_1__vco_1_rate", ",", "ffmvco_1__vco_1_waveform", ",", "ffmvco_1__vco_2_rate", ",", "ffmvco_1__vco_2_waveform", ",", "ffmvco_1__feedback", ",", "vca_1__cv_amount", ",", "vca_1__bias", ",", "lfo_1__rate", ",", "lfo_1__index", ",", "lfo_1__pulse_width", ",", "lfo_1__onset", ",", "lfo_2__rate", ",", "lfo_2__index", ",", "lfo_2__pulse_width", ",", "lfo_2__onset", ",", "dualvco_1__vco_1_rate", ",", "dualvco_1__vco_1_waveform", ",", "dualvco_1__vco_2_rate", ",", "dualvco_1__vco_2_waveform", ",", "dualvco_1__index", ",", "dualvco_1__feedback", ",", "vca_1__cv_amount", ",", "vca_1__bias", ",", "pulsars_1__period", ",", "pulsars_1__formant", ",", "lfo_1__rate", ",", "lfo_1__index", ",", "lfo_1__pulse_width", ",", "lfo_1__onset", ",", "lfo_2__rate", ",", "lfo_2__index", ",", "lfo_2__pulse_width", ",", "lfo_2__onset", ",", "dualvco_1__vco_1_rate", ",", "dualvco_1__vco_1_waveform", ",", "dualvco_1__vco_2_rate", ",", "dualvco_1__vco_2_waveform", ",", "dualvco_1__index", ",", "dualvco_1__feedback", ",", "vca_1__cv_amount", ",", "vca_1__bias", ",", "pulsars_1__period", ",", "pulsars_1__formant", ",", "lfo_1__rate", ",", "lfo_1__index", ",", "lfo_1__pulse_width", ",", "lfo_1__onset", ",", "lfo_2__rate", ",", "lfo_2__index", ",", "lfo_2__pulse_width", ",", "lfo_2__onset", ",", "dualvco_1__vco_1_rate", ",", "dualvco_1__vco_1_waveform", ",", "dualvco_1__vco_2_rate", ",", "dualvco_1__vco_2_waveform", ",", "dualvco_1__index", ",", "dualvco_1__feedback", ",", "vca_1__cv_amount", ",", "vca_1__bias", ",", "pulsars_1__period", ",", "pulsars_1__formant", ",", "lfo_1__rate", ",", "lfo_1__index", ",", "lfo_1__pulse_width", ",", "lfo_1__onset", ",", "lfo_2__rate", ",", "lfo_2__index", ",", "lfo_2__pulse_width", ",", "lfo_2__onset", ",", "dualvco_1__vco_1_rate", ",", "dualvco_1__vco_1_waveform", ",", "dualvco_1__vco_2_rate", ",", "dualvco_1__vco_2_waveform", ",", "dualvco_1__index", ",", "dualvco_1__feedback", ",", "vca_1__cv_amount", ",", "vca_1__bias", ",", "pulsars_1__period", ",", "pulsars_1__formant", ",", "lfo_1__rate", ",", "lfo_1__index", ",", "lfo_1__pulse_width", ",", "lfo_1__onset", ",", "lfo_2__rate", ",", "lfo_2__index", ",", "lfo_2__pulse_width", ",", "lfo_2__onset", ",", "dualvco_1__vco_1_rate", ",", "dualvco_1__vco_1_waveform", ",", "dualvco_1__vco_2_rate", ",", "dualvco_1__vco_2_waveform", ",", "dualvco_1__index", ",", "dualvco_1__feedback", ",", "vca_1__cv_amount", ",", "vca_1__bias", ",", "pulsars_1__period", ",", "pulsars_1__formant", ",", "lfo_1__rate", ",", "lfo_1__index", ",", "lfo_1__pulse_width", ",", "lfo_1__onset", ",", "lfo_2__rate", ",", "lfo_2__index", ",", "lfo_2__pulse_width", ",", "lfo_2__onset", ",", "dualvco_1__vco_1_rate", ",", "dualvco_1__vco_1_waveform", ",", "dualvco_1__vco_2_rate", ",", "dualvco_1__vco_2_waveform", ",", "dualvco_1__index", ",", "dualvco_1__feedback", ",", "vca_1__cv_amount", ",", "vca_1__bias", ",", "pulsars_1__period", ",", "pulsars_1__formant", ",", "lfo_1__rate", ",", "lfo_1__index", ",", "lfo_1__pulse_width", ",", "lfo_1__onset", ",", "lfo_2__rate", ",", "lfo_2__index", ",", "lfo_2__pulse_width", ",", "lfo_2__onset", ",", "dualvco_1__vco_1_rate", ",", "dualvco_1__vco_1_waveform", ",", "dualvco_1__vco_2_rate", ",", "dualvco_1__vco_2_waveform", ",", "dualvco_1__index", ",", "dualvco_1__feedback", ",", "vca_1__cv_amount", ",", "vca_1__bias", ",", "pulsars_1__period", ",", "pulsars_1__formant", ",", "lfo_1__rate", ",", "lfo_1__index", ",", "lfo_1__pulse_width", ",", "lfo_1__onset", ",", "lfo_2__rate", ",", "lfo_2__index", ",", "lfo_2__pulse_width", ",", "lfo_2__onset", ",", "dualvco_1__vco_1_rate", ",", "dualvco_1__vco_1_waveform", ",", "dualvco_1__vco_2_rate", ",", "dualvco_1__vco_2_waveform", ",", "dualvco_1__index", ",", "dualvco_1__feedback", ",", "vca_1__cv_amount", ",", "vca_1__bias", ",", "pulsars_1__period", ",", "pulsars_1__formant", ",", "lfo_1__rate", ",", "lfo_1__index", ",", "lfo_1__pulse_width", ",", "lfo_1__onset", ",", "lfo_2__rate", ",", "lfo_2__index", ",", "lfo_2__pulse_width", ",", "lfo_2__onset", ",", "dualvco_1__vco_1_rate", ",", "dualvco_1__vco_1_waveform", ",", "dualvco_1__vco_2_rate", ",", "dualvco_1__vco_2_waveform", ",", "dualvco_1__index", ",", "dualvco_1__feedback", ",", "vca_1__cv_amount", ",", "vca_1__bias", ",", "pulsars_1__period", ",", "pulsars_1__formant", ",", "lfo_1__rate", ",", "lfo_1__index", ",", "lfo_1__pulse_width", ",", "lfo_1__onset", ",", "lfo_2__rate", ",", "lfo_2__index", ",", "lfo_2__pulse_width", ",", "lfo_2__onset", ",", "dualvco_1__vco_1_rate", ",", "dualvco_1__vco_1_waveform", ",", "dualvco_1__vco_2_rate", ",", "dualvco_1__vco_2_waveform", ",", "dualvco_1__index", ",", "dualvco_1__feedback", ",", "vca_1__cv_amount", ",", "vca_1__bias", ",", "pulsars_1__period", ",", "pulsars_1__formant", ",", "lfo_1__rate", ",", "lfo_1__index", ",", "lfo_1__pulse_width", ",", "lfo_1__onset", ",", "lfo_2__rate", ",", "lfo_2__index", ",", "lfo_2__pulse_width", ",", "lfo_2__onset", ",", "dualvco_1__vco_1_rate", ",", "dualvco_1__vco_1_waveform", ",", "dualvco_1__vco_2_rate", ",", "dualvco_1__vco_2_waveform", ",", "dualvco_1__index", ",", "dualvco_1__feedback", ",", "vca_1__cv_amount", ",", "vca_1__bias", ",", "pulsars_1__period", ",", "pulsars_1__formant", ",", "lfo_1__rate", ",", "lfo_1__index", ",", "lfo_1__pulse_width", ",", "lfo_1__onset", ",", "lfo_2__rate", ",", "lfo_2__index", ",", "lfo_2__pulse_width", ",", "lfo_2__onset", ",", "dualvco_1__vco_1_rate", ",", "dualvco_1__vco_1_waveform", ",", "dualvco_1__vco_2_rate", ",", "dualvco_1__vco_2_waveform", ",", "dualvco_1__index", ",", "dualvco_1__feedback", ",", "vca_1__cv_amount", ",", "vca_1__bias", ",", "pulsars_1__period", ",", "pulsars_1__formant", ",", "lfo_1__rate", ",", "lfo_1__index", ",", "lfo_1__pulse_width", ",", "lfo_1__onset", ",", "lfo_2__rate", ",", "lfo_2__index", ",", "lfo_2__pulse_width", ",", "lfo_2__onset", ",", "ffmvco_1__vco_1_rate", ",", "ffmvco_1__vco_1_waveform", ",", "ffmvco_1__vco_2_rate", ",", "ffmvco_1__vco_2_waveform", ",", "ffmvco_1__feedback", ",", "vca_1__cv_amount", ",", "vca_1__bias", ",", "lfo_1__rate", ",", "lfo_1__index", ",", "lfo_1__pulse_width", ",", "lfo_1__onset", ",", "lfo_2__rate", ",", "lfo_2__index", ",", "lfo_2__pulse_width", ",", "lfo_2__onset", ",", "ffmvco_1__vco_1_rate", ",", "ffmvco_1__vco_1_waveform", ",", "ffmvco_1__vco_2_rate", ",", "ffmvco_1__vco_2_waveform", ",", "ffmvco_1__feedback", ",", "vca_1__cv_amount", ",", "vca_1__bias", ",", "lfo_1__rate", ",", "lfo_1__index", ",", "lfo_1__pulse_width", ",", "lfo_1__onset", ",", "lfo_2__rate", ",", "lfo_2__index", ",", "lfo_2__pulse_width", ",", "lfo_2__onset", ",", "ffmvco_1__vco_1_rate", ",", "ffmvco_1__vco_1_waveform", ",", "ffmvco_1__vco_2_rate", ",", "ffmvco_1__vco_2_waveform", ",", "ffmvco_1__feedback", ",", "vca_1__cv_amount", ",", "vca_1__bias", ",", "lfo_1__rate", ",", "lfo_1__index", ",", "lfo_1__pulse_width", ",", "lfo_1__onset", ",", "lfo_2__rate", ",", "lfo_2__index", ",", "lfo_2__pulse_width", ",", "lfo_2__onset", ",", "dualvco_1__vco_1_rate", ",", "dualvco_1__vco_1_waveform", ",", "dualvco_1__vco_2_rate", ",", "dualvco_1__vco_2_waveform", ",", "dualvco_1__index", ",", "dualvco_1__feedback", ",", "vca_1__cv_amount", ",", "vca_1__bias", ",", "pulsars_1__period", ",", "pulsars_1__formant", ",", "lfo_1__rate", ",", "lfo_1__index", ",", "lfo_1__pulse_width", ",", "lfo_1__onset", ",", "lfo_2__rate", ",", "lfo_2__index", ",", "lfo_2__pulse_width", ",", "lfo_2__onset", ",", "dualvco_1__vco_1_rate", ",", "dualvco_1__vco_1_waveform", ",", "dualvco_1__vco_2_rate", ",", "dualvco_1__vco_2_waveform", ",", "dualvco_1__index", ",", "dualvco_1__feedback", ",", "vca_1__cv_amount", ",", "vca_1__bias", ",", "pulsars_1__period", ",", "pulsars_1__formant", ",", "lfo_1__rate", ",", "lfo_1__index", ",", "lfo_1__pulse_width", ",", "lfo_1__onset", ",", "lfo_2__rate", ",", "lfo_2__index", ",", "lfo_2__pulse_width", ",", "lfo_2__onset", ",", "dualvco_1__vco_1_rate", ",", "dualvco_1__vco_1_waveform", ",", "dualvco_1__vco_2_rate", ",", "dualvco_1__vco_2_waveform", ",", "dualvco_1__index", ",", "dualvco_1__feedback", ",", "vca_1__cv_amount", ",", "vca_1__bias", ",", "pulsars_1__period", ",", "pulsars_1__formant", ",", "lfo_1__rate", ",", "lfo_1__index", ",", "lfo_1__pulse_width", ",", "lfo_1__onset", ",", "lfo_2__rate", ",", "lfo_2__index", ",", "lfo_2__pulse_width", ",", "lfo_2__onset", ",", "ffmvco_1__vco_1_rate", ",", "ffmvco_1__vco_1_waveform", ",", "ffmvco_1__vco_2_rate", ",", "ffmvco_1__vco_2_waveform", ",", "ffmvco_1__feedback", ",", "vca_1__cv_amount", ",", "vca_1__bias", ",", "lfo_1__rate", ",", "lfo_1__index", ",", "lfo_1__pulse_width", ",", "lfo_1__onset", ",", "lfo_2__rate", ",", "lfo_2__index", ",", "lfo_2__pulse_width", ",", "lfo_2__onset", ",", "ffmvco_1__vco_1_rate", ",", "ffmvco_1__vco_1_waveform", ",", "ffmvco_1__vco_2_rate", ",", "ffmvco_1__vco_2_waveform", ",", "ffmvco_1__feedback", ",", "vca_1__cv_amount", ",", "vca_1__bias", ",", "lfo_1__rate", ",", "lfo_1__index", ",", "lfo_1__pulse_width", ",", "lfo_1__onset", ",", "lfo_2__rate", ",", "lfo_2__index", ",", "lfo_2__pulse_width", ",", "lfo_2__onset", ",", "ffmvco_1__vco_1_rate", ",", "ffmvco_1__vco_1_waveform", ",", "ffmvco_1__vco_2_rate", ",", "ffmvco_1__vco_2_waveform", ",", "ffmvco_1__feedback", ",", "vca_1__cv_amount", ",", "vca_1__bias", ",", "lfo_1__rate", ",", "lfo_1__index", ",", "lfo_1__pulse_width", ",", "lfo_1__onset", ",", "lfo_2__rate", ",", "lfo_2__index", ",", "lfo_2__pulse_width", ",", "lfo_2__onset", ",", "ffmvco_1__vco_1_rate", ",", "ffmvco_1__vco_1_waveform", ",", "ffmvco_1__vco_2_rate", ",", "ffmvco_1__vco_2_waveform", ",", "ffmvco_1__feedback", ",", "vca_1__cv_amount", ",", "vca_1__bias", ",", "lfo_1__rate", ",", "lfo_1__index", ",", "lfo_1__pulse_width", ",", "lfo_1__onset", ",", "lfo_2__rate", ",", "lfo_2__index", ",", "lfo_2__pulse_width", ",", "lfo_2__onset", ",", "dualvco_1__vco_1_rate", ",", "dualvco_1__vco_1_waveform", ",", "dualvco_1__vco_2_rate", ",", "dualvco_1__vco_2_waveform", ",", "dualvco_1__index", ",", "dualvco_1__feedback", ",", "vca_1__cv_amount", ",", "vca_1__bias", ",", "pulsars_1__period", ",", "pulsars_1__formant", ",", "lfo_1__rate", ",", "lfo_1__index", ",", "lfo_1__pulse_width", ",", "lfo_1__onset", ",", "lfo_2__rate", ",", "lfo_2__index", ",", "lfo_2__pulse_width", ",", "lfo_2__onset", ",", "dualvco_1__vco_1_rate", ",", "dualvco_1__vco_1_waveform", ",", "dualvco_1__vco_2_rate", ",", "dualvco_1__vco_2_waveform", ",", "dualvco_1__index", ",", "dualvco_1__feedback", ",", "vca_1__cv_amount", ",", "vca_1__bias", ",", "pulsars_1__period", ",", "pulsars_1__formant", ",", "lfo_1__rate", ",", "lfo_1__index", ",", "lfo_1__pulse_width", ",", "lfo_1__onset", ",", "lfo_2__rate", ",", "lfo_2__index", ",", "lfo_2__pulse_width", ",", "lfo_2__onset", ",", "dualvco_1__vco_1_rate", ",", "dualvco_1__vco_1_waveform", ",", "dualvco_1__vco_2_rate", ",", "dualvco_1__vco_2_waveform", ",", "dualvco_1__index", ",", "dualvco_1__feedback", ",", "vca_1__cv_amount", ",", "vca_1__bias", ",", "pulsars_1__period", ",", "pulsars_1__formant", ",", "lfo_1__rate", ",", "lfo_1__index", ",", "lfo_1__pulse_width", ",", "lfo_1__onset", ",", "lfo_2__rate", ",", "lfo_2__index", ",", "lfo_2__pulse_width", ",", "lfo_2__onset", ",", "dualvco_1__vco_1_rate", ",", "dualvco_1__vco_1_waveform", ",", "dualvco_1__vco_2_rate", ",", "dualvco_1__vco_2_waveform", ",", "dualvco_1__index", ",", "dualvco_1__feedback", ",", "vca_1__cv_amount", ",", "vca_1__bias", ",", "pulsars_1__period", ",", "pulsars_1__formant" ],
					"maxclass" : "umenu",
					"numinlets" : 1,
					"numoutlets" : 3,
					"outlettype" : [ "int", "", "" ],
					"parameter_enable" : 0,
					"patching_rect" : [ 317.600000000000023, 1311.0, 100.0, 22.0 ]
				}

			}
, 			{
				"box" : 				{
					"id" : "obj-25",
					"maxclass" : "message",
					"numinlets" : 2,
					"numoutlets" : 1,
					"outlettype" : [ "" ],
					"patching_rect" : [ 646.0, 1179.0, 35.0, 22.0 ],
					"text" : "clear"
				}

			}
, 			{
				"box" : 				{
					"id" : "obj-20",
					"maxclass" : "message",
					"numinlets" : 2,
					"numoutlets" : 1,
					"outlettype" : [ "" ],
					"patching_rect" : [ 98.0, 71.0, 98.0, 22.0 ],
					"text" : "script npm install"
				}

			}
, 			{
				"box" : 				{
					"color" : [ 1.0, 0.0, 0.0, 1.0 ],
					"id" : "obj-154",
					"maxclass" : "newobj",
					"numinlets" : 1,
					"numoutlets" : 1,
					"outlettype" : [ "bang" ],
					"patching_rect" : [ 540.20001220703125, 1157.0, 58.0, 22.0 ],
					"text" : "loadbang"
				}

			}
, 			{
				"box" : 				{
					"id" : "obj-153",
					"maxclass" : "comment",
					"numinlets" : 1,
					"numoutlets" : 0,
					"patching_rect" : [ 107.0, 1157.0, 150.0, 20.0 ],
					"text" : "Param Scripting"
				}

			}
, 			{
				"box" : 				{
					"color" : [ 1.0, 0.0, 0.0, 1.0 ],
					"id" : "obj-149",
					"maxclass" : "newobj",
					"numinlets" : 1,
					"numoutlets" : 1,
					"outlettype" : [ "" ],
					"patching_rect" : [ 63.5, 1477.0, 53.0, 22.0 ],
					"text" : "prepend"
				}

			}
, 			{
				"box" : 				{
					"color" : [ 1.0, 0.0, 0.0, 1.0 ],
					"id" : "obj-148",
					"maxclass" : "newobj",
					"numinlets" : 1,
					"numoutlets" : 1,
					"outlettype" : [ "" ],
					"patching_rect" : [ 63.5, 1444.0, 72.0, 22.0 ],
					"text" : "prepend set"
				}

			}
, 			{
				"box" : 				{
					"color" : [ 1.0, 0.0, 0.0, 1.0 ],
					"id" : "obj-145",
					"maxclass" : "newobj",
					"numinlets" : 6,
					"numoutlets" : 1,
					"outlettype" : [ "" ],
					"patching_rect" : [ 41.0, 1405.0, 139.0, 22.0 ],
					"text" : "scale 0. 1. 0. 1."
				}

			}
, 			{
				"box" : 				{
					"color" : [ 1.0, 0.0, 0.0, 1.0 ],
					"id" : "obj-144",
					"maxclass" : "newobj",
					"numinlets" : 1,
					"numoutlets" : 3,
					"outlettype" : [ "", "float", "float" ],
					"patching_rect" : [ 86.0, 1316.0, 70.0, 22.0 ],
					"text" : "unpack s f f"
				}

			}
, 			{
				"box" : 				{
					"color" : [ 1.0, 0.0, 0.0, 1.0 ],
					"id" : "obj-133",
					"maxclass" : "newobj",
					"numinlets" : 2,
					"numoutlets" : 2,
					"outlettype" : [ "", "" ],
					"patching_rect" : [ 41.0, 1157.0, 45.0, 22.0 ],
					"text" : "zl.rot 1"
				}

			}
, 			{
				"box" : 				{
					"color" : [ 1.0, 0.0, 0.0, 1.0 ],
					"id" : "obj-131",
					"maxclass" : "newobj",
					"numinlets" : 2,
					"numoutlets" : 4,
					"outlettype" : [ "dictionary", "", "", "" ],
					"patching_rect" : [ 85.0, 1270.0, 93.0, 22.0 ],
					"saved_object_attributes" : 					{
						"embed" : 0,
						"parameter_enable" : 0,
						"parameter_mappable" : 0
					}
,
					"text" : "dict namespace"
				}

			}
, 			{
				"box" : 				{
					"color" : [ 1.0, 0.0, 0.0, 1.0 ],
					"id" : "obj-129",
					"maxclass" : "newobj",
					"numinlets" : 1,
					"numoutlets" : 1,
					"outlettype" : [ "" ],
					"patching_rect" : [ 85.0, 1227.0, 73.0, 22.0 ],
					"text" : "prepend get"
				}

			}
, 			{
				"box" : 				{
					"color" : [ 1.0, 0.0, 0.0, 1.0 ],
					"id" : "obj-128",
					"maxclass" : "newobj",
					"numinlets" : 1,
					"numoutlets" : 2,
					"outlettype" : [ "float", "" ],
					"patching_rect" : [ 41.0, 1190.0, 63.0, 22.0 ],
					"text" : "unpack f s"
				}

			}
, 			{
				"box" : 				{
					"color" : [ 1.0, 0.0, 0.0, 1.0 ],
					"id" : "obj-123",
					"maxclass" : "newobj",
					"numinlets" : 1,
					"numoutlets" : 1,
					"outlettype" : [ "" ],
					"patching_rect" : [ 460.0, 1157.0, 72.0, 22.0 ],
					"text" : "prepend set"
				}

			}
, 			{
				"box" : 				{
					"id" : "obj-108",
					"maxclass" : "dict.view",
					"numinlets" : 1,
					"numoutlets" : 0,
					"patching_rect" : [ 460.0, 1222.0, 408.0, 138.0 ]
				}

			}
, 			{
				"box" : 				{
					"color" : [ 1.0, 0.0, 0.0, 1.0 ],
					"id" : "obj-107",
					"maxclass" : "newobj",
					"numinlets" : 2,
					"numoutlets" : 4,
					"outlettype" : [ "dictionary", "", "", "" ],
					"patching_rect" : [ 460.0, 1195.0, 93.0, 22.0 ],
					"saved_object_attributes" : 					{
						"embed" : 0,
						"parameter_enable" : 0,
						"parameter_mappable" : 0
					}
,
					"text" : "dict namespace"
				}

			}
, 			{
				"box" : 				{
					"id" : "obj-15",
					"maxclass" : "newobj",
					"numinlets" : 2,
					"numoutlets" : 2,
					"outlettype" : [ "", "" ],
					"patching_rect" : [ 773.0, 1034.0, 98.0, 22.0 ],
					"text" : "route thispatcher"
				}

			}
, 			{
				"box" : 				{
					"id" : "obj-10",
					"maxclass" : "message",
					"numinlets" : 2,
					"numoutlets" : 1,
					"outlettype" : [ "" ],
					"patching_rect" : [ 84.0, 861.0, 84.0, 22.0 ],
					"text" : "resetCounters"
				}

			}
, 			{
				"box" : 				{
					"id" : "obj-136",
					"maxclass" : "newobj",
					"numinlets" : 1,
					"numoutlets" : 1,
					"outlettype" : [ "" ],
					"patching_rect" : [ 509.0, 1005.0, 54.0, 22.0 ],
					"text" : "deferlow"
				}

			}
, 			{
				"box" : 				{
					"id" : "obj-130",
					"maxclass" : "newobj",
					"numinlets" : 1,
					"numoutlets" : 1,
					"outlettype" : [ "" ],
					"patching_rect" : [ 509.0, 1034.0, 256.0, 22.0 ],
					"saved_object_attributes" : 					{
						"filename" : "deferlowScript.js",
						"parameter_enable" : 0
					}
,
					"text" : "js deferlowScript.js @autocompile 1 @watch 1"
				}

			}
, 			{
				"box" : 				{
					"id" : "obj-37",
					"maxclass" : "message",
					"numinlets" : 2,
					"numoutlets" : 1,
					"outlettype" : [ "" ],
					"patching_rect" : [ 173.0, 861.0, 35.0, 22.0 ],
					"text" : "clear"
				}

			}
, 			{
				"box" : 				{
					"id" : "obj-33",
					"linecount" : 3,
					"maxclass" : "newobj",
					"numinlets" : 1,
					"numoutlets" : 2,
					"outlettype" : [ "signal", "signal" ],
					"patcher" : 					{
						"fileversion" : 1,
						"appversion" : 						{
							"major" : 8,
							"minor" : 1,
							"revision" : 5,
							"architecture" : "x64",
							"modernui" : 1
						}
,
						"classnamespace" : "box",
						"rect" : [ 59.0, 107.0, 640.0, 480.0 ],
						"bglocked" : 0,
						"openinpresentation" : 0,
						"default_fontsize" : 12.0,
						"default_fontface" : 0,
						"default_fontname" : "Arial",
						"gridonopen" : 1,
						"gridsize" : [ 15.0, 15.0 ],
						"gridsnaponopen" : 1,
						"objectsnaponopen" : 1,
						"statusbarvisible" : 2,
						"toolbarvisible" : 1,
						"lefttoolbarpinned" : 0,
						"toptoolbarpinned" : 0,
						"righttoolbarpinned" : 0,
						"bottomtoolbarpinned" : 0,
						"toolbars_unpinned_last_save" : 0,
						"tallnewobj" : 0,
						"boxanimatetime" : 200,
						"enablehscroll" : 1,
						"enablevscroll" : 1,
						"devicewidth" : 0.0,
						"description" : "",
						"digest" : "",
						"tags" : "",
						"style" : "",
						"subpatcher_template" : "",
						"assistshowspatchername" : 0,
						"boxes" : [ 							{
								"box" : 								{
									"id" : "obj-125",
									"maxclass" : "dict.view",
									"numinlets" : 1,
									"numoutlets" : 0,
									"patching_rect" : [ 265.0, 127.0, 88.0, 56.0 ],
									"presentation" : 1,
									"presentation_rect" : [ 824.0, -16.0, 303.0, 640.0 ]
								}

							}
, 							{
								"box" : 								{
									"id" : "obj-121",
									"maxclass" : "newobj",
									"numinlets" : 1,
									"numoutlets" : 1,
									"outlettype" : [ "dictionary" ],
									"patching_rect" : [ 265.0, 100.0, 88.0, 22.0 ],
									"text" : "dict.deserialize"
								}

							}
, 							{
								"box" : 								{
									"id" : "obj-9",
									"linecount" : 2,
									"maxclass" : "comment",
									"numinlets" : 1,
									"numoutlets" : 0,
									"patching_rect" : [ 120.5, 312.0, 150.0, 34.0 ],
									"text" : "we can ignore the id number assigned by Vive"
								}

							}
, 							{
								"box" : 								{
									"id" : "obj-41",
									"maxclass" : "newobj",
									"numinlets" : 1,
									"numoutlets" : 1,
									"outlettype" : [ "" ],
									"patching_rect" : [ 61.0, 457.0, 79.0, 22.0 ],
									"text" : "prepend quat"
								}

							}
, 							{
								"box" : 								{
									"format" : 6,
									"id" : "obj-43",
									"maxclass" : "flonum",
									"numinlets" : 1,
									"numoutlets" : 2,
									"outlettype" : [ "", "bang" ],
									"parameter_enable" : 0,
									"patching_rect" : [ 61.0, 373.0, 50.0, 22.0 ]
								}

							}
, 							{
								"box" : 								{
									"id" : "obj-44",
									"maxclass" : "message",
									"numinlets" : 2,
									"numoutlets" : 1,
									"outlettype" : [ "" ],
									"patching_rect" : [ 61.0, 402.0, 49.0, 22.0 ],
									"text" : "0. $1 0."
								}

							}
, 							{
								"box" : 								{
									"id" : "obj-47",
									"maxclass" : "newobj",
									"numinlets" : 1,
									"numoutlets" : 2,
									"outlettype" : [ "list", "" ],
									"patching_rect" : [ 61.0, 430.0, 77.0, 22.0 ],
									"text" : "jit.euler2quat"
								}

							}
, 							{
								"box" : 								{
									"attr" : "reverb_range",
									"id" : "obj-49",
									"maxclass" : "attrui",
									"numinlets" : 1,
									"numoutlets" : 1,
									"outlettype" : [ "" ],
									"patching_rect" : [ 169.0, 468.0, 203.0, 22.0 ]
								}

							}
, 							{
								"box" : 								{
									"attr" : "simple_room_modeling",
									"id" : "obj-57",
									"maxclass" : "attrui",
									"numinlets" : 1,
									"numoutlets" : 1,
									"outlettype" : [ "" ],
									"patching_rect" : [ 169.0, 434.0, 150.0, 22.0 ]
								}

							}
, 							{
								"box" : 								{
									"attr" : "randomize_reverberation",
									"id" : "obj-24",
									"maxclass" : "attrui",
									"numinlets" : 1,
									"numoutlets" : 1,
									"outlettype" : [ "" ],
									"patching_rect" : [ 169.0, 410.0, 150.0, 22.0 ]
								}

							}
, 							{
								"box" : 								{
									"attr" : "late_reverberation",
									"id" : "obj-23",
									"maxclass" : "attrui",
									"numinlets" : 1,
									"numoutlets" : 1,
									"outlettype" : [ "" ],
									"patching_rect" : [ 169.0, 386.0, 150.0, 22.0 ]
								}

							}
, 							{
								"box" : 								{
									"id" : "obj-59",
									"maxclass" : "newobj",
									"numinlets" : 2,
									"numoutlets" : 3,
									"outlettype" : [ "signal", "signal", "" ],
									"patching_rect" : [ 86.0, 547.0, 69.0, 22.0 ],
									"text" : "vr.context~"
								}

							}
, 							{
								"box" : 								{
									"attr" : "reverb_wet",
									"id" : "obj-60",
									"maxclass" : "attrui",
									"numinlets" : 1,
									"numoutlets" : 1,
									"outlettype" : [ "" ],
									"patching_rect" : [ 169.0, 364.0, 150.0, 22.0 ]
								}

							}
, 							{
								"box" : 								{
									"attr" : "hrtf_method",
									"id" : "obj-62",
									"maxclass" : "attrui",
									"numinlets" : 1,
									"numoutlets" : 1,
									"outlettype" : [ "" ],
									"patching_rect" : [ 328.0, 434.0, 150.0, 22.0 ]
								}

							}
, 							{
								"box" : 								{
									"attr" : "position",
									"id" : "obj-75",
									"maxclass" : "attrui",
									"numinlets" : 1,
									"numoutlets" : 1,
									"outlettype" : [ "" ],
									"patching_rect" : [ 169.0, 516.0, 270.0, 22.0 ]
								}

							}
, 							{
								"box" : 								{
									"id" : "obj-37",
									"maxclass" : "newobj",
									"numinlets" : 2,
									"numoutlets" : 2,
									"outlettype" : [ "", "" ],
									"patching_rect" : [ 50.0, 313.0, 55.0, 22.0 ],
									"text" : "zl.slice 1"
								}

							}
, 							{
								"box" : 								{
									"id" : "obj-35",
									"maxclass" : "newobj",
									"numinlets" : 2,
									"numoutlets" : 2,
									"outlettype" : [ "", "" ],
									"patching_rect" : [ 50.0, 284.0, 49.0, 22.0 ],
									"text" : "route id"
								}

							}
, 							{
								"box" : 								{
									"id" : "obj-12",
									"linecount" : 5,
									"maxclass" : "message",
									"numinlets" : 2,
									"numoutlets" : 1,
									"outlettype" : [ "" ],
									"patching_rect" : [ 69.5, 171.0, 101.0, 77.0 ],
									"text" : "id 0 quat 0.004879 0.925465 -0.015026 0.378503"
								}

							}
, 							{
								"box" : 								{
									"id" : "obj-53",
									"maxclass" : "newobj",
									"numinlets" : 1,
									"numoutlets" : 6,
									"outlettype" : [ "signal", "signal", "signal", "signal", "signal", "signal" ],
									"patching_rect" : [ 164.5, 133.0, 88.0, 22.0 ],
									"text" : "gen~ controller"
								}

							}
, 							{
								"box" : 								{
									"id" : "obj-45",
									"maxclass" : "newobj",
									"numinlets" : 1,
									"numoutlets" : 1,
									"outlettype" : [ "" ],
									"patching_rect" : [ 50.0, 100.0, 84.0, 22.0 ],
									"text" : "prepend client"
								}

							}
, 							{
								"box" : 								{
									"id" : "obj-4",
									"maxclass" : "newobj",
									"numinlets" : 1,
									"numoutlets" : 6,
									"outlettype" : [ "", "", "", "", "", "" ],
									"patching_rect" : [ 50.0, 133.0, 103.0, 22.0 ],
									"saved_object_attributes" : 									{
										"filename" : "gesture_data.js",
										"parameter_enable" : 0
									}
,
									"text" : "js gesture_data.js"
								}

							}
, 							{
								"box" : 								{
									"comment" : "",
									"id" : "obj-25",
									"index" : 1,
									"maxclass" : "inlet",
									"numinlets" : 0,
									"numoutlets" : 1,
									"outlettype" : [ "" ],
									"patching_rect" : [ 151.5, 40.0, 30.0, 30.0 ]
								}

							}
, 							{
								"box" : 								{
									"comment" : "",
									"id" : "obj-30",
									"index" : 1,
									"maxclass" : "outlet",
									"numinlets" : 1,
									"numoutlets" : 0,
									"patching_rect" : [ 86.0, 629.0, 30.0, 30.0 ]
								}

							}
, 							{
								"box" : 								{
									"comment" : "",
									"id" : "obj-31",
									"index" : 2,
									"maxclass" : "outlet",
									"numinlets" : 1,
									"numoutlets" : 0,
									"patching_rect" : [ 136.0, 629.0, 30.0, 30.0 ]
								}

							}
 ],
						"lines" : [ 							{
								"patchline" : 								{
									"destination" : [ "obj-125", 0 ],
									"source" : [ "obj-121", 0 ]
								}

							}
, 							{
								"patchline" : 								{
									"destination" : [ "obj-59", 0 ],
									"source" : [ "obj-23", 0 ]
								}

							}
, 							{
								"patchline" : 								{
									"destination" : [ "obj-59", 0 ],
									"source" : [ "obj-24", 0 ]
								}

							}
, 							{
								"patchline" : 								{
									"destination" : [ "obj-121", 0 ],
									"order" : 0,
									"source" : [ "obj-25", 0 ]
								}

							}
, 							{
								"patchline" : 								{
									"destination" : [ "obj-45", 0 ],
									"order" : 1,
									"source" : [ "obj-25", 0 ]
								}

							}
, 							{
								"patchline" : 								{
									"destination" : [ "obj-37", 0 ],
									"source" : [ "obj-35", 0 ]
								}

							}
, 							{
								"patchline" : 								{
									"destination" : [ "obj-59", 0 ],
									"source" : [ "obj-37", 1 ]
								}

							}
, 							{
								"patchline" : 								{
									"destination" : [ "obj-12", 1 ],
									"source" : [ "obj-4", 1 ]
								}

							}
, 							{
								"patchline" : 								{
									"destination" : [ "obj-35", 0 ],
									"source" : [ "obj-4", 0 ]
								}

							}
, 							{
								"patchline" : 								{
									"destination" : [ "obj-59", 0 ],
									"source" : [ "obj-41", 0 ]
								}

							}
, 							{
								"patchline" : 								{
									"destination" : [ "obj-44", 0 ],
									"source" : [ "obj-43", 0 ]
								}

							}
, 							{
								"patchline" : 								{
									"destination" : [ "obj-47", 0 ],
									"source" : [ "obj-44", 0 ]
								}

							}
, 							{
								"patchline" : 								{
									"destination" : [ "obj-4", 0 ],
									"source" : [ "obj-45", 0 ]
								}

							}
, 							{
								"patchline" : 								{
									"destination" : [ "obj-41", 0 ],
									"source" : [ "obj-47", 0 ]
								}

							}
, 							{
								"patchline" : 								{
									"destination" : [ "obj-59", 0 ],
									"source" : [ "obj-49", 0 ]
								}

							}
, 							{
								"patchline" : 								{
									"destination" : [ "obj-59", 0 ],
									"source" : [ "obj-57", 0 ]
								}

							}
, 							{
								"patchline" : 								{
									"destination" : [ "obj-30", 0 ],
									"source" : [ "obj-59", 0 ]
								}

							}
, 							{
								"patchline" : 								{
									"destination" : [ "obj-31", 0 ],
									"source" : [ "obj-59", 1 ]
								}

							}
, 							{
								"patchline" : 								{
									"destination" : [ "obj-59", 0 ],
									"source" : [ "obj-60", 0 ]
								}

							}
, 							{
								"patchline" : 								{
									"destination" : [ "obj-59", 0 ],
									"source" : [ "obj-62", 0 ]
								}

							}
, 							{
								"patchline" : 								{
									"destination" : [ "obj-59", 0 ],
									"source" : [ "obj-75", 0 ]
								}

							}
 ]
					}
,
					"patching_rect" : [ 598.20001220703125, 65.5, 108.0, 50.0 ],
					"saved_object_attributes" : 					{
						"description" : "",
						"digest" : "",
						"globalpatchername" : "",
						"tags" : ""
					}
,
					"text" : "p gesture_&_HMD_&_controller_data"
				}

			}
, 			{
				"box" : 				{
					"id" : "obj-97",
					"maxclass" : "newobj",
					"numinlets" : 1,
					"numoutlets" : 1,
					"outlettype" : [ "" ],
					"patcher" : 					{
						"fileversion" : 1,
						"appversion" : 						{
							"major" : 8,
							"minor" : 1,
							"revision" : 5,
							"architecture" : "x64",
							"modernui" : 1
						}
,
						"classnamespace" : "box",
						"rect" : [ 59.0, 107.0, 640.0, 480.0 ],
						"bglocked" : 0,
						"openinpresentation" : 0,
						"default_fontsize" : 12.0,
						"default_fontface" : 0,
						"default_fontname" : "Arial",
						"gridonopen" : 1,
						"gridsize" : [ 15.0, 15.0 ],
						"gridsnaponopen" : 1,
						"objectsnaponopen" : 1,
						"statusbarvisible" : 2,
						"toolbarvisible" : 1,
						"lefttoolbarpinned" : 0,
						"toptoolbarpinned" : 0,
						"righttoolbarpinned" : 0,
						"bottomtoolbarpinned" : 0,
						"toolbars_unpinned_last_save" : 0,
						"tallnewobj" : 0,
						"boxanimatetime" : 200,
						"enablehscroll" : 1,
						"enablevscroll" : 1,
						"devicewidth" : 0.0,
						"description" : "",
						"digest" : "",
						"tags" : "",
						"style" : "",
						"subpatcher_template" : "",
						"assistshowspatchername" : 0,
						"boxes" : [ 							{
								"box" : 								{
									"id" : "obj-93",
									"maxclass" : "newobj",
									"numinlets" : 0,
									"numoutlets" : 1,
									"outlettype" : [ "" ],
									"patcher" : 									{
										"fileversion" : 1,
										"appversion" : 										{
											"major" : 8,
											"minor" : 1,
											"revision" : 5,
											"architecture" : "x64",
											"modernui" : 1
										}
,
										"classnamespace" : "box",
										"rect" : [ 59.0, 107.0, 640.0, 480.0 ],
										"bglocked" : 0,
										"openinpresentation" : 0,
										"default_fontsize" : 12.0,
										"default_fontface" : 0,
										"default_fontname" : "Arial",
										"gridonopen" : 1,
										"gridsize" : [ 15.0, 15.0 ],
										"gridsnaponopen" : 1,
										"objectsnaponopen" : 1,
										"statusbarvisible" : 2,
										"toolbarvisible" : 1,
										"lefttoolbarpinned" : 0,
										"toptoolbarpinned" : 0,
										"righttoolbarpinned" : 0,
										"bottomtoolbarpinned" : 0,
										"toolbars_unpinned_last_save" : 0,
										"tallnewobj" : 0,
										"boxanimatetime" : 200,
										"enablehscroll" : 1,
										"enablevscroll" : 1,
										"devicewidth" : 0.0,
										"description" : "",
										"digest" : "",
										"tags" : "",
										"style" : "",
										"subpatcher_template" : "",
										"assistshowspatchername" : 0,
										"boxes" : [ 											{
												"box" : 												{
													"id" : "obj-146",
													"maxclass" : "newobj",
													"numinlets" : 1,
													"numoutlets" : 1,
													"outlettype" : [ "" ],
													"patching_rect" : [ 594.0, 200.5, 70.0, 22.0 ],
													"text" : "loadmess 1"
												}

											}
, 											{
												"box" : 												{
													"id" : "obj-145",
													"maxclass" : "newobj",
													"numinlets" : 2,
													"numoutlets" : 1,
													"outlettype" : [ "int" ],
													"patching_rect" : [ 563.0, 318.0, 29.5, 22.0 ],
													"text" : "i"
												}

											}
, 											{
												"box" : 												{
													"id" : "obj-136",
													"maxclass" : "newobj",
													"numinlets" : 2,
													"numoutlets" : 1,
													"outlettype" : [ "float" ],
													"patching_rect" : [ 563.0, 358.0, 29.5, 22.0 ],
													"text" : "* 1."
												}

											}
, 											{
												"box" : 												{
													"id" : "obj-133",
													"maxclass" : "newobj",
													"numinlets" : 1,
													"numoutlets" : 2,
													"outlettype" : [ "bang", "float" ],
													"patching_rect" : [ 594.25, 281.295745849609375, 29.5, 22.0 ],
													"text" : "t b f"
												}

											}
, 											{
												"box" : 												{
													"id" : "obj-129",
													"maxclass" : "newobj",
													"numinlets" : 2,
													"numoutlets" : 1,
													"outlettype" : [ "float" ],
													"patching_rect" : [ 594.25, 252.0, 39.0, 22.0 ],
													"text" : "/ 100."
												}

											}
, 											{
												"box" : 												{
													"id" : "obj-123",
													"maxclass" : "number",
													"maximum" : 100,
													"minimum" : 1,
													"numinlets" : 1,
													"numoutlets" : 2,
													"outlettype" : [ "", "bang" ],
													"parameter_enable" : 0,
													"patching_rect" : [ 594.0, 226.0, 50.0, 22.0 ],
													"presentation" : 1,
													"presentation_rect" : [ 491.0, 490.0, 50.0, 22.0 ]
												}

											}
, 											{
												"box" : 												{
													"id" : "obj-120",
													"maxclass" : "newobj",
													"numinlets" : 2,
													"numoutlets" : 1,
													"outlettype" : [ "bang" ],
													"patching_rect" : [ 185.5, 100.0, 119.0, 22.0 ],
													"text" : "metro 100 @active 1"
												}

											}
, 											{
												"box" : 												{
													"id" : "obj-118",
													"maxclass" : "newobj",
													"numinlets" : 1,
													"numoutlets" : 1,
													"outlettype" : [ "bang" ],
													"patching_rect" : [ 263.5, 182.747589111328125, 22.0, 22.0 ],
													"text" : "t b"
												}

											}
, 											{
												"box" : 												{
													"id" : "obj-117",
													"maxclass" : "newobj",
													"numinlets" : 1,
													"numoutlets" : 3,
													"outlettype" : [ "", "int", "int" ],
													"patching_rect" : [ 263.5, 156.0, 48.0, 22.0 ],
													"text" : "change"
												}

											}
, 											{
												"box" : 												{
													"fontname" : "Arial",
													"fontsize" : 13.0,
													"id" : "obj-99",
													"maxclass" : "newobj",
													"numinlets" : 2,
													"numoutlets" : 2,
													"outlettype" : [ "", "int" ],
													"patching_rect" : [ 185.5, 124.0, 97.0, 23.0 ],
													"text" : "adstatus switch"
												}

											}
, 											{
												"box" : 												{
													"id" : "obj-98",
													"maxclass" : "newobj",
													"numinlets" : 3,
													"numoutlets" : 1,
													"outlettype" : [ "" ],
													"patching_rect" : [ 50.0, 373.0, 117.0, 22.0 ],
													"text" : "pack visualize %i %i"
												}

											}
, 											{
												"box" : 												{
													"id" : "obj-97",
													"maxclass" : "newobj",
													"numinlets" : 1,
													"numoutlets" : 1,
													"outlettype" : [ "bang" ],
													"patching_rect" : [ 263.5, 207.0, 58.0, 22.0 ],
													"text" : "loadbang"
												}

											}
, 											{
												"box" : 												{
													"bubble" : 1,
													"fontname" : "Arial",
													"fontsize" : 13.0,
													"id" : "obj-89",
													"maxclass" : "comment",
													"numinlets" : 1,
													"numoutlets" : 0,
													"patching_rect" : [ 342.5, 289.5, 166.0, 25.0 ],
													"presentation" : 1,
													"presentation_rect" : [ 572.0, 439.5, 166.0, 25.0 ],
													"text" : "choose a sampling rate"
												}

											}
, 											{
												"box" : 												{
													"fontname" : "Arial",
													"fontsize" : 13.0,
													"id" : "obj-93",
													"maxclass" : "number",
													"numinlets" : 1,
													"numoutlets" : 2,
													"outlettype" : [ "", "bang" ],
													"parameter_enable" : 0,
													"patching_rect" : [ 354.5, 261.5, 55.0, 23.0 ],
													"triangle" : 0,
													"triscale" : 0.9
												}

											}
, 											{
												"box" : 												{
													"id" : "obj-94",
													"items" : [ 11025, ",", 12000, ",", 16000, ",", 22050, ",", 24000, ",", 32000, ",", 44100, ",", 48000, ",", 88200, ",", 96000, ",", 192000 ],
													"maxclass" : "umenu",
													"numinlets" : 1,
													"numoutlets" : 3,
													"outlettype" : [ "int", "", "" ],
													"parameter_enable" : 0,
													"patching_rect" : [ 263.5, 291.5, 78.0, 22.0 ],
													"presentation" : 1,
													"presentation_rect" : [ 491.0, 439.5, 78.0, 22.0 ]
												}

											}
, 											{
												"box" : 												{
													"fontname" : "Arial",
													"fontsize" : 13.0,
													"id" : "obj-96",
													"maxclass" : "newobj",
													"numinlets" : 2,
													"numoutlets" : 2,
													"outlettype" : [ "", "int" ],
													"patching_rect" : [ 263.5, 236.295745849609375, 110.0, 23.0 ],
													"text" : "adstatus sr"
												}

											}
, 											{
												"box" : 												{
													"id" : "obj-33",
													"maxclass" : "toggle",
													"numinlets" : 1,
													"numoutlets" : 1,
													"outlettype" : [ "int" ],
													"parameter_enable" : 0,
													"patching_rect" : [ 50.0, 270.0, 24.0, 24.0 ],
													"presentation" : 1,
													"presentation_rect" : [ 491.0, 542.0, 24.0, 24.0 ]
												}

											}
, 											{
												"box" : 												{
													"id" : "obj-6",
													"maxclass" : "newobj",
													"numinlets" : 2,
													"numoutlets" : 1,
													"outlettype" : [ "bang" ],
													"patching_rect" : [ 50.0, 299.0, 63.0, 22.0 ],
													"text" : "metro 500"
												}

											}
, 											{
												"box" : 												{
													"id" : "obj-25",
													"maxclass" : "message",
													"numinlets" : 2,
													"numoutlets" : 1,
													"outlettype" : [ "" ],
													"patching_rect" : [ 50.0, 326.0, 55.0, 22.0 ],
													"text" : "visualize"
												}

											}
, 											{
												"box" : 												{
													"id" : "obj-34",
													"maxclass" : "newobj",
													"numinlets" : 1,
													"numoutlets" : 1,
													"outlettype" : [ "" ],
													"patching_rect" : [ 140.0, 193.0, 83.0, 22.0 ],
													"text" : "loadmess 500"
												}

											}
, 											{
												"box" : 												{
													"id" : "obj-15",
													"maxclass" : "number",
													"numinlets" : 1,
													"numoutlets" : 2,
													"outlettype" : [ "", "bang" ],
													"parameter_enable" : 0,
													"patching_rect" : [ 140.0, 224.0, 50.0, 22.0 ],
													"presentation" : 1,
													"presentation_rect" : [ 491.0, 580.0, 50.0, 22.0 ]
												}

											}
, 											{
												"box" : 												{
													"comment" : "",
													"id" : "obj-91",
													"index" : 1,
													"maxclass" : "outlet",
													"numinlets" : 1,
													"numoutlets" : 0,
													"patching_rect" : [ 50.0, 455.0, 30.0, 30.0 ]
												}

											}
 ],
										"lines" : [ 											{
												"patchline" : 												{
													"destination" : [ "obj-118", 0 ],
													"source" : [ "obj-117", 0 ]
												}

											}
, 											{
												"patchline" : 												{
													"destination" : [ "obj-97", 0 ],
													"source" : [ "obj-118", 0 ]
												}

											}
, 											{
												"patchline" : 												{
													"destination" : [ "obj-99", 0 ],
													"source" : [ "obj-120", 0 ]
												}

											}
, 											{
												"patchline" : 												{
													"destination" : [ "obj-129", 0 ],
													"source" : [ "obj-123", 0 ]
												}

											}
, 											{
												"patchline" : 												{
													"destination" : [ "obj-133", 0 ],
													"source" : [ "obj-129", 0 ]
												}

											}
, 											{
												"patchline" : 												{
													"destination" : [ "obj-136", 1 ],
													"source" : [ "obj-133", 1 ]
												}

											}
, 											{
												"patchline" : 												{
													"destination" : [ "obj-145", 0 ],
													"source" : [ "obj-133", 0 ]
												}

											}
, 											{
												"patchline" : 												{
													"destination" : [ "obj-98", 2 ],
													"source" : [ "obj-136", 0 ]
												}

											}
, 											{
												"patchline" : 												{
													"destination" : [ "obj-136", 0 ],
													"source" : [ "obj-145", 0 ]
												}

											}
, 											{
												"patchline" : 												{
													"destination" : [ "obj-123", 0 ],
													"source" : [ "obj-146", 0 ]
												}

											}
, 											{
												"patchline" : 												{
													"destination" : [ "obj-6", 1 ],
													"source" : [ "obj-15", 0 ]
												}

											}
, 											{
												"patchline" : 												{
													"destination" : [ "obj-98", 0 ],
													"source" : [ "obj-25", 0 ]
												}

											}
, 											{
												"patchline" : 												{
													"destination" : [ "obj-6", 0 ],
													"source" : [ "obj-33", 0 ]
												}

											}
, 											{
												"patchline" : 												{
													"destination" : [ "obj-15", 0 ],
													"source" : [ "obj-34", 0 ]
												}

											}
, 											{
												"patchline" : 												{
													"destination" : [ "obj-25", 0 ],
													"source" : [ "obj-6", 0 ]
												}

											}
, 											{
												"patchline" : 												{
													"destination" : [ "obj-136", 0 ],
													"order" : 1,
													"source" : [ "obj-94", 1 ]
												}

											}
, 											{
												"patchline" : 												{
													"destination" : [ "obj-145", 1 ],
													"order" : 0,
													"source" : [ "obj-94", 1 ]
												}

											}
, 											{
												"patchline" : 												{
													"destination" : [ "obj-96", 0 ],
													"midpoints" : [ 273.0, 325.607879999999909, 250.037888000000066, 325.607879999999909, 250.037888000000066, 234.199416999999926, 273.0, 234.199416999999926 ],
													"source" : [ "obj-94", 0 ]
												}

											}
, 											{
												"patchline" : 												{
													"destination" : [ "obj-93", 0 ],
													"order" : 0,
													"source" : [ "obj-96", 1 ]
												}

											}
, 											{
												"patchline" : 												{
													"destination" : [ "obj-94", 0 ],
													"source" : [ "obj-96", 0 ]
												}

											}
, 											{
												"patchline" : 												{
													"destination" : [ "obj-98", 1 ],
													"order" : 1,
													"source" : [ "obj-96", 1 ]
												}

											}
, 											{
												"patchline" : 												{
													"destination" : [ "obj-96", 0 ],
													"source" : [ "obj-97", 0 ]
												}

											}
, 											{
												"patchline" : 												{
													"destination" : [ "obj-91", 0 ],
													"source" : [ "obj-98", 0 ]
												}

											}
, 											{
												"patchline" : 												{
													"destination" : [ "obj-117", 0 ],
													"source" : [ "obj-99", 1 ]
												}

											}
 ]
									}
,
									"patching_rect" : [ 127.0, 100.0, 133.0, 22.0 ],
									"saved_object_attributes" : 									{
										"description" : "",
										"digest" : "",
										"globalpatchername" : "",
										"tags" : ""
									}
,
									"text" : "p audio_driver_profiling"
								}

							}
, 							{
								"box" : 								{
									"bgmode" : 0,
									"border" : 0,
									"clickthrough" : 0,
									"enablehscroll" : 0,
									"enablevscroll" : 0,
									"id" : "obj-22",
									"lockeddragscroll" : 0,
									"maxclass" : "bpatcher",
									"name" : "n4m.monitor.maxpat",
									"numinlets" : 1,
									"numoutlets" : 1,
									"offset" : [ 0.0, 0.0 ],
									"outlettype" : [ "bang" ],
									"patching_rect" : [ 50.0, 294.0, 400.0, 220.0 ],
									"presentation" : 1,
									"presentation_rect" : [ 511.0, 705.0, 400.0, 220.0 ],
									"viewvisibility" : 1
								}

							}
, 							{
								"box" : 								{
									"id" : "obj-17",
									"maxclass" : "message",
									"numinlets" : 2,
									"numoutlets" : 1,
									"outlettype" : [ "" ],
									"patching_rect" : [ 136.75, 201.0, 64.0, 22.0 ],
									"presentation" : 1,
									"presentation_rect" : [ 511.0, 655.0, 64.0, 22.0 ],
									"text" : "script start"
								}

							}
, 							{
								"box" : 								{
									"id" : "obj-5",
									"maxclass" : "newobj",
									"numinlets" : 1,
									"numoutlets" : 2,
									"outlettype" : [ "", "" ],
									"patching_rect" : [ 106.75, 254.0, 257.0, 22.0 ],
									"presentation" : 1,
									"presentation_rect" : [ 511.0, 679.0, 259.0, 22.0 ],
									"saved_object_attributes" : 									{
										"autostart" : 0,
										"defer" : 0,
										"watch" : 1
									}
,
									"text" : "node.script audioViz.js @watch 1 @autostart 0"
								}

							}
, 							{
								"box" : 								{
									"comment" : "",
									"id" : "obj-94",
									"index" : 1,
									"maxclass" : "inlet",
									"numinlets" : 0,
									"numoutlets" : 1,
									"outlettype" : [ "" ],
									"patching_rect" : [ 106.75, 40.0, 30.0, 30.0 ]
								}

							}
, 							{
								"box" : 								{
									"comment" : "",
									"id" : "obj-96",
									"index" : 1,
									"maxclass" : "outlet",
									"numinlets" : 1,
									"numoutlets" : 0,
									"patching_rect" : [ 127.0, 574.0, 30.0, 30.0 ]
								}

							}
 ],
						"lines" : [ 							{
								"patchline" : 								{
									"destination" : [ "obj-5", 0 ],
									"source" : [ "obj-17", 0 ]
								}

							}
, 							{
								"patchline" : 								{
									"destination" : [ "obj-22", 0 ],
									"midpoints" : [ 354.25, 284.5, 59.5, 284.5 ],
									"source" : [ "obj-5", 1 ]
								}

							}
, 							{
								"patchline" : 								{
									"destination" : [ "obj-96", 0 ],
									"source" : [ "obj-93", 0 ]
								}

							}
, 							{
								"patchline" : 								{
									"destination" : [ "obj-5", 0 ],
									"source" : [ "obj-94", 0 ]
								}

							}
 ]
					}
,
					"patching_rect" : [ 282.0, 903.5, 147.0, 22.0 ],
					"saved_object_attributes" : 					{
						"description" : "",
						"digest" : "",
						"globalpatchername" : "",
						"tags" : ""
					}
,
					"text" : "p post-stability_milestone"
				}

			}
, 			{
				"box" : 				{
					"fontsize" : 20.0,
					"id" : "obj-40",
					"linecount" : 5,
					"maxclass" : "comment",
					"numinlets" : 1,
					"numoutlets" : 0,
					"patching_rect" : [ 1410.0, 129.0, 212.0, 121.0 ],
					"text" : "TODO after lunch:  add propchange: pos to msvr_world.js given a propchange delta from deltaSpoof.js"
				}

			}
, 			{
				"box" : 				{
					"id" : "obj-87",
					"maxclass" : "message",
					"numinlets" : 2,
					"numoutlets" : 1,
					"outlettype" : [ "" ],
					"patching_rect" : [ 26.0, 799.0, 50.0, 22.0 ],
					"text" : "compile"
				}

			}
, 			{
				"box" : 				{
					"id" : "obj-38",
					"maxclass" : "message",
					"numinlets" : 2,
					"numoutlets" : 1,
					"outlettype" : [ "" ],
					"patching_rect" : [ 30.0, 71.0, 63.0, 22.0 ],
					"text" : "script stop"
				}

			}
, 			{
				"box" : 				{
					"id" : "obj-21",
					"maxclass" : "live.meter~",
					"numinlets" : 1,
					"numoutlets" : 2,
					"outlettype" : [ "float", "int" ],
					"patching_rect" : [ 687.20001220703125, 127.5, 23.0, 118.0 ]
				}

			}
, 			{
				"box" : 				{
					"id" : "obj-58",
					"maxclass" : "live.meter~",
					"numinlets" : 1,
					"numoutlets" : 2,
					"outlettype" : [ "float", "int" ],
					"patching_rect" : [ 598.20001220703125, 127.5, 23.0, 118.0 ]
				}

			}
, 			{
				"box" : 				{
					"id" : "obj-19",
					"maxclass" : "ezdac~",
					"numinlets" : 2,
					"numoutlets" : 0,
					"patching_rect" : [ 631.20001220703125, 127.5, 45.0, 45.0 ]
				}

			}
, 			{
				"box" : 				{
					"id" : "obj-28",
					"maxclass" : "ezdac~",
					"numinlets" : 2,
					"numoutlets" : 0,
					"patching_rect" : [ 1280.0, 800.5, 45.0, 45.0 ]
				}

			}
, 			{
				"box" : 				{
					"id" : "obj-66",
					"maxclass" : "newobj",
					"numinlets" : 1,
					"numoutlets" : 1,
					"outlettype" : [ "bang" ],
					"patching_rect" : [ 1280.0, 544.0, 58.0, 22.0 ],
					"text" : "loadbang"
				}

			}
, 			{
				"box" : 				{
					"id" : "obj-67",
					"maxclass" : "message",
					"numinlets" : 2,
					"numoutlets" : 1,
					"outlettype" : [ "" ],
					"patching_rect" : [ 1280.0, 571.0, 29.5, 22.0 ],
					"presentation" : 1,
					"presentation_rect" : [ 531.5, 10.0, 29.5, 22.0 ],
					"text" : "-36"
				}

			}
, 			{
				"box" : 				{
					"id" : "obj-68",
					"lastchannelcount" : 0,
					"maxclass" : "live.gain~",
					"numinlets" : 2,
					"numoutlets" : 5,
					"outlettype" : [ "signal", "signal", "", "float", "list" ],
					"parameter_enable" : 1,
					"patching_rect" : [ 1280.0, 633.5, 123.0, 130.0 ],
					"presentation" : 1,
					"presentation_rect" : [ 472.0, 10.0, 68.0, 137.0 ],
					"saved_attribute_attributes" : 					{
						"valueof" : 						{
							"parameter_longname" : "live.gain~[1]",
							"parameter_mmax" : 6.0,
							"parameter_mmin" : -70.0,
							"parameter_shortname" : "live.gain~",
							"parameter_type" : 0,
							"parameter_unitstyle" : 4
						}

					}
,
					"varname" : "vrSource2CHMain"
				}

			}
, 			{
				"box" : 				{
					"bgcolor" : [ 0.996078, 0.031373, 0.031373, 1.0 ],
					"id" : "obj-83",
					"maxclass" : "newobj",
					"numinlets" : 1,
					"numoutlets" : 1,
					"outlettype" : [ "signal" ],
					"patching_rect" : [ 1422.0, 511.0, 289.0, 22.0 ],
					"presentation" : 1,
					"presentation_rect" : [ 576.0, 10.0, 68.0, 22.0 ],
					"text" : "gen~ world",
					"varname" : "world"
				}

			}
, 			{
				"box" : 				{
					"id" : "obj-71",
					"maxclass" : "message",
					"numinlets" : 2,
					"numoutlets" : 1,
					"outlettype" : [ "" ],
					"patching_rect" : [ 470.75, 903.5, 35.0, 22.0 ],
					"presentation" : 1,
					"presentation_rect" : [ 592.5, 99.5, 35.0, 22.0 ],
					"text" : "clear"
				}

			}
, 			{
				"box" : 				{
					"bgcolor" : [ 0.996078431372549, 0.0, 0.0, 1.0 ],
					"id" : "obj-142",
					"maxclass" : "newobj",
					"numinlets" : 1,
					"numoutlets" : 1,
					"outlettype" : [ "" ],
					"patching_rect" : [ 301.600000000000023, 1157.0, 146.0, 22.0 ],
					"text" : "prepend script send world"
				}

			}
, 			{
				"box" : 				{
					"bgcolor" : [ 0.996078431372549, 0.0, 0.0, 1.0 ],
					"id" : "obj-78",
					"maxclass" : "newobj",
					"numinlets" : 1,
					"numoutlets" : 2,
					"outlettype" : [ "", "" ],
					"patching_rect" : [ 301.600000000000023, 1227.0, 67.0, 22.0 ],
					"save" : [ "#N", "thispatcher", ";", "#Q", "end", ";" ],
					"text" : "thispatcher"
				}

			}
, 			{
				"box" : 				{
					"id" : "obj-80",
					"maxclass" : "newobj",
					"numinlets" : 1,
					"numoutlets" : 1,
					"outlettype" : [ "" ],
					"patching_rect" : [ 235.0, 707.5, 84.0, 22.0 ],
					"text" : "prepend client"
				}

			}
, 			{
				"box" : 				{
					"id" : "obj-81",
					"maxclass" : "newobj",
					"numinlets" : 3,
					"numoutlets" : 11,
					"outlettype" : [ "", "", "", "", "", "", "", "", "", "", "" ],
					"patching_rect" : [ 235.0, 950.5, 241.0, 22.0 ],
					"saved_object_attributes" : 					{
						"filename" : "msvr_world.js",
						"parameter_enable" : 0
					}
,
					"text" : "js msvr_world.js @watch 1 @autocompile 1"
				}

			}
, 			{
				"box" : 				{
					"id" : "obj-86",
					"maxclass" : "message",
					"numinlets" : 2,
					"numoutlets" : 1,
					"outlettype" : [ "" ],
					"patching_rect" : [ 509.0, 903.5, 50.0, 22.0 ],
					"text" : "compile"
				}

			}
, 			{
				"box" : 				{
					"id" : "obj-3",
					"maxclass" : "newobj",
					"numinlets" : 1,
					"numoutlets" : 0,
					"patching_rect" : [ 9.0, 175.0, 54.0, 22.0 ],
					"text" : "onecopy"
				}

			}
, 			{
				"box" : 				{
					"id" : "obj-143",
					"maxclass" : "newobj",
					"numinlets" : 1,
					"numoutlets" : 1,
					"outlettype" : [ "" ],
					"patcher" : 					{
						"fileversion" : 1,
						"appversion" : 						{
							"major" : 8,
							"minor" : 1,
							"revision" : 5,
							"architecture" : "x64",
							"modernui" : 1
						}
,
						"classnamespace" : "box",
						"rect" : [ 84.0, 129.0, 640.0, 480.0 ],
						"bglocked" : 0,
						"openinpresentation" : 0,
						"default_fontsize" : 12.0,
						"default_fontface" : 0,
						"default_fontname" : "Arial",
						"gridonopen" : 1,
						"gridsize" : [ 15.0, 15.0 ],
						"gridsnaponopen" : 1,
						"objectsnaponopen" : 1,
						"statusbarvisible" : 2,
						"toolbarvisible" : 1,
						"lefttoolbarpinned" : 0,
						"toptoolbarpinned" : 0,
						"righttoolbarpinned" : 0,
						"bottomtoolbarpinned" : 0,
						"toolbars_unpinned_last_save" : 0,
						"tallnewobj" : 0,
						"boxanimatetime" : 200,
						"enablehscroll" : 1,
						"enablevscroll" : 1,
						"devicewidth" : 0.0,
						"description" : "",
						"digest" : "",
						"tags" : "",
						"style" : "",
						"subpatcher_template" : "",
						"assistshowspatchername" : 0,
						"boxes" : [ 							{
								"box" : 								{
									"id" : "obj-9",
									"maxclass" : "newobj",
									"numinlets" : 2,
									"numoutlets" : 1,
									"outlettype" : [ "bang" ],
									"patching_rect" : [ 390.0, 170.0, 48.0, 22.0 ],
									"text" : "del 500"
								}

							}
, 							{
								"box" : 								{
									"id" : "obj-8",
									"maxclass" : "newobj",
									"numinlets" : 2,
									"numoutlets" : 1,
									"outlettype" : [ "bang" ],
									"patching_rect" : [ 390.0, 230.0, 55.0, 22.0 ],
									"text" : "del 1500"
								}

							}
, 							{
								"box" : 								{
									"id" : "obj-7",
									"maxclass" : "newobj",
									"numinlets" : 1,
									"numoutlets" : 1,
									"outlettype" : [ "" ],
									"patching_rect" : [ 390.0, 200.0, 54.0, 22.0 ],
									"text" : "deferlow"
								}

							}
, 							{
								"box" : 								{
									"id" : "obj-6",
									"maxclass" : "newobj",
									"numinlets" : 1,
									"numoutlets" : 1,
									"outlettype" : [ "bang" ],
									"patching_rect" : [ 390.0, 140.0, 58.0, 22.0 ],
									"text" : "loadbang"
								}

							}
, 							{
								"box" : 								{
									"id" : "obj-137",
									"maxclass" : "newobj",
									"numinlets" : 1,
									"numoutlets" : 1,
									"outlettype" : [ "" ],
									"patching_rect" : [ 50.0, 248.2545166015625, 54.0, 22.0 ],
									"text" : "deferlow"
								}

							}
, 							{
								"box" : 								{
									"id" : "obj-136",
									"maxclass" : "newobj",
									"numinlets" : 1,
									"numoutlets" : 2,
									"outlettype" : [ "bang", "bang" ],
									"patching_rect" : [ 50.0, 198.2545166015625, 32.0, 22.0 ],
									"text" : "t b b"
								}

							}
, 							{
								"box" : 								{
									"id" : "obj-37",
									"maxclass" : "newobj",
									"numinlets" : 1,
									"numoutlets" : 1,
									"outlettype" : [ "" ],
									"patching_rect" : [ 50.0, 274.2545166015625, 169.0, 22.0 ],
									"text" : "loadmess script start localhost"
								}

							}
, 							{
								"box" : 								{
									"id" : "obj-19",
									"maxclass" : "message",
									"numinlets" : 2,
									"numoutlets" : 1,
									"outlettype" : [ "" ],
									"patching_rect" : [ 178.0, 108.2545166015625, 63.0, 22.0 ],
									"text" : "script stop"
								}

							}
, 							{
								"box" : 								{
									"comment" : "",
									"id" : "obj-141",
									"index" : 1,
									"maxclass" : "inlet",
									"numinlets" : 0,
									"numoutlets" : 1,
									"outlettype" : [ "" ],
									"patching_rect" : [ 50.0, 40.0, 30.0, 30.0 ]
								}

							}
, 							{
								"box" : 								{
									"comment" : "",
									"id" : "obj-142",
									"index" : 1,
									"maxclass" : "outlet",
									"numinlets" : 1,
									"numoutlets" : 0,
									"patching_rect" : [ 181.0, 322.31884765625, 30.0, 30.0 ]
								}

							}
 ],
						"lines" : [ 							{
								"patchline" : 								{
									"destination" : [ "obj-137", 0 ],
									"source" : [ "obj-136", 0 ]
								}

							}
, 							{
								"patchline" : 								{
									"destination" : [ "obj-19", 0 ],
									"source" : [ "obj-136", 1 ]
								}

							}
, 							{
								"patchline" : 								{
									"destination" : [ "obj-37", 0 ],
									"source" : [ "obj-137", 0 ]
								}

							}
, 							{
								"patchline" : 								{
									"destination" : [ "obj-136", 0 ],
									"source" : [ "obj-141", 0 ]
								}

							}
, 							{
								"patchline" : 								{
									"destination" : [ "obj-142", 0 ],
									"source" : [ "obj-19", 0 ]
								}

							}
, 							{
								"patchline" : 								{
									"destination" : [ "obj-142", 0 ],
									"source" : [ "obj-37", 0 ]
								}

							}
, 							{
								"patchline" : 								{
									"destination" : [ "obj-9", 0 ],
									"source" : [ "obj-6", 0 ]
								}

							}
, 							{
								"patchline" : 								{
									"destination" : [ "obj-8", 0 ],
									"source" : [ "obj-7", 0 ]
								}

							}
, 							{
								"patchline" : 								{
									"destination" : [ "obj-37", 0 ],
									"disabled" : 1,
									"source" : [ "obj-8", 0 ]
								}

							}
, 							{
								"patchline" : 								{
									"destination" : [ "obj-7", 0 ],
									"source" : [ "obj-9", 0 ]
								}

							}
 ]
					}
,
					"patching_rect" : [ 9.0, 34.0, 47.0, 22.0 ],
					"saved_object_attributes" : 					{
						"description" : "",
						"digest" : "",
						"globalpatchername" : "",
						"tags" : ""
					}
,
					"text" : "p client"
				}

			}
, 			{
				"box" : 				{
					"id" : "obj-140",
					"maxclass" : "textbutton",
					"numinlets" : 1,
					"numoutlets" : 3,
					"outlettype" : [ "", "", "int" ],
					"parameter_enable" : 0,
					"patching_rect" : [ 9.0, 5.0, 112.0, 22.2545166015625 ],
					"presentation" : 1,
					"presentation_rect" : [ 59.0, 490.0, 108.0, 20.0 ],
					"text" : "Connect Localhost",
					"texton" : "Restarting..."
				}

			}
, 			{
				"box" : 				{
					"id" : "obj-135",
					"linecount" : 3,
					"maxclass" : "comment",
					"numinlets" : 1,
					"numoutlets" : 0,
					"patching_rect" : [ 1410.0, 76.0, 151.0, 48.0 ],
					"presentation" : 1,
					"presentation_linecount" : 3,
					"presentation_rect" : [ 263.0, 263.0, 151.0, 48.0 ],
					"text" : "To do: fork a scene! \ni.e. branch off from loaded scene"
				}

			}
, 			{
				"box" : 				{
					"id" : "obj-134",
					"linecount" : 2,
					"maxclass" : "comment",
					"numinlets" : 1,
					"numoutlets" : 0,
					"patching_rect" : [ 1410.0, 34.0, 150.0, 34.0 ],
					"presentation" : 1,
					"presentation_linecount" : 2,
					"presentation_rect" : [ 263.0, 228.0, 150.0, 34.0 ],
					"text" : "To do: Save a scene! \ni.e. save an OT history"
				}

			}
, 			{
				"box" : 				{
					"bgmode" : 0,
					"border" : 0,
					"clickthrough" : 0,
					"enablehscroll" : 0,
					"enablevscroll" : 0,
					"id" : "obj-55",
					"lockeddragscroll" : 0,
					"maxclass" : "bpatcher",
					"name" : "n4m.monitor.maxpat",
					"numinlets" : 1,
					"numoutlets" : 1,
					"offset" : [ 0.0, 0.0 ],
					"outlettype" : [ "bang" ],
					"patching_rect" : [ 187.0, 144.5, 400.0, 220.0 ],
					"presentation" : 1,
					"presentation_rect" : [ 57.0, 514.0, 400.0, 220.0 ],
					"viewvisibility" : 1
				}

			}
, 			{
				"box" : 				{
					"id" : "obj-2",
					"maxclass" : "newobj",
					"numinlets" : 1,
					"numoutlets" : 2,
					"outlettype" : [ "", "" ],
					"patching_rect" : [ 9.0, 112.0, 197.0, 22.0 ],
					"presentation" : 1,
					"presentation_linecount" : 2,
					"presentation_rect" : [ 188.0, 490.0, 190.0, 36.0 ],
					"saved_object_attributes" : 					{
						"autostart" : 0,
						"defer" : 0,
						"watch" : 1
					}
,
					"text" : "node.script max_client.js @watch 1"
				}

			}
, 			{
				"box" : 				{
					"angle" : 270.0,
					"bgcolor" : [ 0.996078431372549, 0.996078431372549, 0.996078431372549, 0.0 ],
					"border" : 5,
					"bordercolor" : [ 0.996078431372549, 0.0, 0.0, 1.0 ],
					"id" : "obj-155",
					"maxclass" : "panel",
					"mode" : 0,
					"numinlets" : 1,
					"numoutlets" : 0,
					"patching_rect" : [ 18.0, 1104.0, 917.0, 416.0 ],
					"proportion" : 0.5
				}

			}
 ],
		"lines" : [ 			{
				"patchline" : 				{
					"destination" : [ "obj-81", 0 ],
					"source" : [ "obj-10", 0 ]
				}

			}
, 			{
				"patchline" : 				{
					"destination" : [ "obj-108", 0 ],
					"source" : [ "obj-107", 0 ]
				}

			}
, 			{
				"patchline" : 				{
					"destination" : [ "obj-107", 0 ],
					"source" : [ "obj-123", 0 ]
				}

			}
, 			{
				"patchline" : 				{
					"color" : [ 1.0, 0.0, 0.0, 1.0 ],
					"destination" : [ "obj-129", 0 ],
					"source" : [ "obj-128", 1 ]
				}

			}
, 			{
				"patchline" : 				{
					"color" : [ 1.0, 0.0, 0.0, 1.0 ],
					"destination" : [ "obj-145", 0 ],
					"source" : [ "obj-128", 0 ]
				}

			}
, 			{
				"patchline" : 				{
					"color" : [ 1.0, 0.0, 0.0, 1.0 ],
					"destination" : [ "obj-131", 0 ],
					"source" : [ "obj-129", 0 ]
				}

			}
, 			{
				"patchline" : 				{
					"color" : [ 1.0, 0.0, 0.0, 1.0 ],
					"destination" : [ "obj-144", 0 ],
					"source" : [ "obj-131", 1 ]
				}

			}
, 			{
				"patchline" : 				{
					"color" : [ 1.0, 0.0, 0.0, 1.0 ],
					"destination" : [ "obj-128", 0 ],
					"source" : [ "obj-133", 0 ]
				}

			}
, 			{
				"patchline" : 				{
					"destination" : [ "obj-130", 0 ],
					"source" : [ "obj-136", 0 ]
				}

			}
, 			{
				"patchline" : 				{
					"destination" : [ "obj-143", 0 ],
					"source" : [ "obj-140", 0 ]
				}

			}
, 			{
				"patchline" : 				{
					"color" : [ 1.0, 0.0, 0.0, 1.0 ],
					"destination" : [ "obj-78", 0 ],
					"source" : [ "obj-142", 0 ]
				}

			}
, 			{
				"patchline" : 				{
					"destination" : [ "obj-2", 0 ],
					"midpoints" : [ 18.5, 102.0, 18.5, 102.0 ],
					"source" : [ "obj-143", 0 ]
				}

			}
, 			{
				"patchline" : 				{
					"color" : [ 1.0, 0.0, 0.0, 1.0 ],
					"destination" : [ "obj-145", 4 ],
					"source" : [ "obj-144", 2 ]
				}

			}
, 			{
				"patchline" : 				{
					"color" : [ 1.0, 0.0, 0.0, 1.0 ],
					"destination" : [ "obj-145", 3 ],
					"source" : [ "obj-144", 1 ]
				}

			}
, 			{
				"patchline" : 				{
					"color" : [ 1.0, 0.0, 0.0, 1.0 ],
					"destination" : [ "obj-148", 0 ],
					"midpoints" : [ 95.5, 1437.5, 73.0, 1437.5 ],
					"source" : [ "obj-144", 0 ]
				}

			}
, 			{
				"patchline" : 				{
					"color" : [ 1.0, 0.0, 0.0, 1.0 ],
					"destination" : [ "obj-149", 0 ],
					"midpoints" : [ 50.5, 1469.5, 73.0, 1469.5 ],
					"source" : [ "obj-145", 0 ]
				}

			}
, 			{
				"patchline" : 				{
					"color" : [ 1.0, 0.0, 0.0, 1.0 ],
					"destination" : [ "obj-149", 0 ],
					"source" : [ "obj-148", 0 ]
				}

			}
, 			{
				"patchline" : 				{
					"color" : [ 1.0, 0.0, 0.0, 1.0 ],
					"destination" : [ "obj-142", 0 ],
					"midpoints" : [ 73.0, 1509.0, 296.050000000000011, 1509.0, 296.050000000000011, 1146.0, 311.100000000000023, 1146.0 ],
					"source" : [ "obj-149", 0 ]
				}

			}
, 			{
				"patchline" : 				{
					"color" : [ 1.0, 0.0, 0.0, 1.0 ],
					"destination" : [ "obj-78", 0 ],
					"midpoints" : [ 782.5, 1143.0, 288.0, 1143.0, 288.0, 1212.0, 311.100000000000023, 1212.0 ],
					"source" : [ "obj-15", 0 ]
				}

			}
, 			{
				"patchline" : 				{
					"color" : [ 1.0, 0.0, 0.0, 1.0 ],
					"destination" : [ "obj-107", 0 ],
					"midpoints" : [ 549.70001220703125, 1186.5, 469.5, 1186.5 ],
					"source" : [ "obj-154", 0 ]
				}

			}
, 			{
				"patchline" : 				{
					"destination" : [ "obj-31", 0 ],
					"order" : 1,
					"source" : [ "obj-2", 0 ]
				}

			}
, 			{
				"patchline" : 				{
					"destination" : [ "obj-55", 0 ],
					"midpoints" : [ 196.5, 142.25, 196.5, 142.25 ],
					"source" : [ "obj-2", 1 ]
				}

			}
, 			{
				"patchline" : 				{
					"destination" : [ "obj-79", 0 ],
					"order" : 0,
					"source" : [ "obj-2", 0 ]
				}

			}
, 			{
				"patchline" : 				{
					"destination" : [ "obj-2", 0 ],
					"source" : [ "obj-20", 0 ]
				}

			}
, 			{
				"patchline" : 				{
					"destination" : [ "obj-107", 0 ],
					"source" : [ "obj-25", 0 ]
				}

			}
, 			{
				"patchline" : 				{
					"destination" : [ "obj-81", 0 ],
					"source" : [ "obj-27", 0 ]
				}

			}
, 			{
				"patchline" : 				{
					"destination" : [ "obj-80", 0 ],
					"midpoints" : [ 244.5, 698.75, 244.5, 698.75 ],
					"source" : [ "obj-29", 0 ]
				}

			}
, 			{
				"patchline" : 				{
					"destination" : [ "obj-33", 0 ],
					"source" : [ "obj-30", 0 ]
				}

			}
, 			{
				"patchline" : 				{
					"destination" : [ "obj-30", 0 ],
					"source" : [ "obj-32", 0 ]
				}

			}
, 			{
				"patchline" : 				{
					"destination" : [ "obj-19", 1 ],
					"order" : 1,
					"source" : [ "obj-33", 1 ]
				}

			}
, 			{
				"patchline" : 				{
					"destination" : [ "obj-19", 0 ],
					"order" : 0,
					"source" : [ "obj-33", 0 ]
				}

			}
, 			{
				"patchline" : 				{
					"destination" : [ "obj-21", 0 ],
					"order" : 0,
					"source" : [ "obj-33", 1 ]
				}

			}
, 			{
				"patchline" : 				{
					"destination" : [ "obj-58", 0 ],
					"order" : 1,
					"source" : [ "obj-33", 0 ]
				}

			}
, 			{
				"patchline" : 				{
					"destination" : [ "obj-27", 0 ],
					"source" : [ "obj-34", 0 ]
				}

			}
, 			{
				"patchline" : 				{
					"destination" : [ "obj-29", 0 ],
					"source" : [ "obj-35", 0 ]
				}

			}
, 			{
				"patchline" : 				{
					"destination" : [ "obj-81", 0 ],
					"source" : [ "obj-37", 0 ]
				}

			}
, 			{
				"patchline" : 				{
					"destination" : [ "obj-2", 0 ],
					"midpoints" : [ 39.5, 102.5, 18.5, 102.5 ],
					"source" : [ "obj-38", 0 ]
				}

			}
, 			{
				"patchline" : 				{
					"destination" : [ "obj-57", 1 ],
					"source" : [ "obj-47", 1 ]
				}

			}
, 			{
				"patchline" : 				{
					"destination" : [ "obj-53", 0 ],
					"source" : [ "obj-52", 0 ]
				}

			}
, 			{
				"patchline" : 				{
					"destination" : [ "obj-47", 0 ],
					"source" : [ "obj-53", 0 ]
				}

			}
, 			{
				"patchline" : 				{
					"destination" : [ "obj-61", 0 ],
					"source" : [ "obj-57", 0 ]
				}

			}
, 			{
				"patchline" : 				{
					"destination" : [ "obj-57", 0 ],
					"source" : [ "obj-60", 0 ]
				}

			}
, 			{
				"patchline" : 				{
					"destination" : [ "obj-133", 0 ],
					"order" : 1,
					"source" : [ "obj-61", 0 ]
				}

			}
, 			{
				"patchline" : 				{
					"destination" : [ "obj-63", 1 ],
					"order" : 0,
					"source" : [ "obj-61", 0 ]
				}

			}
, 			{
				"patchline" : 				{
					"destination" : [ "obj-67", 0 ],
					"source" : [ "obj-66", 0 ]
				}

			}
, 			{
				"patchline" : 				{
					"destination" : [ "obj-68", 0 ],
					"midpoints" : [ 1289.5, 606.25, 1289.5, 606.25 ],
					"source" : [ "obj-67", 0 ]
				}

			}
, 			{
				"patchline" : 				{
					"destination" : [ "obj-28", 1 ],
					"source" : [ "obj-68", 1 ]
				}

			}
, 			{
				"patchline" : 				{
					"destination" : [ "obj-28", 0 ],
					"source" : [ "obj-68", 0 ]
				}

			}
, 			{
				"patchline" : 				{
					"destination" : [ "obj-81", 0 ],
					"midpoints" : [ 480.25, 939.0, 244.5, 939.0 ],
					"source" : [ "obj-71", 0 ]
				}

			}
, 			{
				"patchline" : 				{
					"destination" : [ "obj-81", 0 ],
					"source" : [ "obj-80", 0 ]
				}

			}
, 			{
				"patchline" : 				{
					"color" : [ 1.0, 0.0, 0.0, 1.0 ],
					"destination" : [ "obj-123", 0 ],
					"order" : 0,
					"source" : [ "obj-81", 1 ]
				}

			}
, 			{
				"patchline" : 				{
					"color" : [ 1.0, 0.0, 0.0, 1.0 ],
					"destination" : [ "obj-133", 0 ],
					"order" : 1,
					"source" : [ "obj-81", 3 ]
				}

			}
, 			{
				"patchline" : 				{
					"destination" : [ "obj-136", 0 ],
					"source" : [ "obj-81", 9 ]
				}

			}
, 			{
				"patchline" : 				{
					"color" : [ 1.0, 0.0, 0.0, 1.0 ],
					"destination" : [ "obj-142", 0 ],
					"order" : 0,
					"source" : [ "obj-81", 3 ]
				}

			}
, 			{
				"patchline" : 				{
					"destination" : [ "obj-15", 0 ],
					"midpoints" : [ 466.5, 977.75, 782.5, 977.75 ],
					"source" : [ "obj-81", 10 ]
				}

			}
, 			{
				"patchline" : 				{
					"destination" : [ "obj-52", 0 ],
					"order" : 1,
					"source" : [ "obj-81", 1 ]
				}

			}
, 			{
				"patchline" : 				{
					"color" : [ 1.0, 0.0, 0.0, 1.0 ],
					"destination" : [ "obj-78", 0 ],
					"source" : [ "obj-81", 8 ]
				}

			}
, 			{
				"patchline" : 				{
					"destination" : [ "obj-97", 0 ],
					"disabled" : 1,
					"midpoints" : [ 244.5, 982.5, 221.25, 982.5, 221.25, 894.0, 291.5, 894.0 ],
					"source" : [ "obj-81", 0 ]
				}

			}
, 			{
				"patchline" : 				{
					"destination" : [ "obj-81", 0 ],
					"midpoints" : [ 518.5, 939.0, 244.5, 939.0 ],
					"source" : [ "obj-86", 0 ]
				}

			}
, 			{
				"patchline" : 				{
					"destination" : [ "obj-81", 0 ],
					"midpoints" : [ 35.5, 941.75, 244.5, 941.75 ],
					"source" : [ "obj-87", 0 ]
				}

			}
, 			{
				"patchline" : 				{
					"destination" : [ "obj-81", 0 ],
					"disabled" : 1,
					"source" : [ "obj-97", 0 ]
				}

			}
 ],
		"parameters" : 		{
			"obj-68" : [ "live.gain~[1]", "live.gain~", 0 ],
			"parameterbanks" : 			{

			}
,
			"inherited_shortname" : 1
		}
,
		"dependency_cache" : [ 			{
				"name" : "max_client.js",
				"bootpath" : "D:/github/mischmasch/max-msp",
				"patcherrelativepath" : ".",
				"type" : "TEXT",
				"implicit" : 1
			}
, 			{
				"name" : "n4m.monitor.maxpat",
				"bootpath" : "C74:/packages/Node For Max/patchers/debug-monitor",
				"type" : "JSON",
				"implicit" : 1
			}
, 			{
				"name" : "resize_n4m_monitor_patcher.js",
				"bootpath" : "C74:/packages/Node For Max/patchers/debug-monitor",
				"type" : "TEXT",
				"implicit" : 1
			}
, 			{
				"name" : "fit_jweb_to_bounds.js",
				"bootpath" : "C74:/packages/Node For Max/patchers/debug-monitor",
				"type" : "TEXT",
				"implicit" : 1
			}
, 			{
				"name" : "msvr_world.js",
				"bootpath" : "D:/github/mischmasch/max-msp",
				"patcherrelativepath" : ".",
				"type" : "TEXT",
				"implicit" : 1
			}
, 			{
				"name" : "world.gendsp",
				"bootpath" : "D:/github/mischmasch/max-msp",
				"patcherrelativepath" : ".",
				"type" : "gDSP",
				"implicit" : 1
			}
, 			{
				"name" : "audioViz.js",
				"bootpath" : "D:/github/mischmasch/max-msp",
				"patcherrelativepath" : ".",
				"type" : "TEXT",
				"implicit" : 1
			}
, 			{
				"name" : "gesture_data.js",
				"bootpath" : "D:/github/mischmasch/max-msp",
				"patcherrelativepath" : ".",
				"type" : "TEXT",
				"implicit" : 1
			}
, 			{
				"name" : "controller.gendsp",
				"bootpath" : "D:/github/mischmasch/max-msp",
				"patcherrelativepath" : ".",
				"type" : "gDSP",
				"implicit" : 1
			}
, 			{
				"name" : "deferlowScript.js",
				"bootpath" : "D:/github/mischmasch/max-msp",
				"patcherrelativepath" : ".",
				"type" : "TEXT",
				"implicit" : 1
			}
, 			{
				"name" : "vr~.mxe64",
				"type" : "mx64"
			}
 ],
		"autosave" : 0,
		"boxgroups" : [ 			{
				"boxes" : [ "obj-21", "obj-19", "obj-33", "obj-58", "obj-32", "obj-30" ]
			}
 ]
	}

}
