{
	"patcher" : 	{
		"fileversion" : 1,
		"appversion" : 		{
			"major" : 8,
			"minor" : 1,
			"revision" : 5,
			"architecture" : "x64",
			"modernui" : 1
		}
,
		"classnamespace" : "dsp.gen",
		"rect" : [ 1115.0, 322.0, 511.0, 386.0 ],
		"bglocked" : 0,
		"openinpresentation" : 0,
		"default_fontsize" : 12.0,
		"default_fontface" : 0,
		"default_fontname" : "Arial",
		"gridonopen" : 1,
		"gridsize" : [ 15.0, 15.0 ],
		"gridsnaponopen" : 1,
		"objectsnaponopen" : 1,
		"statusbarvisible" : 2,
		"toolbarvisible" : 1,
		"lefttoolbarpinned" : 0,
		"toptoolbarpinned" : 0,
		"righttoolbarpinned" : 0,
		"bottomtoolbarpinned" : 0,
		"toolbars_unpinned_last_save" : 0,
		"tallnewobj" : 0,
		"boxanimatetime" : 200,
		"enablehscroll" : 1,
		"enablevscroll" : 1,
		"devicewidth" : 0.0,
		"description" : "",
		"digest" : "",
		"tags" : "",
		"style" : "",
		"subpatcher_template" : "",
		"assistshowspatchername" : 0,
		"boxes" : [ 			{
				"box" : 				{
					"id" : "obj-171",
					"maxclass" : "newobj",
					"numinlets" : 0,
					"numoutlets" : 2,
					"outlettype" : [ "", "" ],
					"patching_rect" : [ 9.0, 15.0, 86.0, 22.0 ],
					"text" : "buffer audioviz",
					"varname" : "reserved_audioviz_1"
				}

			}
, 			{
				"box" : 				{
					"id" : "obj-3480",
					"maxclass" : "newobj",
					"numinlets" : 3,
					"numoutlets" : 5,
					"outlettype" : [ "", "", "", "", "" ],
					"patching_rect" : [ 125.0, 200.0, 100.0, 22.0 ],
					"text" : "lfo",
					"varname" : "lfo_1"
				}

			}
, 			{
				"box" : 				{
					"id" : "obj-3481",
					"maxclass" : "newobj",
					"numinlets" : 1,
					"numoutlets" : 1,
					"outlettype" : [ "" ],
					"patching_rect" : [ 275.0, 50.0, 100.0, 22.0 ],
					"text" : "setparam rate",
					"varname" : "setparam_lfo_1__rate"
				}

			}
, 			{
				"box" : 				{
					"id" : "obj-3482",
					"maxclass" : "newobj",
					"numinlets" : 0,
					"numoutlets" : 1,
					"outlettype" : [ "" ],
					"patching_rect" : [ 450.0, 37.0, 123.0, 22.0 ],
					"text" : "param lfo_1__rate 10",
					"varname" : "lfo_1__rate"
				}

			}
, 			{
				"box" : 				{
					"id" : "obj-3483",
					"maxclass" : "newobj",
					"numinlets" : 1,
					"numoutlets" : 1,
					"outlettype" : [ "" ],
					"patching_rect" : [ 275.0, 50.0, 100.0, 22.0 ],
					"text" : "setparam index",
					"varname" : "setparam_lfo_1__index"
				}

			}
, 			{
				"box" : 				{
					"id" : "obj-3484",
					"maxclass" : "newobj",
					"numinlets" : 0,
					"numoutlets" : 1,
					"outlettype" : [ "" ],
					"patching_rect" : [ 450.0, 37.0, 124.0, 22.0 ],
					"text" : "param lfo_1__index 1",
					"varname" : "lfo_1__index"
				}

			}
, 			{
				"box" : 				{
					"id" : "obj-3485",
					"maxclass" : "newobj",
					"numinlets" : 1,
					"numoutlets" : 1,
					"outlettype" : [ "" ],
					"patching_rect" : [ 275.0, 50.0, 125.0, 22.0 ],
					"text" : "setparam pulse_width",
					"varname" : "setparam_lfo_1__pulse_width"
				}

			}
, 			{
				"box" : 				{
					"id" : "obj-3486",
					"maxclass" : "newobj",
					"numinlets" : 0,
					"numoutlets" : 1,
					"outlettype" : [ "" ],
					"patching_rect" : [ 450.0, 37.0, 175.0, 22.0 ],
					"text" : "param lfo_1__pulse_width 0.25",
					"varname" : "lfo_1__pulse_width"
				}

			}
, 			{
				"box" : 				{
					"id" : "obj-3487",
					"maxclass" : "newobj",
					"numinlets" : 1,
					"numoutlets" : 1,
					"outlettype" : [ "" ],
					"patching_rect" : [ 275.0, 50.0, 100.0, 22.0 ],
					"text" : "setparam onset",
					"varname" : "setparam_lfo_1__onset"
				}

			}
, 			{
				"box" : 				{
					"id" : "obj-3488",
					"maxclass" : "newobj",
					"numinlets" : 0,
					"numoutlets" : 1,
					"outlettype" : [ "" ],
					"patching_rect" : [ 450.0, 37.0, 125.0, 22.0 ],
					"text" : "param lfo_1__onset 0",
					"varname" : "lfo_1__onset"
				}

			}
, 			{
				"box" : 				{
					"id" : "obj-3489",
					"maxclass" : "newobj",
					"numinlets" : 4,
					"numoutlets" : 0,
					"patching_rect" : [ 50.0, 1500.0, 100.0, 22.0 ],
					"text" : "poke audioviz",
					"varname" : "lfo_1.sine_poke"
				}

			}
, 			{
				"box" : 				{
					"id" : "obj-3490",
					"maxclass" : "newobj",
					"numinlets" : 0,
					"numoutlets" : 1,
					"outlettype" : [ "" ],
					"patching_rect" : [ 50.0, 1500.0, 100.0, 22.0 ],
					"text" : "constant 0",
					"varname" : "lfo_1.sine_poke[1]"
				}

			}
, 			{
				"box" : 				{
					"id" : "obj-3491",
					"maxclass" : "newobj",
					"numinlets" : 4,
					"numoutlets" : 0,
					"patching_rect" : [ 50.0, 1500.0, 100.0, 22.0 ],
					"text" : "poke audioviz",
					"varname" : "lfo_1.phasor_poke"
				}

			}
, 			{
				"box" : 				{
					"id" : "obj-3492",
					"maxclass" : "newobj",
					"numinlets" : 0,
					"numoutlets" : 1,
					"outlettype" : [ "" ],
					"patching_rect" : [ 50.0, 1500.0, 100.0, 22.0 ],
					"text" : "constant 1",
					"varname" : "lfo_1.phasor_poke[1]"
				}

			}
, 			{
				"box" : 				{
					"id" : "obj-3493",
					"maxclass" : "newobj",
					"numinlets" : 4,
					"numoutlets" : 0,
					"patching_rect" : [ 50.0, 1500.0, 100.0, 22.0 ],
					"text" : "poke audioviz",
					"varname" : "lfo_1.pulse_poke"
				}

			}
, 			{
				"box" : 				{
					"id" : "obj-3494",
					"maxclass" : "newobj",
					"numinlets" : 0,
					"numoutlets" : 1,
					"outlettype" : [ "" ],
					"patching_rect" : [ 50.0, 1500.0, 100.0, 22.0 ],
					"text" : "constant 2",
					"varname" : "lfo_1.pulse_poke[1]"
				}

			}
, 			{
				"box" : 				{
					"id" : "obj-3495",
					"maxclass" : "newobj",
					"numinlets" : 4,
					"numoutlets" : 0,
					"patching_rect" : [ 50.0, 1500.0, 100.0, 22.0 ],
					"text" : "poke audioviz",
					"varname" : "lfo_1.sine_index_poke"
				}

			}
, 			{
				"box" : 				{
					"id" : "obj-3496",
					"maxclass" : "newobj",
					"numinlets" : 0,
					"numoutlets" : 1,
					"outlettype" : [ "" ],
					"patching_rect" : [ 50.0, 1500.0, 100.0, 22.0 ],
					"text" : "constant 3",
					"varname" : "lfo_1.sine_index_poke[1]"
				}

			}
, 			{
				"box" : 				{
					"id" : "obj-3497",
					"maxclass" : "newobj",
					"numinlets" : 4,
					"numoutlets" : 0,
					"patching_rect" : [ 50.0, 1500.0, 100.0, 22.0 ],
					"text" : "poke audioviz",
					"varname" : "lfo_1.saw_poke"
				}

			}
, 			{
				"box" : 				{
					"id" : "obj-3498",
					"maxclass" : "newobj",
					"numinlets" : 0,
					"numoutlets" : 1,
					"outlettype" : [ "" ],
					"patching_rect" : [ 50.0, 1500.0, 100.0, 22.0 ],
					"text" : "constant 4",
					"varname" : "lfo_1.saw_poke[1]"
				}

			}
, 			{
				"box" : 				{
					"id" : "obj-3499",
					"maxclass" : "newobj",
					"numinlets" : 3,
					"numoutlets" : 5,
					"outlettype" : [ "", "", "", "", "" ],
					"patching_rect" : [ 125.0, 250.0, 100.0, 22.0 ],
					"text" : "lfo",
					"varname" : "lfo_2"
				}

			}
, 			{
				"box" : 				{
					"id" : "obj-3500",
					"maxclass" : "newobj",
					"numinlets" : 1,
					"numoutlets" : 1,
					"outlettype" : [ "" ],
					"patching_rect" : [ 275.0, 60.0, 100.0, 22.0 ],
					"text" : "setparam rate",
					"varname" : "setparam_lfo_2__rate"
				}

			}
, 			{
				"box" : 				{
					"id" : "obj-3501",
					"maxclass" : "newobj",
					"numinlets" : 0,
					"numoutlets" : 1,
					"outlettype" : [ "" ],
					"patching_rect" : [ 450.0, 45.0, 123.0, 22.0 ],
					"text" : "param lfo_2__rate 10",
					"varname" : "lfo_2__rate"
				}

			}
, 			{
				"box" : 				{
					"id" : "obj-3502",
					"maxclass" : "newobj",
					"numinlets" : 1,
					"numoutlets" : 1,
					"outlettype" : [ "" ],
					"patching_rect" : [ 275.0, 60.0, 100.0, 22.0 ],
					"text" : "setparam index",
					"varname" : "setparam_lfo_2__index"
				}

			}
, 			{
				"box" : 				{
					"id" : "obj-3503",
					"maxclass" : "newobj",
					"numinlets" : 0,
					"numoutlets" : 1,
					"outlettype" : [ "" ],
					"patching_rect" : [ 450.0, 45.0, 124.0, 22.0 ],
					"text" : "param lfo_2__index 1",
					"varname" : "lfo_2__index"
				}

			}
, 			{
				"box" : 				{
					"id" : "obj-3504",
					"maxclass" : "newobj",
					"numinlets" : 1,
					"numoutlets" : 1,
					"outlettype" : [ "" ],
					"patching_rect" : [ 275.0, 60.0, 125.0, 22.0 ],
					"text" : "setparam pulse_width",
					"varname" : "setparam_lfo_2__pulse_width"
				}

			}
, 			{
				"box" : 				{
					"id" : "obj-3505",
					"maxclass" : "newobj",
					"numinlets" : 0,
					"numoutlets" : 1,
					"outlettype" : [ "" ],
					"patching_rect" : [ 450.0, 45.0, 175.0, 22.0 ],
					"text" : "param lfo_2__pulse_width 0.25",
					"varname" : "lfo_2__pulse_width"
				}

			}
, 			{
				"box" : 				{
					"id" : "obj-3506",
					"maxclass" : "newobj",
					"numinlets" : 1,
					"numoutlets" : 1,
					"outlettype" : [ "" ],
					"patching_rect" : [ 275.0, 60.0, 100.0, 22.0 ],
					"text" : "setparam onset",
					"varname" : "setparam_lfo_2__onset"
				}

			}
, 			{
				"box" : 				{
					"id" : "obj-3507",
					"maxclass" : "newobj",
					"numinlets" : 0,
					"numoutlets" : 1,
					"outlettype" : [ "" ],
					"patching_rect" : [ 450.0, 45.0, 125.0, 22.0 ],
					"text" : "param lfo_2__onset 0",
					"varname" : "lfo_2__onset"
				}

			}
, 			{
				"box" : 				{
					"id" : "obj-3508",
					"maxclass" : "newobj",
					"numinlets" : 4,
					"numoutlets" : 0,
					"patching_rect" : [ 50.0, 1500.0, 100.0, 22.0 ],
					"text" : "poke audioviz",
					"varname" : "lfo_2.sine_poke"
				}

			}
, 			{
				"box" : 				{
					"id" : "obj-3509",
					"maxclass" : "newobj",
					"numinlets" : 0,
					"numoutlets" : 1,
					"outlettype" : [ "" ],
					"patching_rect" : [ 50.0, 1500.0, 100.0, 22.0 ],
					"text" : "constant 5",
					"varname" : "lfo_2.sine_poke[1]"
				}

			}
, 			{
				"box" : 				{
					"id" : "obj-3510",
					"maxclass" : "newobj",
					"numinlets" : 4,
					"numoutlets" : 0,
					"patching_rect" : [ 50.0, 1500.0, 100.0, 22.0 ],
					"text" : "poke audioviz",
					"varname" : "lfo_2.phasor_poke"
				}

			}
, 			{
				"box" : 				{
					"id" : "obj-3511",
					"maxclass" : "newobj",
					"numinlets" : 0,
					"numoutlets" : 1,
					"outlettype" : [ "" ],
					"patching_rect" : [ 50.0, 1500.0, 100.0, 22.0 ],
					"text" : "constant 6",
					"varname" : "lfo_2.phasor_poke[1]"
				}

			}
, 			{
				"box" : 				{
					"id" : "obj-3512",
					"maxclass" : "newobj",
					"numinlets" : 4,
					"numoutlets" : 0,
					"patching_rect" : [ 50.0, 1500.0, 100.0, 22.0 ],
					"text" : "poke audioviz",
					"varname" : "lfo_2.pulse_poke"
				}

			}
, 			{
				"box" : 				{
					"id" : "obj-3513",
					"maxclass" : "newobj",
					"numinlets" : 0,
					"numoutlets" : 1,
					"outlettype" : [ "" ],
					"patching_rect" : [ 50.0, 1500.0, 100.0, 22.0 ],
					"text" : "constant 7",
					"varname" : "lfo_2.pulse_poke[1]"
				}

			}
, 			{
				"box" : 				{
					"id" : "obj-3514",
					"maxclass" : "newobj",
					"numinlets" : 4,
					"numoutlets" : 0,
					"patching_rect" : [ 50.0, 1500.0, 100.0, 22.0 ],
					"text" : "poke audioviz",
					"varname" : "lfo_2.sine_index_poke"
				}

			}
, 			{
				"box" : 				{
					"id" : "obj-3515",
					"maxclass" : "newobj",
					"numinlets" : 0,
					"numoutlets" : 1,
					"outlettype" : [ "" ],
					"patching_rect" : [ 50.0, 1500.0, 100.0, 22.0 ],
					"text" : "constant 8",
					"varname" : "lfo_2.sine_index_poke[1]"
				}

			}
, 			{
				"box" : 				{
					"id" : "obj-3516",
					"maxclass" : "newobj",
					"numinlets" : 4,
					"numoutlets" : 0,
					"patching_rect" : [ 50.0, 1500.0, 100.0, 22.0 ],
					"text" : "poke audioviz",
					"varname" : "lfo_2.saw_poke"
				}

			}
, 			{
				"box" : 				{
					"id" : "obj-3517",
					"maxclass" : "newobj",
					"numinlets" : 0,
					"numoutlets" : 1,
					"outlettype" : [ "" ],
					"patching_rect" : [ 50.0, 1500.0, 100.0, 22.0 ],
					"text" : "constant 9",
					"varname" : "lfo_2.saw_poke[1]"
				}

			}
, 			{
				"box" : 				{
					"id" : "obj-3518",
					"maxclass" : "newobj",
					"numinlets" : 4,
					"numoutlets" : 3,
					"outlettype" : [ "", "", "" ],
					"patching_rect" : [ 125.0, 300.0, 100.0, 22.0 ],
					"text" : "dualvco",
					"varname" : "dualvco_1"
				}

			}
, 			{
				"box" : 				{
					"id" : "obj-3519",
					"maxclass" : "newobj",
					"numinlets" : 1,
					"numoutlets" : 1,
					"outlettype" : [ "" ],
					"patching_rect" : [ 275.0, 70.0, 121.0, 22.0 ],
					"text" : "setparam vco_1_rate",
					"varname" : "setparam_dualvco_1__vco_1_rate"
				}

			}
, 			{
				"box" : 				{
					"id" : "obj-3520",
					"maxclass" : "newobj",
					"numinlets" : 0,
					"numoutlets" : 1,
					"outlettype" : [ "" ],
					"patching_rect" : [ 450.0, 52.0, 197.0, 22.0 ],
					"text" : "param dualvco_1__vco_1_rate 200",
					"varname" : "dualvco_1__vco_1_rate"
				}

			}
, 			{
				"box" : 				{
					"id" : "obj-3521",
					"maxclass" : "newobj",
					"numinlets" : 1,
					"numoutlets" : 1,
					"outlettype" : [ "" ],
					"patching_rect" : [ 275.0, 70.0, 153.0, 22.0 ],
					"text" : "setparam vco_1_waveform",
					"varname" : "setparam_dualvco_1__vco_1_waveform"
				}

			}
, 			{
				"box" : 				{
					"id" : "obj-3522",
					"maxclass" : "newobj",
					"numinlets" : 0,
					"numoutlets" : 1,
					"outlettype" : [ "" ],
					"patching_rect" : [ 450.0, 52.0, 215.0, 22.0 ],
					"text" : "param dualvco_1__vco_1_waveform 1",
					"varname" : "dualvco_1__vco_1_waveform"
				}

			}
, 			{
				"box" : 				{
					"id" : "obj-3523",
					"maxclass" : "newobj",
					"numinlets" : 1,
					"numoutlets" : 1,
					"outlettype" : [ "" ],
					"patching_rect" : [ 275.0, 70.0, 121.0, 22.0 ],
					"text" : "setparam vco_2_rate",
					"varname" : "setparam_dualvco_1__vco_2_rate"
				}

			}
, 			{
				"box" : 				{
					"id" : "obj-3524",
					"maxclass" : "newobj",
					"numinlets" : 0,
					"numoutlets" : 1,
					"outlettype" : [ "" ],
					"patching_rect" : [ 450.0, 52.0, 183.0, 22.0 ],
					"text" : "param dualvco_1__vco_2_rate 3",
					"varname" : "dualvco_1__vco_2_rate"
				}

			}
, 			{
				"box" : 				{
					"id" : "obj-3525",
					"maxclass" : "newobj",
					"numinlets" : 1,
					"numoutlets" : 1,
					"outlettype" : [ "" ],
					"patching_rect" : [ 275.0, 70.0, 153.0, 22.0 ],
					"text" : "setparam vco_2_waveform",
					"varname" : "setparam_dualvco_1__vco_2_waveform"
				}

			}
, 			{
				"box" : 				{
					"id" : "obj-3526",
					"maxclass" : "newobj",
					"numinlets" : 0,
					"numoutlets" : 1,
					"outlettype" : [ "" ],
					"patching_rect" : [ 450.0, 52.0, 215.0, 22.0 ],
					"text" : "param dualvco_1__vco_2_waveform 1",
					"varname" : "dualvco_1__vco_2_waveform"
				}

			}
, 			{
				"box" : 				{
					"id" : "obj-3527",
					"maxclass" : "newobj",
					"numinlets" : 1,
					"numoutlets" : 1,
					"outlettype" : [ "" ],
					"patching_rect" : [ 275.0, 70.0, 100.0, 22.0 ],
					"text" : "setparam index",
					"varname" : "setparam_dualvco_1__index"
				}

			}
, 			{
				"box" : 				{
					"id" : "obj-3528",
					"maxclass" : "newobj",
					"numinlets" : 0,
					"numoutlets" : 1,
					"outlettype" : [ "" ],
					"patching_rect" : [ 450.0, 52.0, 169.0, 22.0 ],
					"text" : "param dualvco_1__index 0.01",
					"varname" : "dualvco_1__index"
				}

			}
, 			{
				"box" : 				{
					"id" : "obj-3529",
					"maxclass" : "newobj",
					"numinlets" : 1,
					"numoutlets" : 1,
					"outlettype" : [ "" ],
					"patching_rect" : [ 275.0, 70.0, 111.0, 22.0 ],
					"text" : "setparam feedback",
					"varname" : "setparam_dualvco_1__feedback"
				}

			}
, 			{
				"box" : 				{
					"id" : "obj-3530",
					"maxclass" : "newobj",
					"numinlets" : 0,
					"numoutlets" : 1,
					"outlettype" : [ "" ],
					"patching_rect" : [ 450.0, 52.0, 183.0, 22.0 ],
					"text" : "param dualvco_1__feedback 0.3",
					"varname" : "dualvco_1__feedback"
				}

			}
, 			{
				"box" : 				{
					"id" : "obj-3531",
					"maxclass" : "newobj",
					"numinlets" : 4,
					"numoutlets" : 0,
					"patching_rect" : [ 50.0, 1500.0, 100.0, 22.0 ],
					"text" : "poke audioviz",
					"varname" : "dualvco_1.vco_1_poke"
				}

			}
, 			{
				"box" : 				{
					"id" : "obj-3532",
					"maxclass" : "newobj",
					"numinlets" : 0,
					"numoutlets" : 1,
					"outlettype" : [ "" ],
					"patching_rect" : [ 50.0, 1500.0, 100.0, 22.0 ],
					"text" : "constant 10",
					"varname" : "dualvco_1.vco_1_poke[1]"
				}

			}
, 			{
				"box" : 				{
					"id" : "obj-3533",
					"maxclass" : "newobj",
					"numinlets" : 4,
					"numoutlets" : 0,
					"patching_rect" : [ 50.0, 1500.0, 100.0, 22.0 ],
					"text" : "poke audioviz",
					"varname" : "dualvco_1.vco_2_poke"
				}

			}
, 			{
				"box" : 				{
					"id" : "obj-3534",
					"maxclass" : "newobj",
					"numinlets" : 0,
					"numoutlets" : 1,
					"outlettype" : [ "" ],
					"patching_rect" : [ 50.0, 1500.0, 100.0, 22.0 ],
					"text" : "constant 11",
					"varname" : "dualvco_1.vco_2_poke[1]"
				}

			}
, 			{
				"box" : 				{
					"id" : "obj-3535",
					"maxclass" : "newobj",
					"numinlets" : 4,
					"numoutlets" : 0,
					"patching_rect" : [ 50.0, 1500.0, 100.0, 22.0 ],
					"text" : "poke audioviz",
					"varname" : "dualvco_1.master_poke"
				}

			}
, 			{
				"box" : 				{
					"id" : "obj-3536",
					"maxclass" : "newobj",
					"numinlets" : 0,
					"numoutlets" : 1,
					"outlettype" : [ "" ],
					"patching_rect" : [ 50.0, 1500.0, 100.0, 22.0 ],
					"text" : "constant 12",
					"varname" : "dualvco_1.master_poke[1]"
				}

			}
, 			{
				"box" : 				{
					"id" : "obj-3537",
					"maxclass" : "newobj",
					"numinlets" : 2,
					"numoutlets" : 1,
					"outlettype" : [ "" ],
					"patching_rect" : [ 125.0, 350.0, 100.0, 22.0 ],
					"text" : "vca",
					"varname" : "vca_1"
				}

			}
, 			{
				"box" : 				{
					"id" : "obj-3538",
					"maxclass" : "newobj",
					"numinlets" : 1,
					"numoutlets" : 1,
					"outlettype" : [ "" ],
					"patching_rect" : [ 275.0, 80.0, 121.0, 22.0 ],
					"text" : "setparam cv_amount",
					"varname" : "setparam_vca_1__cv_amount"
				}

			}
, 			{
				"box" : 				{
					"id" : "obj-3539",
					"maxclass" : "newobj",
					"numinlets" : 0,
					"numoutlets" : 1,
					"outlettype" : [ "" ],
					"patching_rect" : [ 450.0, 60.0, 170.0, 22.0 ],
					"text" : "param vca_1__cv_amount 0.5",
					"varname" : "vca_1__cv_amount"
				}

			}
, 			{
				"box" : 				{
					"id" : "obj-3540",
					"maxclass" : "newobj",
					"numinlets" : 1,
					"numoutlets" : 1,
					"outlettype" : [ "" ],
					"patching_rect" : [ 275.0, 80.0, 100.0, 22.0 ],
					"text" : "setparam bias",
					"varname" : "setparam_vca_1__bias"
				}

			}
, 			{
				"box" : 				{
					"id" : "obj-3541",
					"maxclass" : "newobj",
					"numinlets" : 0,
					"numoutlets" : 1,
					"outlettype" : [ "" ],
					"patching_rect" : [ 450.0, 60.0, 133.0, 22.0 ],
					"text" : "param vca_1__bias 0.5",
					"varname" : "vca_1__bias"
				}

			}
, 			{
				"box" : 				{
					"id" : "obj-3542",
					"maxclass" : "newobj",
					"numinlets" : 4,
					"numoutlets" : 0,
					"patching_rect" : [ 50.0, 1500.0, 100.0, 22.0 ],
					"text" : "poke audioviz",
					"varname" : "vca_1.output_poke"
				}

			}
, 			{
				"box" : 				{
					"id" : "obj-3543",
					"maxclass" : "newobj",
					"numinlets" : 0,
					"numoutlets" : 1,
					"outlettype" : [ "" ],
					"patching_rect" : [ 50.0, 1500.0, 100.0, 22.0 ],
					"text" : "constant 13",
					"varname" : "vca_1.output_poke[1]"
				}

			}
, 			{
				"box" : 				{
					"id" : "obj-3544",
					"maxclass" : "newobj",
					"numinlets" : 3,
					"numoutlets" : 1,
					"outlettype" : [ "" ],
					"patching_rect" : [ 125.0, 400.0, 100.0, 22.0 ],
					"text" : "pulsars",
					"varname" : "pulsars_1"
				}

			}
, 			{
				"box" : 				{
					"id" : "obj-3545",
					"maxclass" : "newobj",
					"numinlets" : 1,
					"numoutlets" : 1,
					"outlettype" : [ "" ],
					"patching_rect" : [ 275.0, 90.0, 100.0, 22.0 ],
					"text" : "setparam period",
					"varname" : "setparam_pulsars_1__period"
				}

			}
, 			{
				"box" : 				{
					"id" : "obj-3546",
					"maxclass" : "newobj",
					"numinlets" : 0,
					"numoutlets" : 1,
					"outlettype" : [ "" ],
					"patching_rect" : [ 450.0, 67.0, 171.0, 22.0 ],
					"text" : "param pulsars_1__period 0.25",
					"varname" : "pulsars_1__period"
				}

			}
, 			{
				"box" : 				{
					"id" : "obj-3547",
					"maxclass" : "newobj",
					"numinlets" : 1,
					"numoutlets" : 1,
					"outlettype" : [ "" ],
					"patching_rect" : [ 275.0, 90.0, 103.0, 22.0 ],
					"text" : "setparam formant",
					"varname" : "setparam_pulsars_1__formant"
				}

			}
, 			{
				"box" : 				{
					"id" : "obj-3548",
					"maxclass" : "newobj",
					"numinlets" : 0,
					"numoutlets" : 1,
					"outlettype" : [ "" ],
					"patching_rect" : [ 450.0, 67.0, 179.0, 22.0 ],
					"text" : "param pulsars_1__formant 0.25",
					"varname" : "pulsars_1__formant"
				}

			}
, 			{
				"box" : 				{
					"id" : "obj-3549",
					"maxclass" : "newobj",
					"numinlets" : 4,
					"numoutlets" : 0,
					"patching_rect" : [ 50.0, 1500.0, 100.0, 22.0 ],
					"text" : "poke audioviz",
					"varname" : "pulsars_1.output_poke"
				}

			}
, 			{
				"box" : 				{
					"id" : "obj-3550",
					"maxclass" : "newobj",
					"numinlets" : 0,
					"numoutlets" : 1,
					"outlettype" : [ "" ],
					"patching_rect" : [ 50.0, 1500.0, 100.0, 22.0 ],
					"text" : "constant 14",
					"varname" : "pulsars_1.output_poke[1]"
				}

			}
, 			{
				"box" : 				{
					"id" : "obj-3551",
					"maxclass" : "newobj",
					"numinlets" : 1,
					"numoutlets" : 0,
					"patching_rect" : [ 50.0, 600.0, 100.0, 22.0 ],
					"text" : "out 1",
					"varname" : "speaker_1"
				}

			}
 ],
		"lines" : [ 			{
				"patchline" : 				{
					"destination" : [ "obj-3489", 0 ],
					"order" : 1,
					"source" : [ "obj-3480", 0 ]
				}

			}
, 			{
				"patchline" : 				{
					"destination" : [ "obj-3491", 0 ],
					"source" : [ "obj-3480", 1 ]
				}

			}
, 			{
				"patchline" : 				{
					"destination" : [ "obj-3493", 0 ],
					"source" : [ "obj-3480", 2 ]
				}

			}
, 			{
				"patchline" : 				{
					"destination" : [ "obj-3495", 0 ],
					"source" : [ "obj-3480", 3 ]
				}

			}
, 			{
				"patchline" : 				{
					"destination" : [ "obj-3497", 0 ],
					"source" : [ "obj-3480", 4 ]
				}

			}
, 			{
				"patchline" : 				{
					"destination" : [ "obj-3537", 1 ],
					"order" : 0,
					"source" : [ "obj-3480", 0 ]
				}

			}
, 			{
				"patchline" : 				{
					"destination" : [ "obj-3480", 0 ],
					"source" : [ "obj-3481", 0 ]
				}

			}
, 			{
				"patchline" : 				{
					"destination" : [ "obj-3481", 0 ],
					"source" : [ "obj-3482", 0 ]
				}

			}
, 			{
				"patchline" : 				{
					"destination" : [ "obj-3480", 0 ],
					"source" : [ "obj-3483", 0 ]
				}

			}
, 			{
				"patchline" : 				{
					"destination" : [ "obj-3483", 0 ],
					"source" : [ "obj-3484", 0 ]
				}

			}
, 			{
				"patchline" : 				{
					"destination" : [ "obj-3480", 0 ],
					"source" : [ "obj-3485", 0 ]
				}

			}
, 			{
				"patchline" : 				{
					"destination" : [ "obj-3485", 0 ],
					"source" : [ "obj-3486", 0 ]
				}

			}
, 			{
				"patchline" : 				{
					"destination" : [ "obj-3480", 0 ],
					"source" : [ "obj-3487", 0 ]
				}

			}
, 			{
				"patchline" : 				{
					"destination" : [ "obj-3487", 0 ],
					"source" : [ "obj-3488", 0 ]
				}

			}
, 			{
				"patchline" : 				{
					"destination" : [ "obj-3489", 1 ],
					"source" : [ "obj-3490", 0 ]
				}

			}
, 			{
				"patchline" : 				{
					"destination" : [ "obj-3491", 1 ],
					"source" : [ "obj-3492", 0 ]
				}

			}
, 			{
				"patchline" : 				{
					"destination" : [ "obj-3493", 1 ],
					"source" : [ "obj-3494", 0 ]
				}

			}
, 			{
				"patchline" : 				{
					"destination" : [ "obj-3495", 1 ],
					"source" : [ "obj-3496", 0 ]
				}

			}
, 			{
				"patchline" : 				{
					"destination" : [ "obj-3497", 1 ],
					"source" : [ "obj-3498", 0 ]
				}

			}
, 			{
				"patchline" : 				{
					"destination" : [ "obj-3508", 0 ],
					"source" : [ "obj-3499", 0 ]
				}

			}
, 			{
				"patchline" : 				{
					"destination" : [ "obj-3510", 0 ],
					"order" : 1,
					"source" : [ "obj-3499", 1 ]
				}

			}
, 			{
				"patchline" : 				{
					"destination" : [ "obj-3512", 0 ],
					"source" : [ "obj-3499", 2 ]
				}

			}
, 			{
				"patchline" : 				{
					"destination" : [ "obj-3514", 0 ],
					"source" : [ "obj-3499", 3 ]
				}

			}
, 			{
				"patchline" : 				{
					"destination" : [ "obj-3516", 0 ],
					"order" : 1,
					"source" : [ "obj-3499", 4 ]
				}

			}
, 			{
				"patchline" : 				{
					"destination" : [ "obj-3518", 1 ],
					"order" : 0,
					"source" : [ "obj-3499", 1 ]
				}

			}
, 			{
				"patchline" : 				{
					"destination" : [ "obj-3537", 0 ],
					"order" : 0,
					"source" : [ "obj-3499", 4 ]
				}

			}
, 			{
				"patchline" : 				{
					"destination" : [ "obj-3499", 0 ],
					"source" : [ "obj-3500", 0 ]
				}

			}
, 			{
				"patchline" : 				{
					"destination" : [ "obj-3500", 0 ],
					"source" : [ "obj-3501", 0 ]
				}

			}
, 			{
				"patchline" : 				{
					"destination" : [ "obj-3499", 0 ],
					"source" : [ "obj-3502", 0 ]
				}

			}
, 			{
				"patchline" : 				{
					"destination" : [ "obj-3502", 0 ],
					"source" : [ "obj-3503", 0 ]
				}

			}
, 			{
				"patchline" : 				{
					"destination" : [ "obj-3499", 0 ],
					"source" : [ "obj-3504", 0 ]
				}

			}
, 			{
				"patchline" : 				{
					"destination" : [ "obj-3504", 0 ],
					"source" : [ "obj-3505", 0 ]
				}

			}
, 			{
				"patchline" : 				{
					"destination" : [ "obj-3499", 0 ],
					"source" : [ "obj-3506", 0 ]
				}

			}
, 			{
				"patchline" : 				{
					"destination" : [ "obj-3506", 0 ],
					"source" : [ "obj-3507", 0 ]
				}

			}
, 			{
				"patchline" : 				{
					"destination" : [ "obj-3508", 1 ],
					"source" : [ "obj-3509", 0 ]
				}

			}
, 			{
				"patchline" : 				{
					"destination" : [ "obj-3510", 1 ],
					"source" : [ "obj-3511", 0 ]
				}

			}
, 			{
				"patchline" : 				{
					"destination" : [ "obj-3512", 1 ],
					"source" : [ "obj-3513", 0 ]
				}

			}
, 			{
				"patchline" : 				{
					"destination" : [ "obj-3514", 1 ],
					"source" : [ "obj-3515", 0 ]
				}

			}
, 			{
				"patchline" : 				{
					"destination" : [ "obj-3516", 1 ],
					"source" : [ "obj-3517", 0 ]
				}

			}
, 			{
				"patchline" : 				{
					"destination" : [ "obj-3531", 0 ],
					"source" : [ "obj-3518", 0 ]
				}

			}
, 			{
				"patchline" : 				{
					"destination" : [ "obj-3533", 0 ],
					"source" : [ "obj-3518", 1 ]
				}

			}
, 			{
				"patchline" : 				{
					"destination" : [ "obj-3535", 0 ],
					"order" : 1,
					"source" : [ "obj-3518", 2 ]
				}

			}
, 			{
				"patchline" : 				{
					"destination" : [ "obj-3544", 0 ],
					"order" : 0,
					"source" : [ "obj-3518", 2 ]
				}

			}
, 			{
				"patchline" : 				{
					"destination" : [ "obj-3518", 0 ],
					"source" : [ "obj-3519", 0 ]
				}

			}
, 			{
				"patchline" : 				{
					"destination" : [ "obj-3519", 0 ],
					"source" : [ "obj-3520", 0 ]
				}

			}
, 			{
				"patchline" : 				{
					"destination" : [ "obj-3518", 0 ],
					"source" : [ "obj-3521", 0 ]
				}

			}
, 			{
				"patchline" : 				{
					"destination" : [ "obj-3521", 0 ],
					"source" : [ "obj-3522", 0 ]
				}

			}
, 			{
				"patchline" : 				{
					"destination" : [ "obj-3518", 0 ],
					"source" : [ "obj-3523", 0 ]
				}

			}
, 			{
				"patchline" : 				{
					"destination" : [ "obj-3523", 0 ],
					"source" : [ "obj-3524", 0 ]
				}

			}
, 			{
				"patchline" : 				{
					"destination" : [ "obj-3518", 0 ],
					"source" : [ "obj-3525", 0 ]
				}

			}
, 			{
				"patchline" : 				{
					"destination" : [ "obj-3525", 0 ],
					"source" : [ "obj-3526", 0 ]
				}

			}
, 			{
				"patchline" : 				{
					"destination" : [ "obj-3518", 0 ],
					"source" : [ "obj-3527", 0 ]
				}

			}
, 			{
				"patchline" : 				{
					"destination" : [ "obj-3527", 0 ],
					"source" : [ "obj-3528", 0 ]
				}

			}
, 			{
				"patchline" : 				{
					"destination" : [ "obj-3518", 0 ],
					"source" : [ "obj-3529", 0 ]
				}

			}
, 			{
				"patchline" : 				{
					"destination" : [ "obj-3529", 0 ],
					"source" : [ "obj-3530", 0 ]
				}

			}
, 			{
				"patchline" : 				{
					"destination" : [ "obj-3531", 1 ],
					"source" : [ "obj-3532", 0 ]
				}

			}
, 			{
				"patchline" : 				{
					"destination" : [ "obj-3533", 1 ],
					"source" : [ "obj-3534", 0 ]
				}

			}
, 			{
				"patchline" : 				{
					"destination" : [ "obj-3535", 1 ],
					"source" : [ "obj-3536", 0 ]
				}

			}
, 			{
				"patchline" : 				{
					"destination" : [ "obj-3518", 0 ],
					"order" : 1,
					"source" : [ "obj-3537", 0 ]
				}

			}
, 			{
				"patchline" : 				{
					"destination" : [ "obj-3542", 0 ],
					"order" : 2,
					"source" : [ "obj-3537", 0 ]
				}

			}
, 			{
				"patchline" : 				{
					"destination" : [ "obj-3544", 1 ],
					"order" : 0,
					"source" : [ "obj-3537", 0 ]
				}

			}
, 			{
				"patchline" : 				{
					"destination" : [ "obj-3537", 0 ],
					"source" : [ "obj-3538", 0 ]
				}

			}
, 			{
				"patchline" : 				{
					"destination" : [ "obj-3538", 0 ],
					"source" : [ "obj-3539", 0 ]
				}

			}
, 			{
				"patchline" : 				{
					"destination" : [ "obj-3537", 0 ],
					"source" : [ "obj-3540", 0 ]
				}

			}
, 			{
				"patchline" : 				{
					"destination" : [ "obj-3540", 0 ],
					"source" : [ "obj-3541", 0 ]
				}

			}
, 			{
				"patchline" : 				{
					"destination" : [ "obj-3542", 1 ],
					"source" : [ "obj-3543", 0 ]
				}

			}
, 			{
				"patchline" : 				{
					"destination" : [ "obj-3549", 0 ],
					"order" : 0,
					"source" : [ "obj-3544", 0 ]
				}

			}
, 			{
				"patchline" : 				{
					"destination" : [ "obj-3551", 0 ],
					"order" : 1,
					"source" : [ "obj-3544", 0 ]
				}

			}
, 			{
				"patchline" : 				{
					"destination" : [ "obj-3544", 0 ],
					"source" : [ "obj-3545", 0 ]
				}

			}
, 			{
				"patchline" : 				{
					"destination" : [ "obj-3545", 0 ],
					"source" : [ "obj-3546", 0 ]
				}

			}
, 			{
				"patchline" : 				{
					"destination" : [ "obj-3544", 0 ],
					"source" : [ "obj-3547", 0 ]
				}

			}
, 			{
				"patchline" : 				{
					"destination" : [ "obj-3547", 0 ],
					"source" : [ "obj-3548", 0 ]
				}

			}
, 			{
				"patchline" : 				{
					"destination" : [ "obj-3549", 1 ],
					"source" : [ "obj-3550", 0 ]
				}

			}
 ],
		"editing_bgcolor" : [ 0.9, 0.9, 0.9, 1.0 ]
	}

}
