{
	"patcher" : 	{
		"fileversion" : 1,
		"appversion" : 		{
			"major" : 8,
			"minor" : 0,
			"revision" : 3,
			"architecture" : "x64",
			"modernui" : 1
		}
,
		"classnamespace" : "dsp.gen",
		"rect" : [ 42.0, 95.0, 1201.0, 734.0 ],
		"bglocked" : 0,
		"openinpresentation" : 0,
		"default_fontsize" : 12.0,
		"default_fontface" : 0,
		"default_fontname" : "Arial",
		"gridonopen" : 1,
		"gridsize" : [ 15.0, 15.0 ],
		"gridsnaponopen" : 1,
		"objectsnaponopen" : 1,
		"statusbarvisible" : 2,
		"toolbarvisible" : 1,
		"lefttoolbarpinned" : 0,
		"toptoolbarpinned" : 0,
		"righttoolbarpinned" : 0,
		"bottomtoolbarpinned" : 0,
		"toolbars_unpinned_last_save" : 0,
		"tallnewobj" : 0,
		"boxanimatetime" : 200,
		"enablehscroll" : 1,
		"enablevscroll" : 1,
		"devicewidth" : 0.0,
		"description" : "",
		"digest" : "",
		"tags" : "",
		"style" : "",
		"subpatcher_template" : "",
		"boxes" : [ 			{
				"box" : 				{
					"angle" : 270.0,
					"bgcolor" : [ 0.976470588235294, 0.92156862745098, 0.92156862745098, 1.0 ],
					"bordercolor" : [ 0.011764705882353, 0.243137254901961, 0.274509803921569, 1.0 ],
					"id" : "obj-1",
					"maxclass" : "panel",
					"mode" : 0,
					"numinlets" : 1,
					"numoutlets" : 0,
					"patching_rect" : [ 1090.0, 18.0, 278.0, 330.0 ],
					"proportion" : 0.5,
					"varname" : "PLO"
				}

			}
, 			{
				"box" : 				{
					"id" : "obj-22446",
					"maxclass" : "newobj",
					"numinlets" : 3,
					"numoutlets" : 5,
					"outlettype" : [ "", "", "", "", "" ],
					"patching_rect" : [ 125.0, 40.0, 100.0, 22.0 ],
					"text" : "lfo",
					"varname" : "lfo_1"
				}

			}
, 			{
				"box" : 				{
					"id" : "obj-22447",
					"maxclass" : "newobj",
					"numinlets" : 1,
					"numoutlets" : 1,
					"outlettype" : [ "" ],
					"patching_rect" : [ 275.0, 50.0, 100.0, 22.0 ],
					"text" : "setparam rate",
					"varname" : "setparam_lfo_1__rate"
				}

			}
, 			{
				"box" : 				{
					"id" : "obj-22448",
					"maxclass" : "newobj",
					"numinlets" : 0,
					"numoutlets" : 1,
					"outlettype" : [ "" ],
					"patching_rect" : [ 450.0, 37.0, 134.0, 22.0 ],
					"text" : "param lfo_1__rate 0.63",
					"varname" : "lfo_1__rate"
				}

			}
, 			{
				"box" : 				{
					"id" : "obj-22449",
					"maxclass" : "newobj",
					"numinlets" : 1,
					"numoutlets" : 1,
					"outlettype" : [ "" ],
					"patching_rect" : [ 275.0, 50.0, 100.0, 22.0 ],
					"text" : "setparam index",
					"varname" : "setparam_lfo_1__index"
				}

			}
, 			{
				"box" : 				{
					"id" : "obj-22450",
					"maxclass" : "newobj",
					"numinlets" : 0,
					"numoutlets" : 1,
					"outlettype" : [ "" ],
					"patching_rect" : [ 450.0, 37.0, 124.0, 22.0 ],
					"text" : "param lfo_1__index 1",
					"varname" : "lfo_1__index"
				}

			}
, 			{
				"box" : 				{
					"id" : "obj-22451",
					"maxclass" : "newobj",
					"numinlets" : 1,
					"numoutlets" : 1,
					"outlettype" : [ "" ],
					"patching_rect" : [ 275.0, 50.0, 126.0, 22.0 ],
					"text" : "setparam pulse_width",
					"varname" : "setparam_lfo_1__pulse_width"
				}

			}
, 			{
				"box" : 				{
					"id" : "obj-22452",
					"maxclass" : "newobj",
					"numinlets" : 0,
					"numoutlets" : 1,
					"outlettype" : [ "" ],
					"patching_rect" : [ 450.0, 37.0, 176.0, 22.0 ],
					"text" : "param lfo_1__pulse_width 0.25",
					"varname" : "lfo_1__pulse_width"
				}

			}
, 			{
				"box" : 				{
					"id" : "obj-22453",
					"maxclass" : "newobj",
					"numinlets" : 1,
					"numoutlets" : 1,
					"outlettype" : [ "" ],
					"patching_rect" : [ 275.0, 50.0, 100.0, 22.0 ],
					"text" : "setparam onset",
					"varname" : "setparam_lfo_1__onset"
				}

			}
, 			{
				"box" : 				{
					"id" : "obj-22454",
					"maxclass" : "newobj",
					"numinlets" : 0,
					"numoutlets" : 1,
					"outlettype" : [ "" ],
					"patching_rect" : [ 450.0, 37.0, 126.0, 22.0 ],
					"text" : "param lfo_1__onset 0",
					"varname" : "lfo_1__onset"
				}

			}
, 			{
				"box" : 				{
					"id" : "obj-22455",
					"maxclass" : "newobj",
					"numinlets" : 4,
					"numoutlets" : 0,
					"patching_rect" : [ 575.0, 50.0, 138.0, 22.0 ],
					"text" : "poke lfo_1__sine_buffer",
					"varname" : "poke_0"
				}

			}
, 			{
				"box" : 				{
					"id" : "obj-22456",
					"maxclass" : "newobj",
					"numinlets" : 0,
					"numoutlets" : 2,
					"outlettype" : [ "", "" ],
					"patching_rect" : [ 875.0, 100.0, 142.0, 22.0 ],
					"text" : "buffer lfo_1__sine_buffer",
					"varname" : "lfo_1__sine_buffer_varname"
				}

			}
, 			{
				"box" : 				{
					"id" : "obj-22457",
					"maxclass" : "newobj",
					"numinlets" : 4,
					"numoutlets" : 0,
					"patching_rect" : [ 575.0, 50.0, 152.0, 22.0 ],
					"text" : "poke lfo_1__phasor_buffer",
					"varname" : "poke_1"
				}

			}
, 			{
				"box" : 				{
					"id" : "obj-22458",
					"maxclass" : "newobj",
					"numinlets" : 0,
					"numoutlets" : 2,
					"outlettype" : [ "", "" ],
					"patching_rect" : [ 875.0, 100.0, 156.0, 22.0 ],
					"text" : "buffer lfo_1__phasor_buffer",
					"varname" : "lfo_1__phasor_buffer_varname"
				}

			}
, 			{
				"box" : 				{
					"id" : "obj-22459",
					"maxclass" : "newobj",
					"numinlets" : 4,
					"numoutlets" : 0,
					"patching_rect" : [ 575.0, 50.0, 144.0, 22.0 ],
					"text" : "poke lfo_1__pulse_buffer",
					"varname" : "poke_2"
				}

			}
, 			{
				"box" : 				{
					"id" : "obj-22460",
					"maxclass" : "newobj",
					"numinlets" : 0,
					"numoutlets" : 2,
					"outlettype" : [ "", "" ],
					"patching_rect" : [ 875.0, 100.0, 148.0, 22.0 ],
					"text" : "buffer lfo_1__pulse_buffer",
					"varname" : "lfo_1__pulse_buffer_varname"
				}

			}
, 			{
				"box" : 				{
					"id" : "obj-22461",
					"maxclass" : "newobj",
					"numinlets" : 3,
					"numoutlets" : 5,
					"outlettype" : [ "", "", "", "", "" ],
					"patching_rect" : [ 125.0, 50.0, 100.0, 22.0 ],
					"text" : "lfo",
					"varname" : "lfo_2"
				}

			}
, 			{
				"box" : 				{
					"id" : "obj-22462",
					"maxclass" : "newobj",
					"numinlets" : 1,
					"numoutlets" : 1,
					"outlettype" : [ "" ],
					"patching_rect" : [ 275.0, 60.0, 100.0, 22.0 ],
					"text" : "setparam rate",
					"varname" : "setparam_lfo_2__rate"
				}

			}
, 			{
				"box" : 				{
					"id" : "obj-22463",
					"maxclass" : "newobj",
					"numinlets" : 0,
					"numoutlets" : 1,
					"outlettype" : [ "" ],
					"patching_rect" : [ 450.0, 45.0, 116.0, 22.0 ],
					"text" : "param lfo_2__rate 1",
					"varname" : "lfo_2__rate"
				}

			}
, 			{
				"box" : 				{
					"id" : "obj-22464",
					"maxclass" : "newobj",
					"numinlets" : 1,
					"numoutlets" : 1,
					"outlettype" : [ "" ],
					"patching_rect" : [ 275.0, 60.0, 100.0, 22.0 ],
					"text" : "setparam index",
					"varname" : "setparam_lfo_2__index"
				}

			}
, 			{
				"box" : 				{
					"id" : "obj-22465",
					"maxclass" : "newobj",
					"numinlets" : 0,
					"numoutlets" : 1,
					"outlettype" : [ "" ],
					"patching_rect" : [ 450.0, 45.0, 132.0, 22.0 ],
					"text" : "param lfo_2__index 10",
					"varname" : "lfo_2__index"
				}

			}
, 			{
				"box" : 				{
					"id" : "obj-22466",
					"maxclass" : "newobj",
					"numinlets" : 1,
					"numoutlets" : 1,
					"outlettype" : [ "" ],
					"patching_rect" : [ 275.0, 60.0, 126.0, 22.0 ],
					"text" : "setparam pulse_width",
					"varname" : "setparam_lfo_2__pulse_width"
				}

			}
, 			{
				"box" : 				{
					"id" : "obj-22467",
					"maxclass" : "newobj",
					"numinlets" : 0,
					"numoutlets" : 1,
					"outlettype" : [ "" ],
					"patching_rect" : [ 450.0, 45.0, 176.0, 22.0 ],
					"text" : "param lfo_2__pulse_width 0.25",
					"varname" : "lfo_2__pulse_width"
				}

			}
, 			{
				"box" : 				{
					"id" : "obj-22468",
					"maxclass" : "newobj",
					"numinlets" : 1,
					"numoutlets" : 1,
					"outlettype" : [ "" ],
					"patching_rect" : [ 275.0, 60.0, 100.0, 22.0 ],
					"text" : "setparam onset",
					"varname" : "setparam_lfo_2__onset"
				}

			}
, 			{
				"box" : 				{
					"id" : "obj-22469",
					"maxclass" : "newobj",
					"numinlets" : 0,
					"numoutlets" : 1,
					"outlettype" : [ "" ],
					"patching_rect" : [ 450.0, 45.0, 126.0, 22.0 ],
					"text" : "param lfo_2__onset 0",
					"varname" : "lfo_2__onset"
				}

			}
, 			{
				"box" : 				{
					"id" : "obj-22470",
					"maxclass" : "newobj",
					"numinlets" : 4,
					"numoutlets" : 0,
					"patching_rect" : [ 575.0, 60.0, 138.0, 22.0 ],
					"text" : "poke lfo_2__sine_buffer",
					"varname" : "poke_3"
				}

			}
, 			{
				"box" : 				{
					"id" : "obj-22471",
					"maxclass" : "newobj",
					"numinlets" : 0,
					"numoutlets" : 2,
					"outlettype" : [ "", "" ],
					"patching_rect" : [ 875.0, 120.0, 142.0, 22.0 ],
					"text" : "buffer lfo_2__sine_buffer",
					"varname" : "lfo_2__sine_buffer_varname"
				}

			}
, 			{
				"box" : 				{
					"id" : "obj-22472",
					"maxclass" : "newobj",
					"numinlets" : 4,
					"numoutlets" : 0,
					"patching_rect" : [ 575.0, 60.0, 152.0, 22.0 ],
					"text" : "poke lfo_2__phasor_buffer",
					"varname" : "poke_4"
				}

			}
, 			{
				"box" : 				{
					"id" : "obj-22473",
					"maxclass" : "newobj",
					"numinlets" : 0,
					"numoutlets" : 2,
					"outlettype" : [ "", "" ],
					"patching_rect" : [ 875.0, 120.0, 156.0, 22.0 ],
					"text" : "buffer lfo_2__phasor_buffer",
					"varname" : "lfo_2__phasor_buffer_varname"
				}

			}
, 			{
				"box" : 				{
					"id" : "obj-22474",
					"maxclass" : "newobj",
					"numinlets" : 4,
					"numoutlets" : 0,
					"patching_rect" : [ 575.0, 60.0, 144.0, 22.0 ],
					"text" : "poke lfo_2__pulse_buffer",
					"varname" : "poke_5"
				}

			}
, 			{
				"box" : 				{
					"id" : "obj-22475",
					"maxclass" : "newobj",
					"numinlets" : 0,
					"numoutlets" : 2,
					"outlettype" : [ "", "" ],
					"patching_rect" : [ 875.0, 120.0, 148.0, 22.0 ],
					"text" : "buffer lfo_2__pulse_buffer",
					"varname" : "lfo_2__pulse_buffer_varname"
				}

			}
, 			{
				"box" : 				{
					"id" : "obj-22476",
					"maxclass" : "newobj",
					"numinlets" : 4,
					"numoutlets" : 3,
					"outlettype" : [ "", "", "" ],
					"patching_rect" : [ 125.0, 60.0, 100.0, 22.0 ],
					"text" : "ffmvco",
					"varname" : "ffmvco_1"
				}

			}
, 			{
				"box" : 				{
					"id" : "obj-22477",
					"maxclass" : "newobj",
					"numinlets" : 1,
					"numoutlets" : 1,
					"outlettype" : [ "" ],
					"patching_rect" : [ 275.0, 70.0, 122.0, 22.0 ],
					"text" : "setparam vco_1_rate",
					"varname" : "setparam_ffmvco_1__vco_1_rate"
				}

			}
, 			{
				"box" : 				{
					"id" : "obj-22478",
					"maxclass" : "newobj",
					"numinlets" : 0,
					"numoutlets" : 1,
					"outlettype" : [ "" ],
					"patching_rect" : [ 450.0, 52.0, 192.0, 22.0 ],
					"text" : "param ffmvco_1__vco_1_rate 120",
					"varname" : "ffmvco_1__vco_1_rate"
				}

			}
, 			{
				"box" : 				{
					"id" : "obj-22479",
					"maxclass" : "newobj",
					"numinlets" : 1,
					"numoutlets" : 1,
					"outlettype" : [ "" ],
					"patching_rect" : [ 275.0, 70.0, 154.0, 22.0 ],
					"text" : "setparam vco_1_waveform",
					"varname" : "setparam_ffmvco_1__vco_1_waveform"
				}

			}
, 			{
				"box" : 				{
					"id" : "obj-22480",
					"maxclass" : "newobj",
					"numinlets" : 0,
					"numoutlets" : 1,
					"outlettype" : [ "" ],
					"patching_rect" : [ 450.0, 52.0, 210.0, 22.0 ],
					"text" : "param ffmvco_1__vco_1_waveform 0",
					"varname" : "ffmvco_1__vco_1_waveform"
				}

			}
, 			{
				"box" : 				{
					"id" : "obj-22481",
					"maxclass" : "newobj",
					"numinlets" : 1,
					"numoutlets" : 1,
					"outlettype" : [ "" ],
					"patching_rect" : [ 275.0, 70.0, 122.0, 22.0 ],
					"text" : "setparam vco_2_rate",
					"varname" : "setparam_ffmvco_1__vco_2_rate"
				}

			}
, 			{
				"box" : 				{
					"id" : "obj-22482",
					"maxclass" : "newobj",
					"numinlets" : 0,
					"numoutlets" : 1,
					"outlettype" : [ "" ],
					"patching_rect" : [ 450.0, 52.0, 178.0, 22.0 ],
					"text" : "param ffmvco_1__vco_2_rate 3",
					"varname" : "ffmvco_1__vco_2_rate"
				}

			}
, 			{
				"box" : 				{
					"id" : "obj-22483",
					"maxclass" : "newobj",
					"numinlets" : 1,
					"numoutlets" : 1,
					"outlettype" : [ "" ],
					"patching_rect" : [ 275.0, 70.0, 154.0, 22.0 ],
					"text" : "setparam vco_2_waveform",
					"varname" : "setparam_ffmvco_1__vco_2_waveform"
				}

			}
, 			{
				"box" : 				{
					"id" : "obj-22484",
					"maxclass" : "newobj",
					"numinlets" : 0,
					"numoutlets" : 1,
					"outlettype" : [ "" ],
					"patching_rect" : [ 450.0, 52.0, 210.0, 22.0 ],
					"text" : "param ffmvco_1__vco_2_waveform 0",
					"varname" : "ffmvco_1__vco_2_waveform"
				}

			}
, 			{
				"box" : 				{
					"id" : "obj-22485",
					"maxclass" : "newobj",
					"numinlets" : 1,
					"numoutlets" : 1,
					"outlettype" : [ "" ],
					"patching_rect" : [ 275.0, 70.0, 112.0, 22.0 ],
					"text" : "setparam feedback",
					"varname" : "setparam_ffmvco_1__feedback"
				}

			}
, 			{
				"box" : 				{
					"id" : "obj-22486",
					"maxclass" : "newobj",
					"numinlets" : 0,
					"numoutlets" : 1,
					"outlettype" : [ "" ],
					"patching_rect" : [ 450.0, 52.0, 184.0, 22.0 ],
					"text" : "param ffmvco_1__feedback 0.25",
					"varname" : "ffmvco_1__feedback"
				}

			}
, 			{
				"box" : 				{
					"id" : "obj-22487",
					"maxclass" : "newobj",
					"numinlets" : 4,
					"numoutlets" : 0,
					"patching_rect" : [ 575.0, 70.0, 170.0, 22.0 ],
					"text" : "poke ffmvco_1__vco_1_buffer",
					"varname" : "poke_6"
				}

			}
, 			{
				"box" : 				{
					"id" : "obj-22488",
					"maxclass" : "newobj",
					"numinlets" : 0,
					"numoutlets" : 2,
					"outlettype" : [ "", "" ],
					"patching_rect" : [ 875.0, 140.0, 174.0, 22.0 ],
					"text" : "buffer ffmvco_1__vco_1_buffer",
					"varname" : "ffmvco_1__vco_1_buffer_varname"
				}

			}
, 			{
				"box" : 				{
					"id" : "obj-22489",
					"maxclass" : "newobj",
					"numinlets" : 4,
					"numoutlets" : 0,
					"patching_rect" : [ 575.0, 70.0, 170.0, 22.0 ],
					"text" : "poke ffmvco_1__vco_2_buffer",
					"varname" : "poke_7"
				}

			}
, 			{
				"box" : 				{
					"id" : "obj-22490",
					"maxclass" : "newobj",
					"numinlets" : 0,
					"numoutlets" : 2,
					"outlettype" : [ "", "" ],
					"patching_rect" : [ 875.0, 140.0, 174.0, 22.0 ],
					"text" : "buffer ffmvco_1__vco_2_buffer",
					"varname" : "ffmvco_1__vco_2_buffer_varname"
				}

			}
, 			{
				"box" : 				{
					"id" : "obj-22491",
					"maxclass" : "newobj",
					"numinlets" : 4,
					"numoutlets" : 0,
					"patching_rect" : [ 575.0, 70.0, 174.0, 22.0 ],
					"text" : "poke ffmvco_1__master_buffer",
					"varname" : "poke_8"
				}

			}
, 			{
				"box" : 				{
					"id" : "obj-22492",
					"maxclass" : "newobj",
					"numinlets" : 0,
					"numoutlets" : 2,
					"outlettype" : [ "", "" ],
					"patching_rect" : [ 875.0, 140.0, 180.0, 22.0 ],
					"text" : "buffer ffmvco_1__master_buffer",
					"varname" : "ffmvco_1__master_buffer_varname"
				}

			}
, 			{
				"box" : 				{
					"id" : "obj-22493",
					"maxclass" : "newobj",
					"numinlets" : 2,
					"numoutlets" : 1,
					"outlettype" : [ "" ],
					"patching_rect" : [ 125.0, 70.0, 100.0, 22.0 ],
					"text" : "vca",
					"varname" : "vca_1"
				}

			}
, 			{
				"box" : 				{
					"id" : "obj-22494",
					"maxclass" : "newobj",
					"numinlets" : 1,
					"numoutlets" : 1,
					"outlettype" : [ "" ],
					"patching_rect" : [ 275.0, 80.0, 122.0, 22.0 ],
					"text" : "setparam cv_amount",
					"varname" : "setparam_vca_1__cv_amount"
				}

			}
, 			{
				"box" : 				{
					"id" : "obj-22495",
					"maxclass" : "newobj",
					"numinlets" : 0,
					"numoutlets" : 1,
					"outlettype" : [ "" ],
					"patching_rect" : [ 450.0, 60.0, 170.0, 22.0 ],
					"text" : "param vca_1__cv_amount 0.5",
					"varname" : "vca_1__cv_amount"
				}

			}
, 			{
				"box" : 				{
					"id" : "obj-22496",
					"maxclass" : "newobj",
					"numinlets" : 1,
					"numoutlets" : 1,
					"outlettype" : [ "" ],
					"patching_rect" : [ 275.0, 80.0, 100.0, 22.0 ],
					"text" : "setparam bias",
					"varname" : "setparam_vca_1__bias"
				}

			}
, 			{
				"box" : 				{
					"id" : "obj-22497",
					"maxclass" : "newobj",
					"numinlets" : 0,
					"numoutlets" : 1,
					"outlettype" : [ "" ],
					"patching_rect" : [ 450.0, 60.0, 134.0, 22.0 ],
					"text" : "param vca_1__bias 0.5",
					"varname" : "vca_1__bias"
				}

			}
, 			{
				"box" : 				{
					"id" : "obj-22498",
					"maxclass" : "newobj",
					"numinlets" : 4,
					"numoutlets" : 0,
					"patching_rect" : [ 575.0, 80.0, 154.0, 22.0 ],
					"text" : "poke vca_1__output_buffer",
					"varname" : "poke_9"
				}

			}
, 			{
				"box" : 				{
					"id" : "obj-22499",
					"maxclass" : "newobj",
					"numinlets" : 0,
					"numoutlets" : 2,
					"outlettype" : [ "", "" ],
					"patching_rect" : [ 875.0, 160.0, 160.0, 22.0 ],
					"text" : "buffer vca_1__output_buffer",
					"varname" : "vca_1__output_buffer_varname"
				}

			}
, 			{
				"box" : 				{
					"id" : "obj-22500",
					"maxclass" : "newobj",
					"numinlets" : 2,
					"numoutlets" : 2,
					"outlettype" : [ "", "" ],
					"patching_rect" : [ 125.0, 80.0, 100.0, 22.0 ],
					"text" : "comparator",
					"varname" : "comparator_1"
				}

			}
, 			{
				"box" : 				{
					"id" : "obj-22501",
					"maxclass" : "newobj",
					"numinlets" : 4,
					"numoutlets" : 0,
					"patching_rect" : [ 575.0, 90.0, 186.0, 22.0 ],
					"text" : "poke comparator_1__max_buffer",
					"varname" : "poke_10"
				}

			}
, 			{
				"box" : 				{
					"id" : "obj-22502",
					"maxclass" : "newobj",
					"numinlets" : 0,
					"numoutlets" : 2,
					"outlettype" : [ "", "" ],
					"patching_rect" : [ 875.0, 180.0, 190.0, 22.0 ],
					"text" : "buffer comparator_1__max_buffer",
					"varname" : "comparator_1__max_buffer_varname"
				}

			}
, 			{
				"box" : 				{
					"id" : "obj-22503",
					"maxclass" : "newobj",
					"numinlets" : 4,
					"numoutlets" : 0,
					"patching_rect" : [ 575.0, 90.0, 182.0, 22.0 ],
					"text" : "poke comparator_1__min_buffer",
					"varname" : "poke_11"
				}

			}
, 			{
				"box" : 				{
					"id" : "obj-22504",
					"maxclass" : "newobj",
					"numinlets" : 0,
					"numoutlets" : 2,
					"outlettype" : [ "", "" ],
					"patching_rect" : [ 875.0, 180.0, 188.0, 22.0 ],
					"text" : "buffer comparator_1__min_buffer",
					"varname" : "comparator_1__min_buffer_varname"
				}

			}
, 			{
				"box" : 				{
					"id" : "obj-22505",
					"maxclass" : "newobj",
					"numinlets" : 1,
					"numoutlets" : 0,
					"patching_rect" : [ 20.0, 450.0, 100.0, 22.0 ],
					"text" : "out 1",
					"varname" : "speaker"
				}

			}
 ],
		"lines" : [ 			{
				"patchline" : 				{
					"destination" : [ "obj-22455", 0 ],
					"source" : [ "obj-22446", 0 ]
				}

			}
, 			{
				"patchline" : 				{
					"destination" : [ "obj-22457", 0 ],
					"source" : [ "obj-22446", 1 ]
				}

			}
, 			{
				"patchline" : 				{
					"destination" : [ "obj-22459", 0 ],
					"source" : [ "obj-22446", 2 ]
				}

			}
, 			{
				"patchline" : 				{
					"destination" : [ "obj-22446", 0 ],
					"source" : [ "obj-22447", 0 ]
				}

			}
, 			{
				"patchline" : 				{
					"destination" : [ "obj-22447", 0 ],
					"source" : [ "obj-22448", 0 ]
				}

			}
, 			{
				"patchline" : 				{
					"destination" : [ "obj-22446", 0 ],
					"source" : [ "obj-22449", 0 ]
				}

			}
, 			{
				"patchline" : 				{
					"destination" : [ "obj-22449", 0 ],
					"source" : [ "obj-22450", 0 ]
				}

			}
, 			{
				"patchline" : 				{
					"destination" : [ "obj-22446", 0 ],
					"source" : [ "obj-22451", 0 ]
				}

			}
, 			{
				"patchline" : 				{
					"destination" : [ "obj-22451", 0 ],
					"source" : [ "obj-22452", 0 ]
				}

			}
, 			{
				"patchline" : 				{
					"destination" : [ "obj-22446", 0 ],
					"source" : [ "obj-22453", 0 ]
				}

			}
, 			{
				"patchline" : 				{
					"destination" : [ "obj-22453", 0 ],
					"source" : [ "obj-22454", 0 ]
				}

			}
, 			{
				"patchline" : 				{
					"destination" : [ "obj-22470", 0 ],
					"source" : [ "obj-22461", 0 ]
				}

			}
, 			{
				"patchline" : 				{
					"destination" : [ "obj-22472", 0 ],
					"source" : [ "obj-22461", 1 ]
				}

			}
, 			{
				"patchline" : 				{
					"destination" : [ "obj-22474", 0 ],
					"source" : [ "obj-22461", 2 ]
				}

			}
, 			{
				"patchline" : 				{
					"destination" : [ "obj-22461", 0 ],
					"source" : [ "obj-22462", 0 ]
				}

			}
, 			{
				"patchline" : 				{
					"destination" : [ "obj-22462", 0 ],
					"source" : [ "obj-22463", 0 ]
				}

			}
, 			{
				"patchline" : 				{
					"destination" : [ "obj-22461", 0 ],
					"source" : [ "obj-22464", 0 ]
				}

			}
, 			{
				"patchline" : 				{
					"destination" : [ "obj-22464", 0 ],
					"source" : [ "obj-22465", 0 ]
				}

			}
, 			{
				"patchline" : 				{
					"destination" : [ "obj-22461", 0 ],
					"source" : [ "obj-22466", 0 ]
				}

			}
, 			{
				"patchline" : 				{
					"destination" : [ "obj-22466", 0 ],
					"source" : [ "obj-22467", 0 ]
				}

			}
, 			{
				"patchline" : 				{
					"destination" : [ "obj-22461", 0 ],
					"source" : [ "obj-22468", 0 ]
				}

			}
, 			{
				"patchline" : 				{
					"destination" : [ "obj-22468", 0 ],
					"source" : [ "obj-22469", 0 ]
				}

			}
, 			{
				"patchline" : 				{
					"destination" : [ "obj-22487", 0 ],
					"source" : [ "obj-22476", 0 ]
				}

			}
, 			{
				"patchline" : 				{
					"destination" : [ "obj-22489", 0 ],
					"source" : [ "obj-22476", 1 ]
				}

			}
, 			{
				"patchline" : 				{
					"destination" : [ "obj-22491", 0 ],
					"source" : [ "obj-22476", 2 ]
				}

			}
, 			{
				"patchline" : 				{
					"destination" : [ "obj-22476", 0 ],
					"source" : [ "obj-22477", 0 ]
				}

			}
, 			{
				"patchline" : 				{
					"destination" : [ "obj-22477", 0 ],
					"source" : [ "obj-22478", 0 ]
				}

			}
, 			{
				"patchline" : 				{
					"destination" : [ "obj-22476", 0 ],
					"source" : [ "obj-22479", 0 ]
				}

			}
, 			{
				"patchline" : 				{
					"destination" : [ "obj-22479", 0 ],
					"source" : [ "obj-22480", 0 ]
				}

			}
, 			{
				"patchline" : 				{
					"destination" : [ "obj-22476", 0 ],
					"source" : [ "obj-22481", 0 ]
				}

			}
, 			{
				"patchline" : 				{
					"destination" : [ "obj-22481", 0 ],
					"source" : [ "obj-22482", 0 ]
				}

			}
, 			{
				"patchline" : 				{
					"destination" : [ "obj-22476", 0 ],
					"source" : [ "obj-22483", 0 ]
				}

			}
, 			{
				"patchline" : 				{
					"destination" : [ "obj-22483", 0 ],
					"source" : [ "obj-22484", 0 ]
				}

			}
, 			{
				"patchline" : 				{
					"destination" : [ "obj-22476", 0 ],
					"source" : [ "obj-22485", 0 ]
				}

			}
, 			{
				"patchline" : 				{
					"destination" : [ "obj-22485", 0 ],
					"source" : [ "obj-22486", 0 ]
				}

			}
, 			{
				"patchline" : 				{
					"destination" : [ "obj-22498", 0 ],
					"source" : [ "obj-22493", 0 ]
				}

			}
, 			{
				"patchline" : 				{
					"destination" : [ "obj-22493", 0 ],
					"source" : [ "obj-22494", 0 ]
				}

			}
, 			{
				"patchline" : 				{
					"destination" : [ "obj-22494", 0 ],
					"source" : [ "obj-22495", 0 ]
				}

			}
, 			{
				"patchline" : 				{
					"destination" : [ "obj-22493", 0 ],
					"source" : [ "obj-22496", 0 ]
				}

			}
, 			{
				"patchline" : 				{
					"destination" : [ "obj-22496", 0 ],
					"source" : [ "obj-22497", 0 ]
				}

			}
, 			{
				"patchline" : 				{
					"destination" : [ "obj-22501", 0 ],
					"source" : [ "obj-22500", 0 ]
				}

			}
, 			{
				"patchline" : 				{
					"destination" : [ "obj-22503", 0 ],
					"source" : [ "obj-22500", 1 ]
				}

			}
 ],
		"editing_bgcolor" : [ 0.9, 0.9, 0.9, 1.0 ]
	}

}
