{
	"patcher" : 	{
		"fileversion" : 1,
		"appversion" : 		{
			"major" : 8,
			"minor" : 0,
			"revision" : 5,
			"architecture" : "x64",
			"modernui" : 1
		}
,
		"classnamespace" : "dsp.gen",
		"rect" : [ 36.0, 95.0, 820.0, 456.0 ],
		"bglocked" : 0,
		"openinpresentation" : 0,
		"default_fontsize" : 12.0,
		"default_fontface" : 0,
		"default_fontname" : "Arial",
		"gridonopen" : 1,
		"gridsize" : [ 15.0, 15.0 ],
		"gridsnaponopen" : 1,
		"objectsnaponopen" : 1,
		"statusbarvisible" : 2,
		"toolbarvisible" : 1,
		"lefttoolbarpinned" : 0,
		"toptoolbarpinned" : 0,
		"righttoolbarpinned" : 0,
		"bottomtoolbarpinned" : 0,
		"toolbars_unpinned_last_save" : 0,
		"tallnewobj" : 0,
		"boxanimatetime" : 200,
		"enablehscroll" : 1,
		"enablevscroll" : 1,
		"devicewidth" : 0.0,
		"description" : "",
		"digest" : "",
		"tags" : "",
		"style" : "",
		"subpatcher_template" : "",
		"boxes" : [ 			{
				"box" : 				{
					"id" : "obj-852",
					"maxclass" : "newobj",
					"numinlets" : 0,
					"numoutlets" : 1,
					"outlettype" : [ "" ],
					"patching_rect" : [ 9.0, 365.0, 107.0, 22.0 ],
					"text" : "channels bruce 24",
					"varname" : "bufferChannels"
				}

			}
, 			{
				"box" : 				{
					"id" : "obj-851",
					"maxclass" : "newobj",
					"numinlets" : 0,
					"numoutlets" : 2,
					"outlettype" : [ "", "" ],
					"patching_rect" : [ 9.0, 401.0, 72.0, 22.0 ],
					"text" : "buffer bruce",
					"varname" : "visualFeedbackBuffer"
				}

			}
, 			{
				"box" : 				{
					"id" : "obj-158",
					"maxclass" : "newobj",
					"numinlets" : 1,
					"numoutlets" : 0,
					"patching_rect" : [ 81.0, 235.0, 35.0, 22.0 ],
					"text" : "out 2",
					"varname" : "dac_right"
				}

			}
, 			{
				"box" : 				{
					"id" : "obj-157",
					"maxclass" : "newobj",
					"numinlets" : 1,
					"numoutlets" : 0,
					"patching_rect" : [ 18.0, 235.0, 35.0, 22.0 ],
					"text" : "out 1",
					"varname" : "dac_left"
				}

			}
, 			{
				"box" : 				{
					"fontsize" : 20.0,
					"id" : "obj-19662",
					"linecount" : 3,
					"maxclass" : "comment",
					"numinlets" : 1,
					"numoutlets" : 0,
					"patching_rect" : [ 4.0, 274.0, 120.0, 74.0 ],
					"text" : "Don't delete anything in this panel",
					"varname" : "out_comment"
				}

			}
, 			{
				"box" : 				{
					"angle" : 270.0,
					"bgcolor" : [ 0.976470588235294, 0.92156862745098, 0.92156862745098, 1.0 ],
					"bordercolor" : [ 0.011764705882353, 0.243137254901961, 0.274509803921569, 1.0 ],
					"id" : "obj-1",
					"maxclass" : "panel",
					"mode" : 0,
					"numinlets" : 1,
					"numoutlets" : 0,
					"patching_rect" : [ 4.0, 219.0, 132.0, 731.0 ],
					"proportion" : 0.5,
					"varname" : "PLO"
				}

			}
, 			{
				"box" : 				{
					"id" : "obj-1484",
					"maxclass" : "newobj",
					"numinlets" : 2,
					"numoutlets" : 2,
					"outlettype" : [ "", "" ],
					"patching_rect" : [ 125.0, 40.0, 100.0, 22.0 ],
					"text" : "outs",
					"varname" : "outs_1"
				}

			}
, 			{
				"box" : 				{
					"id" : "obj-1485",
					"maxclass" : "newobj",
					"numinlets" : 1,
					"numoutlets" : 1,
					"outlettype" : [ "" ],
					"patching_rect" : [ 275.0, 50.0, 102.0, 22.0 ],
					"text" : "setparam volume",
					"varname" : "setparam_outs_1__volume"
				}

			}
, 			{
				"box" : 				{
					"id" : "obj-1486",
					"linecount" : 3,
					"maxclass" : "newobj",
					"numinlets" : 0,
					"numoutlets" : 1,
					"outlettype" : [ "" ],
					"patching_rect" : [ 450.0, 37.0, 100.0, 49.0 ],
					"text" : "param outs_1__volume 1",
					"varname" : "outs_1__volume"
				}

			}
 ],
		"lines" : [ 			{
				"patchline" : 				{
					"destination" : [ "obj-157", 0 ],
					"source" : [ "obj-1484", 0 ]
				}

			}
, 			{
				"patchline" : 				{
					"destination" : [ "obj-158", 0 ],
					"source" : [ "obj-1484", 1 ]
				}

			}
, 			{
				"patchline" : 				{
					"destination" : [ "obj-1484", 0 ],
					"source" : [ "obj-1485", 0 ]
				}

			}
, 			{
				"patchline" : 				{
					"destination" : [ "obj-1485", 0 ],
					"source" : [ "obj-1486", 0 ]
				}

			}
 ],
		"editing_bgcolor" : [ 0.9, 0.9, 0.9, 1.0 ]
	}

}
