{
	"patcher" : 	{
		"fileversion" : 1,
		"appversion" : 		{
			"major" : 8,
			"minor" : 0,
			"revision" : 3,
			"architecture" : "x64",
			"modernui" : 1
		}
,
		"classnamespace" : "box",
		"rect" : [ 251.0, 661.0, 640.0, 319.0 ],
		"bglocked" : 0,
		"openinpresentation" : 0,
		"default_fontsize" : 12.0,
		"default_fontface" : 0,
		"default_fontname" : "Arial",
		"gridonopen" : 1,
		"gridsize" : [ 15.0, 15.0 ],
		"gridsnaponopen" : 1,
		"objectsnaponopen" : 1,
		"statusbarvisible" : 2,
		"toolbarvisible" : 1,
		"lefttoolbarpinned" : 0,
		"toptoolbarpinned" : 0,
		"righttoolbarpinned" : 0,
		"bottomtoolbarpinned" : 0,
		"toolbars_unpinned_last_save" : 0,
		"tallnewobj" : 0,
		"boxanimatetime" : 200,
		"enablehscroll" : 1,
		"enablevscroll" : 1,
		"devicewidth" : 0.0,
		"description" : "",
		"digest" : "",
		"tags" : "",
		"style" : "",
		"subpatcher_template" : "",
		"boxes" : [ 			{
				"box" : 				{
					"id" : "obj-15",
					"maxclass" : "toggle",
					"numinlets" : 1,
					"numoutlets" : 1,
					"outlettype" : [ "int" ],
					"parameter_enable" : 0,
					"patching_rect" : [ 502.0, 98.0, 24.0, 24.0 ]
				}

			}
, 			{
				"box" : 				{
					"id" : "obj-10",
					"maxclass" : "newobj",
					"numinlets" : 2,
					"numoutlets" : 1,
					"outlettype" : [ "bang" ],
					"patching_rect" : [ 502.0, 136.0, 76.0, 22.0 ],
					"text" : "qmetro 1000"
				}

			}
, 			{
				"box" : 				{
					"id" : "obj-4",
					"maxclass" : "message",
					"numinlets" : 2,
					"numoutlets" : 1,
					"outlettype" : [ "" ],
					"patching_rect" : [ 370.0, 90.0, 48.0, 22.0 ],
					"text" : "weirder"
				}

			}
, 			{
				"box" : 				{
					"id" : "obj-14",
					"maxclass" : "message",
					"numinlets" : 2,
					"numoutlets" : 1,
					"outlettype" : [ "" ],
					"patching_rect" : [ 308.0, 90.0, 55.0, 22.0 ],
					"text" : "biggerer"
				}

			}
, 			{
				"box" : 				{
					"id" : "obj-12",
					"linecount" : 3,
					"maxclass" : "comment",
					"numinlets" : 1,
					"numoutlets" : 0,
					"patching_rect" : [ 339.0, 213.0, 191.0, 47.0 ],
					"text" : "individual boxes within a gen patcher can also have scripting names"
				}

			}
, 			{
				"box" : 				{
					"id" : "obj-11",
					"linecount" : 4,
					"maxclass" : "comment",
					"numinlets" : 1,
					"numoutlets" : 0,
					"patching_rect" : [ 86.0, 213.0, 225.0, 60.0 ],
					"text" : "this gen~ has been given a scripting name (in this case, \"thegen\"), through which it's contained gen patcher can be scripted."
				}

			}
, 			{
				"box" : 				{
					"id" : "obj-9",
					"maxclass" : "comment",
					"numinlets" : 1,
					"numoutlets" : 0,
					"patching_rect" : [ 63.0, 90.0, 185.0, 20.0 ],
					"text" : "generate a randomized patcher "
				}

			}
, 			{
				"box" : 				{
					"fontname" : "Arial Italic",
					"fontsize" : 18.0,
					"id" : "obj-7",
					"maxclass" : "comment",
					"numinlets" : 1,
					"numoutlets" : 0,
					"patching_rect" : [ 30.0, 23.0, 539.0, 27.0 ],
					"text" : "gen~ patchers can also be created & modified by patcher scripting"
				}

			}
, 			{
				"box" : 				{
					"id" : "obj-5",
					"maxclass" : "button",
					"numinlets" : 1,
					"numoutlets" : 1,
					"outlettype" : [ "bang" ],
					"parameter_enable" : 0,
					"patching_rect" : [ 30.0, 90.0, 24.0, 24.0 ]
				}

			}
, 			{
				"box" : 				{
					"id" : "obj-3",
					"maxclass" : "newobj",
					"numinlets" : 1,
					"numoutlets" : 1,
					"outlettype" : [ "" ],
					"patching_rect" : [ 30.0, 128.0, 217.0, 22.0 ],
					"saved_object_attributes" : 					{
						"filename" : "genpatcherscripting.js",
						"parameter_enable" : 0
					}
,
					"text" : "js genpatcherscripting.js @autowatch 1"
				}

			}
, 			{
				"box" : 				{
					"id" : "obj-2",
					"maxclass" : "ezdac~",
					"numinlets" : 2,
					"numoutlets" : 0,
					"patching_rect" : [ 30.0, 251.0, 45.0, 45.0 ]
				}

			}
, 			{
				"box" : 				{
					"id" : "obj-1",
					"maxclass" : "newobj",
					"numinlets" : 1,
					"numoutlets" : 1,
					"outlettype" : [ "signal" ],
					"patcher" : 					{
						"fileversion" : 1,
						"appversion" : 						{
							"major" : 8,
							"minor" : 0,
							"revision" : 3,
							"architecture" : "x64",
							"modernui" : 1
						}
,
						"classnamespace" : "dsp.gen",
						"rect" : [ 59.0, 78.0, 242.0, 914.0 ],
						"bglocked" : 0,
						"openinpresentation" : 0,
						"default_fontsize" : 12.0,
						"default_fontface" : 0,
						"default_fontname" : "Arial",
						"gridonopen" : 1,
						"gridsize" : [ 15.0, 15.0 ],
						"gridsnaponopen" : 1,
						"objectsnaponopen" : 1,
						"statusbarvisible" : 2,
						"toolbarvisible" : 1,
						"lefttoolbarpinned" : 0,
						"toptoolbarpinned" : 0,
						"righttoolbarpinned" : 0,
						"bottomtoolbarpinned" : 0,
						"toolbars_unpinned_last_save" : 0,
						"tallnewobj" : 0,
						"boxanimatetime" : 200,
						"enablehscroll" : 1,
						"enablevscroll" : 1,
						"devicewidth" : 0.0,
						"description" : "",
						"digest" : "",
						"tags" : "",
						"style" : "",
						"subpatcher_template" : "",
						"boxes" : [ 							{
								"box" : 								{
									"id" : "obj-548",
									"maxclass" : "newobj",
									"numinlets" : 2,
									"numoutlets" : 1,
									"outlettype" : [ "" ],
									"patching_rect" : [ 10.0, 10.0, 100.0, 22.0 ],
									"text" : "+",
									"varname" : "box0"
								}

							}
, 							{
								"box" : 								{
									"id" : "obj-549",
									"maxclass" : "newobj",
									"numinlets" : 3,
									"numoutlets" : 1,
									"outlettype" : [ "" ],
									"patching_rect" : [ 15.0, 40.0, 100.0, 22.0 ],
									"text" : "?",
									"varname" : "box1"
								}

							}
, 							{
								"box" : 								{
									"id" : "obj-550",
									"maxclass" : "newobj",
									"numinlets" : 6,
									"numoutlets" : 1,
									"outlettype" : [ "" ],
									"patching_rect" : [ 20.0, 70.0, 100.0, 22.0 ],
									"text" : "scale",
									"varname" : "box2"
								}

							}
, 							{
								"box" : 								{
									"id" : "obj-551",
									"maxclass" : "newobj",
									"numinlets" : 2,
									"numoutlets" : 2,
									"outlettype" : [ "", "" ],
									"patching_rect" : [ 25.0, 100.0, 100.0, 22.0 ],
									"text" : "cartopol",
									"varname" : "box3"
								}

							}
, 							{
								"box" : 								{
									"id" : "obj-552",
									"maxclass" : "newobj",
									"numinlets" : 1,
									"numoutlets" : 1,
									"outlettype" : [ "" ],
									"patching_rect" : [ 30.0, 130.0, 100.0, 22.0 ],
									"text" : "log10",
									"varname" : "box4"
								}

							}
, 							{
								"box" : 								{
									"id" : "obj-553",
									"maxclass" : "newobj",
									"numinlets" : 2,
									"numoutlets" : 1,
									"outlettype" : [ "" ],
									"patching_rect" : [ 35.0, 160.0, 100.0, 22.0 ],
									"text" : "round",
									"varname" : "box5"
								}

							}
, 							{
								"box" : 								{
									"id" : "obj-554",
									"maxclass" : "newobj",
									"numinlets" : 2,
									"numoutlets" : 1,
									"outlettype" : [ "" ],
									"patching_rect" : [ 40.0, 190.0, 100.0, 22.0 ],
									"text" : "/",
									"varname" : "box6"
								}

							}
, 							{
								"box" : 								{
									"id" : "obj-555",
									"maxclass" : "newobj",
									"numinlets" : 0,
									"numoutlets" : 1,
									"outlettype" : [ "" ],
									"patching_rect" : [ 45.0, 220.0, 100.0, 22.0 ],
									"text" : "noise",
									"varname" : "box7"
								}

							}
, 							{
								"box" : 								{
									"id" : "obj-556",
									"maxclass" : "newobj",
									"numinlets" : 1,
									"numoutlets" : 1,
									"outlettype" : [ "" ],
									"patching_rect" : [ 50.0, 250.0, 100.0, 22.0 ],
									"text" : "log10",
									"varname" : "box8"
								}

							}
, 							{
								"box" : 								{
									"id" : "obj-557",
									"maxclass" : "newobj",
									"numinlets" : 3,
									"numoutlets" : 1,
									"outlettype" : [ "" ],
									"patching_rect" : [ 55.0, 280.0, 100.0, 22.0 ],
									"text" : "mix",
									"varname" : "box9"
								}

							}
, 							{
								"box" : 								{
									"id" : "obj-558",
									"maxclass" : "newobj",
									"numinlets" : 2,
									"numoutlets" : 1,
									"outlettype" : [ "" ],
									"patching_rect" : [ 60.0, 310.0, 100.0, 22.0 ],
									"text" : "!%",
									"varname" : "box10"
								}

							}
, 							{
								"box" : 								{
									"id" : "obj-559",
									"maxclass" : "newobj",
									"numinlets" : 2,
									"numoutlets" : 1,
									"outlettype" : [ "" ],
									"patching_rect" : [ 65.0, 340.0, 100.0, 22.0 ],
									"text" : "+",
									"varname" : "box11"
								}

							}
, 							{
								"box" : 								{
									"id" : "obj-560",
									"maxclass" : "newobj",
									"numinlets" : 2,
									"numoutlets" : 2,
									"outlettype" : [ "", "" ],
									"patching_rect" : [ 70.0, 370.0, 100.0, 22.0 ],
									"text" : "poltocar",
									"varname" : "box12"
								}

							}
, 							{
								"box" : 								{
									"id" : "obj-561",
									"maxclass" : "newobj",
									"numinlets" : 2,
									"numoutlets" : 1,
									"outlettype" : [ "" ],
									"patching_rect" : [ 75.0, 400.0, 100.0, 22.0 ],
									"text" : "!/",
									"varname" : "box13"
								}

							}
, 							{
								"box" : 								{
									"id" : "obj-562",
									"maxclass" : "newobj",
									"numinlets" : 0,
									"numoutlets" : 1,
									"outlettype" : [ "" ],
									"patching_rect" : [ 80.0, 430.0, 100.0, 22.0 ],
									"text" : "in",
									"varname" : "box14"
								}

							}
, 							{
								"box" : 								{
									"id" : "obj-563",
									"maxclass" : "newobj",
									"numinlets" : 2,
									"numoutlets" : 1,
									"outlettype" : [ "" ],
									"patching_rect" : [ 85.0, 460.0, 100.0, 22.0 ],
									"text" : "+",
									"varname" : "box15"
								}

							}
, 							{
								"box" : 								{
									"id" : "obj-564",
									"maxclass" : "newobj",
									"numinlets" : 2,
									"numoutlets" : 1,
									"outlettype" : [ "" ],
									"patching_rect" : [ 90.0, 490.0, 100.0, 22.0 ],
									"text" : "max",
									"varname" : "box16"
								}

							}
, 							{
								"box" : 								{
									"id" : "obj-565",
									"maxclass" : "newobj",
									"numinlets" : 1,
									"numoutlets" : 1,
									"outlettype" : [ "" ],
									"patching_rect" : [ 95.0, 520.0, 100.0, 22.0 ],
									"text" : "sqrt",
									"varname" : "box17"
								}

							}
, 							{
								"box" : 								{
									"id" : "obj-566",
									"maxclass" : "newobj",
									"numinlets" : 0,
									"numoutlets" : 1,
									"outlettype" : [ "" ],
									"patching_rect" : [ 100.0, 550.0, 100.0, 22.0 ],
									"text" : "in",
									"varname" : "box18"
								}

							}
, 							{
								"box" : 								{
									"id" : "obj-567",
									"maxclass" : "newobj",
									"numinlets" : 0,
									"numoutlets" : 1,
									"outlettype" : [ "" ],
									"patching_rect" : [ 105.0, 580.0, 100.0, 22.0 ],
									"text" : "in",
									"varname" : "box19"
								}

							}
 ],
						"lines" : [ 							{
								"patchline" : 								{
									"destination" : [ "obj-549", 0 ],
									"source" : [ "obj-548", 0 ]
								}

							}
, 							{
								"patchline" : 								{
									"destination" : [ "obj-550", 0 ],
									"source" : [ "obj-549", 0 ]
								}

							}
, 							{
								"patchline" : 								{
									"destination" : [ "obj-551", 0 ],
									"source" : [ "obj-550", 0 ]
								}

							}
, 							{
								"patchline" : 								{
									"destination" : [ "obj-552", 0 ],
									"source" : [ "obj-551", 1 ]
								}

							}
, 							{
								"patchline" : 								{
									"destination" : [ "obj-553", 1 ],
									"source" : [ "obj-551", 0 ]
								}

							}
, 							{
								"patchline" : 								{
									"destination" : [ "obj-553", 0 ],
									"source" : [ "obj-552", 0 ]
								}

							}
, 							{
								"patchline" : 								{
									"destination" : [ "obj-554", 0 ],
									"source" : [ "obj-553", 0 ]
								}

							}
, 							{
								"patchline" : 								{
									"destination" : [ "obj-557", 1 ],
									"source" : [ "obj-554", 0 ]
								}

							}
, 							{
								"patchline" : 								{
									"destination" : [ "obj-556", 0 ],
									"source" : [ "obj-555", 0 ]
								}

							}
, 							{
								"patchline" : 								{
									"destination" : [ "obj-557", 0 ],
									"source" : [ "obj-556", 0 ]
								}

							}
, 							{
								"patchline" : 								{
									"destination" : [ "obj-558", 0 ],
									"source" : [ "obj-557", 0 ]
								}

							}
, 							{
								"patchline" : 								{
									"destination" : [ "obj-559", 0 ],
									"source" : [ "obj-558", 0 ]
								}

							}
, 							{
								"patchline" : 								{
									"destination" : [ "obj-560", 0 ],
									"source" : [ "obj-559", 0 ]
								}

							}
, 							{
								"patchline" : 								{
									"destination" : [ "obj-561", 0 ],
									"source" : [ "obj-560", 1 ]
								}

							}
, 							{
								"patchline" : 								{
									"destination" : [ "obj-561", 1 ],
									"source" : [ "obj-560", 0 ]
								}

							}
, 							{
								"patchline" : 								{
									"destination" : [ "obj-563", 1 ],
									"source" : [ "obj-561", 0 ]
								}

							}
, 							{
								"patchline" : 								{
									"destination" : [ "obj-563", 0 ],
									"source" : [ "obj-562", 0 ]
								}

							}
, 							{
								"patchline" : 								{
									"destination" : [ "obj-564", 0 ],
									"source" : [ "obj-563", 0 ]
								}

							}
, 							{
								"patchline" : 								{
									"destination" : [ "obj-565", 0 ],
									"source" : [ "obj-564", 0 ]
								}

							}
 ],
						"editing_bgcolor" : [ 0.9, 0.9, 0.9, 1.0 ]
					}
,
					"patching_rect" : [ 30.0, 213.0, 38.0, 22.0 ],
					"text" : "gen~",
					"varname" : "thegen"
				}

			}
 ],
		"lines" : [ 			{
				"patchline" : 				{
					"destination" : [ "obj-2", 1 ],
					"order" : 0,
					"source" : [ "obj-1", 0 ]
				}

			}
, 			{
				"patchline" : 				{
					"destination" : [ "obj-2", 0 ],
					"order" : 1,
					"source" : [ "obj-1", 0 ]
				}

			}
, 			{
				"patchline" : 				{
					"destination" : [ "obj-4", 0 ],
					"source" : [ "obj-10", 0 ]
				}

			}
, 			{
				"patchline" : 				{
					"destination" : [ "obj-3", 0 ],
					"source" : [ "obj-14", 0 ]
				}

			}
, 			{
				"patchline" : 				{
					"destination" : [ "obj-10", 0 ],
					"source" : [ "obj-15", 0 ]
				}

			}
, 			{
				"patchline" : 				{
					"destination" : [ "obj-3", 0 ],
					"source" : [ "obj-4", 0 ]
				}

			}
, 			{
				"patchline" : 				{
					"destination" : [ "obj-3", 0 ],
					"source" : [ "obj-5", 0 ]
				}

			}
 ],
		"dependency_cache" : [ 			{
				"name" : "genpatcherscripting.js",
				"bootpath" : "~/code/msvr/max_resources",
				"patcherrelativepath" : ".",
				"type" : "TEXT",
				"implicit" : 1
			}
 ],
		"autosave" : 0
	}

}
